/* XPM */
static char *result[] = {
/* columns rows colors chars-per-pixel */
"50 50 225 2 ",
"   c #151515",
".  c #1C1C1C",
"X  c #1E1615",
"o  c #331E1D",
"O  c #241D1C",
"+  c #32211F",
"@  c #232323",
"#  c #2C2C2C",
"$  c #272729",
"%  c #2F3339",
"&  c #333333",
"*  c #3B3B3B",
"=  c #35373D",
"-  c #770B03",
";  c #7E1006",
":  c #69120D",
">  c #6C231B",
",  c #4C3430",
"<  c #6A2C30",
"1  c #5B0E0A",
"2  c #53423A",
"3  c #664433",
"4  c #2A3141",
"5  c #373B43",
"6  c #313E59",
"7  c #53344D",
"8  c #3E414B",
"9  c #394255",
"0  c #3C4A63",
"q  c #434343",
"w  c #4A4A4A",
"e  c #434449",
"r  c #454753",
"t  c #425575",
"y  c #475169",
"u  c #5E617A",
"i  c #71726D",
"p  c #6B5D6E",
"a  c #871909",
"s  c #861E12",
"d  c #8C220C",
"f  c #90240D",
"g  c #93280F",
"h  c #8D2816",
"j  c #962910",
"k  c #9A2B14",
"l  c #943519",
"z  c #9B3618",
"x  c #9D3415",
"c  c #A22911",
"v  c #A23616",
"b  c #A83819",
"n  c #B03D1B",
"m  c #8D332D",
"M  c #953925",
"N  c #8A3532",
"B  c #A93A21",
"V  c #AB431B",
"C  c #B4431E",
"Z  c #B04D1E",
"A  c #984528",
"S  c #964239",
"D  c #875133",
"F  c #A44625",
"G  c #B94C21",
"H  c #BD5224",
"J  c #B95628",
"K  c #A84F37",
"L  c #C45C28",
"P  c #C05726",
"I  c #C9642C",
"U  c #CD6A32",
"Y  c #C36436",
"T  c #D16E3A",
"R  c #D4703F",
"E  c #8D4740",
"W  c #8B5456",
"Q  c #95544E",
"!  c #B56146",
"~  c #B96D56",
"^  c #875A6A",
"/  c #845C78",
"(  c #8F5569",
")  c #956A75",
"_  c #96616C",
"`  c #A8776D",
"'  c #AF767B",
"]  c #B67873",
"[  c #CC7042",
"{  c #D57444",
"}  c #D7794A",
"|  c #DF7E5D",
" . c #C57B65",
".. c #CD7D6B",
"X. c #B78C73",
"o. c #DB8657",
"O. c #C9826B",
"+. c #DD9766",
"@. c #C68578",
"#. c #DA8F71",
"$. c #E48769",
"%. c #E49473",
"&. c #DDA275",
"*. c #E5A87A",
"=. c #475E8D",
"-. c #56628A",
";. c #4B6796",
":. c #49638D",
">. c #69718B",
",. c #7B759C",
"<. c #687094",
"1. c #5D78B5",
"2. c #5871A5",
"3. c #6B79B0",
"4. c #8C6686",
"5. c #8E7693",
"6. c #A27C9D",
"7. c #8A6CA1",
"8. c #5C84BD",
"9. c #758BBF",
"0. c #7C8FD0",
"q. c #7A99E8",
"w. c #699DEE",
"e. c #76A4EB",
"r. c #64A9FF",
"t. c #6BAAFE",
"y. c #64A2F7",
"u. c #72ADFD",
"i. c #79A5FC",
"p. c #76B0FF",
"a. c #7BB2FF",
"s. c #9B8990",
"d. c #B88888",
"f. c #AB8890",
"g. c #B68892",
"h. c #918EB1",
"j. c #B99EB7",
"k. c #AC91AC",
"l. c #ADAAB5",
"z. c #B7B49B",
"x. c #CE8F85",
"c. c #E6958C",
"v. c #D1AB8C",
"b. c #E8AC81",
"n. c #E8AA86",
"m. c #EDB68E",
"M. c #E7B286",
"N. c #EFBE9A",
"B. c #EABB93",
"V. c #F0AC95",
"C. c #D7A7AA",
"Z. c #DEACB4",
"A. c #F1B6AE",
"S. c #D5C29D",
"D. c #F1C39D",
"F. c #EBC39E",
"G. c #CAC7B9",
"H. c #F5C7AA",
"J. c #EECBBA",
"K. c #F8CBB6",
"L. c #F8D5BA",
"P. c #F0D0AE",
"I. c #8E89C7",
"U. c #8E90D3",
"Y. c #A194C6",
"T. c #93A3D9",
"R. c #BAA9C8",
"E. c #AAAAD2",
"W. c #849DEA",
"Q. c #8AABE9",
"!. c #86A7E6",
"~. c #9AA5EA",
"^. c #9CB4EB",
"/. c #85ACFE",
"(. c #8CACFF",
"). c #86AAFA",
"_. c #93ACFF",
"`. c #90A7FA",
"'. c #83B5FF",
"]. c #8CBAFF",
"[. c #87B7FB",
"{. c #9BB3FE",
"}. c #93BDFF",
"|. c #9ABEFE",
" X c #9CB9F1",
".X c #A2AEE9",
"XX c #B7B6E7",
"oX c #A5BBFF",
"OX c #ADBCFE",
"+X c #A7B7FB",
"@X c #B3BCFE",
"#X c #C9B2CC",
"$X c #E5BBC2",
"%X c #B4C3DE",
"&X c #9BC3FF",
"*X c #92C2FF",
"=X c #A3C4FF",
"-X c #A6C8FF",
";X c #ABCBFF",
":X c #A8C2FF",
">X c #BCC3FF",
",X c #B1CBFE",
"<X c #B8CEFD",
"1X c #BCD3FF",
"2X c #B6D1FF",
"3X c #BACAE7",
"4X c #FBDBC4",
"5X c #E4DDC8",
"6X c #FCE4CA",
"7X c #F8E1C4",
"8X c #F9EDD4",
"9X c #FBF3DB",
"0X c #D6D4EC",
"qX c #C2C5FF",
"wX c #C2C9FF",
"eX c #CBCDFF",
"rX c #C6D8FF",
"tX c #CDDDFF",
"yX c #C8D0FF",
"uX c #D4DBFF",
"iX c #D8DAFC",
"pX c #E2D8E9",
"aX c #D7E2FF",
"sX c #E1E2FF",
"dX c #E8E9FF",
/* pixels */
"q q q q q q * * * * * & * & # #   & * * 2 q q q * * * * * & & & # . $ # # # # # # # # @ q 8 2 w 2 8 ",
"q q q q * q q * * * * & & # # $ @ & * * * * * * * = = & & & & & # . . @ @ # # @ # $ @ # q q 8 8 w 8 ",
"q q * * 2 * * = & & & & # # # @ # & # & * & * & & & & & & & & & # @   . @ @ @ @ . .   & q q q q q q ",
"* * * * % & & & & # # & & # # . # & & & & & & & & & & & # & & # # .                   & * * * * q * ",
"* * * & & = & & & # # # # # $ O # & & & & # & & & & & # & # # # @                     @ & * * * * * ",
"& * & * & & & & # & & # # $ . . # # & # # & # & # & # & # # # # @     .   .   . . . .   & * * * & & ",
"& * & & & & & & & # # # # @   @ # # # # # # & # # # & # @ # @ @ . . . . . . . @ . @ . . @ & * * * & ",
"& & & & & & & # & # # # @ .   . @ $ $ # & # # & & # # @ # # @ @   . . . . . . @ @ @ @ @   # & & * & ",
"& & & & # & # # # # @ . .       . . @ $ # # $ $ @ @ @ @ @ @ . .   . . . @ @ @ $ @ $ @ @ @ @ # & & & ",
"& & & # & # & # @ @ .     . . . . . . . @ $ @ @ @ @ @ . . . .   . . @ @ @ @ @ # # # # # $ . @ & & & ",
"& & & # # # @ . . . .   . . @ @ @ @ . . . . @ . . . .           @ @ @ @ $ $ # # # & & & # #   @ # & ",
"# & & # @ @ . . . .   . . @ @ # # # # .   . 9 2.;.% . . . .   4 t 0 # $ $ % # & & & & & & & @ @ @ # ",
"# & @ . . . . .   . . @ @ @ # # & & & & @ @ ^.3X%XG.S.v.&.X.h.*X&X*X:.# & & & & & * * * * & & . @ @ ",
"@ # . . . . .     . . @ # # # & & * * q i z.5X7X7X7XP.F.v.&.G.-X-X&X8.# & & * * * * * * * * & # . @ ",
". @ . . .       . . @ $ # # & * = * i G.8X8X8X6XL.P.P.D.D.*.O.E.&X*X9.3 * * * * q * q q * * * & . . ",
". . .   . @ @   . @ @ @ # & & * i z.5X9X9X8X7X4XH.N.m.M.*.D.*.O.f.s.Q V D 2 * q q 8 8 2 q * & # @   ",
"    @ & * q * .   . @ $ # & 5 l.dXaXpX9X8X6X4XA.$XaXrX+Xk.x.&.%.R U I J Z V 2 * 2 8 q * & & # # @   ",
"@ * w w e 8 2 #     . O $ r 0XdXaXaXyXR.4X4XK.0XaXiXrX<X].a.T.O.+.T U L J V z 5.>.8 * & & # # # .   ",
"w w w w q q * * @     . & E.sXsXiXuX:Xq.4X4XA.eXuXrX1X,X|.a.p.k.+.{ U I J Z V #XwX3.= & & # # . @ q ",
"w w q q q q * * $       >.iXiXiXuXeX).q.J.6XA.qXyX1X,X:X|.'.p.e.O.{ U I L Z b k.eX2X-.& & # . * w w ",
"w q q q * * * & #       XXyXyXyXeXoXi.h.J.4X4XXXoX=X-XoX].'.'.p.f.o.I I L H V ' qX+XW.5 O @ * q w w ",
"q q * * * & & & # . . . wXwXwXwXOX/.w.g.4X4X4XZ. X}.|.{.}.'.a.p.k.{ I I L H C K +X+X{.=.  & q q q q ",
"* * * * * & & & $ . @ @ T.<X@X|._.(.Y.V.4XL.K.K.Z. X}.}.}.[.a.!. .T U I L H C b 5.{._.2.@ & 7 q q * ",
"* * * & & & # # @   . @ s.XX~.~.Y.g.x.K.K.K.K.K.A.c.R.~.}.}.Q.X.{ X.E.~ P G Z b M I.`.-.$ # = & * * ",
"* & & & & & # # @ . @ $ &.S.v.x.n.N.H.H.K.K.V.n.c.%.| c.k.j.@.} [  X*Xs.H G C v g m 9.8 # # * & & * ",
"& & & & & & # $ . . @ >.3Xl.B.D.D.H.H.H.V.%.c.R..X^.E.k.| $.%.} O.*X[.) J G C k f d > & # # & * * & ",
"& & & # # # @ @ . . = ,X-XQ.v.F.B.N.D.n.$.C.iXrX-X].].[.T.g.} R [ f.` J G G C x f d > & # @ # & & & ",
"& & # # $ @ @ .   . 8 ;X*Xa.X.M.m.m.*.| $XsXaXtXrX:X].'.'./.5.Y I I P P G C n j d d > # . @ # # # & ",
"# # # @ @ @ .     . = -X[.u.s.&.b.*.o.Z.aXtXtXrXrX2X;X].'.a.p.5.K J P H C C b f d d < @ . . @ # # # ",
"@ @ @ . .         X @ e.[.w.X.&.*.*.o.#XrXtXrX1X2X;X-X].].'.u.t.W V ~ ! C n c f h ,.w.9 # & . @ @ # ",
"@ . .     . . O @ @ . t h.! U +.+.o.} d.,X2X2X2X,X;X-X*X[.u.t.y.W 5.<XXXF b f h k./.u.;.# * # . . @ ",
".         . @ . @ @ @ @ 3 J L Y T x. .[ E.-X;X;X;X-X=X*Xt.t.y.9.A ^.;X|.S c h 6.oX/.i.=.# & * .   . ",
"  . @ # . . @ @ # # # # 3 J L X.#XOX~.6...^.&X-X-X&X*Xu.r.r.y.W Q |.&XQ.m j m @X{./.i.6 @ # % # .   ",
"# = * q & . @ # # & & & * D E.@XqX@X`.`.] ' a.p.a.*Xu.r.r.y.^ l S !.[./ k s ( +X_.i.1.@ . $ @ @ . . ",
"* q q * q & . @ # * * * * p @XqXqX@X_.`.I.K W 7.0.e.t.w.,.E z z v B N v c a 7.`./.i.0 @   . . . @ & ",
"* * * * 8 2 & . @ & * * = u qXqXqX@X`.(.`.W z l M W / D l z z b b b c c a ; ( q.q.2.% .     @ # & * ",
"* * * q * q * & O $ & = & u >XwX>XoX{._.q.S l b V V b x M Q Q _ ( k f a a a - > 5 # @ @   @ # & & * ",
"& & * * * * * * @ @ $ & @ 7 .XoX{.{._.`.^ l b n n K ) h.T.~.[.[.i.3.> a - - : o @ @ @   . $ $ # # # ",
"& & & & * & * * #   @ @ @ @ 4 3._.(.I.E h c b b ) [.}.}.*X*X].[.u.r.1.: - - o @ @ @ .   @ @ @ # # & ",
"# & & & & & & * & .   . @ $ & = 8 < s f f j j h 5.}.].}.}.[.a.a.p.u.w.7 1 o . X           . @ $ # # ",
"# # & & & & & & # . . @ @ $ # & & * , 5.+X~.4.h m Q.a.*X[.[.a.a.p.u.y.7     . . @ @ $     @ @ @ # # ",
"@ # # # # # & # #   .   @ @ # # & & 2 2./././.I.> / a.'.a.a.[.a.p.r.:..   . . @ # # # @     . @ @ @ ",
"@ @ # # # @ # @ @     @ @ @ $ # & & & 8 1.i.i.-.> > <.'.a.a.a.e.8.0 $ @   O . $ # & & * @       . . ",
"  . . . . . . . .     . . @ @ $ # # & & * y y * % . @ :.;.;.t 9 & # # @   . O # & & = * &           ",
". . . . .                 . . @ $ $ # & & & & & & . . @ # # # & & & & @     . @ $ # # # # @   $ # @ ",
"w w w q q * * & # # $ @ .   . . . @ @ @ @ $ $ @ @   . . @ # & & & & @ . . @ # $ . . .     & 2 w w w ",
"w w w w w q 2 8 2 8 q & & $         @ . . . . .         @ @ # # & @ . . * q w w 8 @ . * . e w w w w ",
"w w w w w w 8 q q * * * * & # .         @ $ # # & & # # @ . . @ . @ . * q q q q q q # . # w w w w q ",
"w w w q 8 8 q q q * * * * * & #     # * q q q q q q * * * * & @ .   @ & * * q * * * & . * w w w q q ",
"w w w q 2 q q q * * * * & & & #   @ * q q q q q q * * q * * * & # . # # & & & & & & & . q w w w w w "
};
