/* XPM */
static char *result[] = {
/* columns rows colors chars-per-pixel */
"50 50 221 2 ",
"   c #151515",
".  c #1C1C1C",
"X  c #2B1B1A",
"o  c #1B1D21",
"O  c #1F2228",
"+  c #232323",
"@  c #2C2C2C",
"#  c #282325",
"$  c #372D2A",
"%  c #333333",
"&  c #3B3B3B",
"*  c #353639",
"=  c #322C30",
"-  c #58120E",
";  c #5D1510",
":  c #740A03",
">  c #7D1C0E",
",  c #7E1006",
"<  c #7A1B18",
"1  c #792719",
"2  c #5A3F32",
"3  c #69322A",
"4  c #754430",
"5  c #373B45",
"6  c #3A3E51",
"7  c #5E3F62",
"8  c #723645",
"9  c #38404B",
"0  c #3B4356",
"q  c #394A67",
"w  c #434343",
"e  c #4A4A4A",
"r  c #44434D",
"t  c #4A4B53",
"y  c #535656",
"u  c #495873",
"i  c #495469",
"p  c #624764",
"a  c #53607D",
"s  c #831608",
"d  c #8C1E0B",
"f  c #8E240E",
"g  c #92250E",
"h  c #942A11",
"j  c #9A2B11",
"k  c #972611",
"l  c #963619",
"z  c #9B3416",
"x  c #A52C14",
"c  c #AC3B1A",
"v  c #A63718",
"b  c #B13F1B",
"n  c #943827",
"m  c #8B3935",
"M  c #943C37",
"N  c #8A352C",
"B  c #AC441C",
"V  c #B3461E",
"C  c #9A4227",
"Z  c #9B4637",
"A  c #8D5433",
"S  c #A84325",
"D  c #BA4D21",
"F  c #B44A24",
"G  c #BE5325",
"H  c #B65423",
"J  c #AC5131",
"K  c #BE6235",
"L  c #C15A27",
"P  c #C45D2A",
"I  c #CA652D",
"U  c #CF6A34",
"Y  c #C56736",
"T  c #D16F3A",
"R  c #994842",
"E  c #9A5648",
"W  c #915052",
"Q  c #A4584B",
"!  c #B56B5A",
"~  c #885664",
"^  c #905A6D",
"/  c #9D6367",
"(  c #A8706B",
")  c #CB7149",
"_  c #D47243",
"`  c #D27842",
"'  c #C87858",
"]  c #CE7650",
"[  c #B69972",
"{  c #DA8557",
"}  c #DB955F",
"|  c #C78769",
" . c #DD8A65",
".. c #C78875",
"X. c #DB8579",
"o. c #DE9672",
"O. c #E58D6F",
"+. c #CFA47E",
"@. c #E4A677",
"#. c #4B5C84",
"$. c #7B749B",
"%. c #706785",
"&. c #5775A9",
"*. c #5A7EB5",
"=. c #6273A4",
"-. c #6F7CB1",
";. c #52678C",
":. c #8D7692",
">. c #A07F86",
",. c #8A77A5",
"<. c #5E85BE",
"1. c #7E81AC",
"2. c #7482B4",
"3. c #5F8AC7",
"4. c #6985C7",
"5. c #7091D0",
"6. c #5F95E5",
"7. c #6897E5",
"8. c #7697E5",
"9. c #6AAAFE",
"0. c #63A7FD",
"q. c #70AEFF",
"w. c #7DAAFE",
"e. c #78A8F7",
"r. c #76B0FF",
"t. c #7DB3FF",
"y. c #7DA7E8",
"u. c #989094",
"i. c #A2869D",
"p. c #B88A98",
"a. c #B58E92",
"s. c #888CAC",
"d. c #9887A7",
"f. c #8987BA",
"g. c #9698AF",
"h. c #A996B9",
"j. c #B094B3",
"k. c #ACA3B9",
"l. c #B2B199",
"z. c #C9908A",
"x. c #F09D84",
"c. c #E49287",
"v. c #CBB597",
"b. c #D2AA91",
"n. c #EAB288",
"m. c #ECBB92",
"M. c #E5B499",
"N. c #EAAD8D",
"B. c #C599AB",
"V. c #C6ABB8",
"C. c #D5B1AE",
"Z. c #F4BBA5",
"A. c #E5AEB1",
"S. c #F1C29D",
"D. c #F3CAA8",
"F. c #F6C4A8",
"G. c #F8CCB6",
"H. c #F7D5BB",
"J. c #EDC8B7",
"K. c #938BC7",
"L. c #9197C9",
"P. c #8895D5",
"I. c #8C98D6",
"U. c #8CA6DD",
"Y. c #9AA2D1",
"T. c #B2ACCC",
"R. c #8897E6",
"E. c #87A5E9",
"W. c #9AB0EB",
"Q. c #8EABFF",
"!. c #85AAFB",
"~. c #93ACFE",
"^. c #99AFF7",
"/. c #83B5FF",
"(. c #8DBAFE",
"). c #8BB5FA",
"_. c #9CB3FF",
"`. c #93BDFF",
"'. c #98B7FB",
"]. c #95A7E8",
"[. c #A1B3FE",
"{. c #AEBDFF",
"}. c #A7BCFF",
"|. c #B1B7ED",
" X c #CAAECA",
".X c #E5BFC0",
"XX c #C5BBE7",
"oX c #BCC7DB",
"OX c #95C1FF",
"+X c #9DC3FE",
"@X c #A2C4FE",
"#X c #AAC4FD",
"$X c #A6C8FF",
"%X c #AACBFF",
"&X c #A9C2F6",
"*X c #BDC3FF",
"=X c #B3CDFF",
"-X c #B5C7FA",
";X c #BAD2FF",
":X c #B1C3E2",
">X c #CDC3D4",
",X c #FCDBC6",
"<X c #E5D2D7",
"1X c #FBE6CA",
"2X c #F4E6CA",
"3X c #FCEFD5",
"4X c #FAF1DB",
"5X c #C1C8FE",
"6X c #CACEFF",
"7X c #C2C4FF",
"8X c #C1D3FF",
"9X c #C5D9FF",
"0X c #CBDBFF",
"qX c #CFD4FF",
"wX c #D3DEFF",
"eX c #D9DBFF",
"rX c #D5D8F1",
"tX c #D2CAE2",
"yX c #E0D0E2",
"uX c #D8E3FF",
"iX c #E2E3FF",
/* pixels */
"w w w w w w & & & & & * % % @ @   % w & w w w & w & & & & % % % @ . + @ @ @ % @ @ @ @ + w e e e w e ",
"w w w w & w w & & & & % % % @ + + % % & & & & & & & & % % % % % @ . + + + @ + @ @ + + @ w w w w w w ",
"w w & & & & & & % % % % @ % @ + @ % @ % & % & % % % % % % % % @ @ +   . + + + . . .   % w & w w w w ",
"& & & & & % % % % @ @ % @ @ @ . % % % % % % % % % % % % @ % % @ @ .                   % & w & & & & ",
"& % & * % & % % % @ @ @ @ @ + . @ % % @ % % % % % % % @ % @ @ @ + .                   + * & & & & & ",
"& & % * % % % % % @ % @ @ @ . + @ @ % @ % @ % @ @ % @ % @ @ @ @ +           . . . . .   % & & & % & ",
"% % % % % % % = @ % @ @ @ +   + @ @ @ % @ @ @ % @ % @ @ @ @ @ +   . . . . . . . . + . . + % * & % & ",
"& % % % % % % = % @ @ @ + .   . + + + @ % @ % @ @ @ @ @ + + + +   . . . . + + + + + + +   @ % % & % ",
"% % % % % @ % @ @ @ + . .       . . + @ @ @ @ + @ + @ + + + .   . . . . + + + + + + @ + + + @ % % % ",
"% % % = % @ @ @ + + . .   . . . . . . . + + + + + + . + . .     . . o + + + + @ @ @ @ @ + . + % % % ",
"% % @ % % @ + . . . .   . . . + + . . . . + . .   . .           . + + + @ @ @ @ @ % % @ % +   + @ % ",
"@ * % + + . . . . .   . . + + @ @ @ @ .             . . . . .   . + + @ + @ % % * % * % % % + + + @ ",
"@ % + . . . . .   . . + + + @ % % % % % +     . . + . + + . .   + @ @ @ @ % % % * & & * & % % . + + ",
"+ @ . . . .       . . + @ @ @ % & & & * @ . o u ;.q % % % @ + 0 q 9 @ % % % & & & & & & & & % @ . . ",
". . . . . .     . . + + @ @ % * & & w & + + y oXoX>Xv.v.+.[ U.$XOX3.% % % & & & w w w w w & & % . . ",
". . . . . + +   . + + + @ % * & & w & % y l.2X2X2X2XH.D.n.o.k.$X+Xy.9 % & & & w w w w w w & % @ +   ",
"  . + & w w & .   . + + @ = * * & & & u.2X4X3X1X1XG.D.S.S.n.} Y./.5.4 2 = * & w w e w & * % @ + @   ",
"+ & w e w w w @   . + o + @ % % e g.rX2X3X3X1XH.Z.J. XV.b.x.@.] ) K H H 4 * * w w & & % % @ @ @ .   ",
"e e e w w w & & .       + + @ t T.iXuXuX>X1X,XG.yXuX0X=X).Y.z.{ ` U G D B 2 r 9 & % % % @ $ @ o . w ",
"e e e w w & & & +           * >XiXuXuX;XR.,X,X<X0X0X8X=X`.t.w...} T I L B J XXL.9 % % % % @ + % e e ",
"w w w w & & & % % .   . . . s.eXuXeX6X).I.J.,XXX8X8X=X#X'./.t.i.] T I P F J  X6X2.% % @ . + w w e e ",
"w w w & & % % % + . . . o * 5X6XqXqX*Xe.h.,X,XA.'.@X#X@X(./.t.I.{ T I P G S j.*X_.q       % w w w w ",
"& & & & % % % % +   . + + 9 5X;X*X#X~.e.p.H.,X,X X'.`.`.(./.t.U.] U I P G S ( [.~.=.# @ + = w & & w ",
"& * & % % % % % + . . + + = Y.%X'.~.].d.M.,XG.G.F. XW.`.OX).e.a._ ' Y P D V n K.~.=.# % @ @ & * & & ",
"& % * % % % @ @ +   + + @ @ l.V.h.p.c.M.G.G.G.Z.Z.x.X.k.W.W.p._ ..OXu.L G V z n P.u % & @ @ & % * & ",
"* % % % % @ @ @ +   + @ @ y C.n.m.S.S.D.D.Z.x.c.B.k.B.X.O.o. .) k.OX:.V V b j g 3 @ % & @ @ & % * % ",
"% % % % @ @ + +   + + @ * &X+Xk.m.S.Z.m.m.O.M.tX#X`.(.].j.| ] _ a.g.Q V V b j g f + @ % + @ % % % % ",
"% @ @ @ @ + + .   + + + 9 %XOXy.+.n.m.m. .A.uXwXwX#X'././.E.! U I I L L V b h f s . + + . + @ @ % % ",
"@ @ + + + + .     . + @ 9 $X/.y.| @.n.} C.wX0X0X9X;X%X/./.t.e.Z G L G V b v g d 1 # . . . . + @ @ @ ",
"+ + + +             + + @ E.e.s.| @.@.{ V.9X9X9X;X=X%XOX).t.r.1.C ! ! F c j k ~ 8.#.  + @ % . + + + ",
"+ .   .     . + + +   . + q ( K ` } ` T ..$X;X;X=X%X$XOXt.q.9.$.E &X}.E x g W ^.!.*.. # @ % @ . + + ",
".         . + . + + @ + . @ A G I ' B.j.) k.+X$X%X$X$X/.9.0.0.W d.$XOXW h R |.Q.w.&.+ . @ % & +     ",
"  . + @   + + + @ @ @ @ @ . 4 J z.XX{.~.h.! W.`.`.+X(.9.9.9.$.Z L.OXP.N f :.}.Q.e.i % . # @ % @     ",
"@ & w w % . + @ @ @ % % % @ $ u.{.7XXX~.[.,./ 5.t.q.r.0.7.%.l z Z ,.M j d K.~.!.3.= % . o + + + . . ",
"& w & & w % . @ % & & & & * * s.7X7X{.~.~.R.M l A ~ %.^ n l l v c x j g s ,.E.8.u = = o   . . . @ % ",
"& w & & w w % . + % & & * w 5 s.7XXX{._.~.P.n j v B z l n Z E Z n k d s : < p 0 % % = O   . + = % * ",
"% & & & w w w @ + @ % & % @ @ %.[.[._.~.E.^ j c b S / d.E.).).t.7.8 s , : - @ @ @ @ + +   + @ = % % ",
"% % & & & & & & + + + % # + + + 6 4.P.,.m f v v Z ].`.`.OXOX).t.q.7.3 : ; X # + + + +   . + + @ % % ",
"% % * % & % & & @   + + + + o + = 6 e 1 m W M k n ).).(.)./.t.t.w.9.7 - X + + + + + .   . + + @ @ @ ",
"@ % % % % % % % % .   . + + % % 5 2 w e 2.}.~.f.N ~ /././././.r.q.9.6 o # O . . .       . + + + @ @ ",
"@ % @ % % % % % @ . . + + + @ % % & w w a 7.!.y.p s -.t.t.t.t.e.3.q .       . . + + +     . + + @ @ ",
"+ @ @ @ @ % % % +   . . + + @ @ % & & w w i <.u X X $ <.<.<.&.q @ . . .   . . + + @ % +     + + + + ",
"+ + + @ + + + + + . . . + + @ @ @ % & & w w w & %   .   . . + + O + + . . . . + % % % * +       . . ",
". . . . . + . . .       + + + + @ @ % % % & * & % . . . + + @ @ @ @ @ +   . + @ @ % & & % .     .   ",
". . . + . .               . . + + = @ % % % % % % . . o @ @ % % * % % + .   . + + @ @ @ @ + . + @ + ",
"e w w w & & & % @ @ + + .   . . . . + + + + + + o . . + + @ % % & % + .   . @ + . . .     @ w e e e ",
"y e e e e e w w w w & & % +       . . . + . . . .       . + @ @ % + o . & e e e w @   & . w e e e e ",
"e e e e e w e w w & w & & % @ .       . + + @ = @ $ @ @ + . . + + + . % w w w w w w % . + e e y e w ",
"e e e e w w w w w & & & & & % @     @ & & w w w w w w w & & % + .   @ % & & w & & & % . % e e e w w ",
"e w w w w w w w & & & & % % % @ . + & w w w w w w & & & & & & % + . @ @ % % % % % % @ + w e e e e e "
};
