/* XPM */
static char *result[] = {
/* columns rows colors chars-per-pixel */
"50 50 209 2 ",
"   c #151515",
".  c #1C1C1C",
"X  c #271F1F",
"o  c #1A1E23",
"O  c #232323",
"+  c #2C2C2C",
"@  c #292627",
"#  c #3A2A23",
"$  c #2A2C33",
"%  c #2A2F38",
"&  c #333333",
"*  c #3B3B3B",
"=  c #29323E",
"-  c #5C0E0B",
";  c #7A0E05",
":  c #6C120F",
">  c #412524",
",  c #4D3B36",
"<  c #6F2A31",
"1  c #70272D",
"2  c #7D4224",
"3  c #353B47",
"4  c #333F50",
"5  c #4C3B42",
"6  c #384359",
"7  c #434343",
"8  c #4A4A4A",
"9  c #464B59",
"0  c #545554",
"q  c #744D52",
"w  c #565966",
"e  c #4C576F",
"r  c #87190A",
"t  c #8C220E",
"y  c #93250E",
"u  c #88261B",
"i  c #952B12",
"p  c #9B2B13",
"a  c #983518",
"s  c #A93517",
"d  c #AB3B19",
"f  c #A13A1A",
"g  c #AB3517",
"h  c #963A27",
"j  c #893636",
"k  c #92342E",
"l  c #92401C",
"z  c #AD431C",
"x  c #B5481F",
"c  c #994831",
"v  c #A94526",
"b  c #B64A22",
"n  c #BA4E22",
"m  c #BB5224",
"M  c #B85428",
"N  c #B05430",
"B  c #AE4C34",
"V  c #C15827",
"C  c #C35C29",
"Z  c #CC682F",
"A  c #C6612A",
"S  c #CB6932",
"D  c #D06E3A",
"F  c #883F40",
"G  c #8A4847",
"H  c #9C594B",
"J  c #945454",
"K  c #A44E40",
"L  c #AB5846",
"P  c #AD6757",
"I  c #8E5C6F",
"U  c #89647A",
"Y  c #8F7077",
"T  c #B27368",
"R  c #CD744B",
"E  c #D57947",
"W  c #CA7A5C",
"Q  c #C67C63",
"!  c #D68558",
"~  c #CF8165",
"^  c #D68A6C",
"/  c #C8906F",
"(  c #D79577",
")  c #D28B72",
"_  c #E09F6C",
"`  c #E39A75",
"'  c #E6AA7C",
"]  c #455D81",
"[  c #586B99",
"{  c #4A6590",
"}  c #7D6B89",
"|  c #6B7491",
" . c #727496",
".. c #596EA6",
"X. c #5878AB",
"o. c #94778A",
"O. c #8F6C83",
"+. c #6C88B1",
"@. c #7E8FCA",
"#. c #678ED5",
"$. c #728ECF",
"%. c #799BE2",
"&. c #6A98E6",
"*. c #68A0EF",
"=. c #78A4E7",
"-. c #6AACFF",
";. c #66A7FD",
":. c #79A8F7",
">. c #75B0FF",
",. c #7BB3FF",
"<. c #958D99",
"1. c #BC8886",
"2. c #AD8A93",
"3. c #B6988D",
"4. c #9E85AD",
"5. c #9393A4",
"6. c #9087BF",
"7. c #9696BB",
"8. c #A48BAF",
"9. c #AE92A4",
"0. c #AFA0B7",
"q. c #B7A5B7",
"w. c #BCB8A2",
"e. c #CE9696",
"r. c #D29393",
"t. c #E79D90",
"y. c #D6A982",
"u. c #DFAF94",
"i. c #DEB79A",
"p. c #EBB48B",
"a. c #EAB794",
"s. c #EBAA91",
"d. c #D59CA3",
"f. c #DBA4A0",
"g. c #EBBDAD",
"h. c #DEC099",
"j. c #EFC19A",
"k. c #F1C19E",
"l. c #D5C6B5",
"z. c #F5CAAC",
"x. c #F8CAB7",
"c. c #F8D2B8",
"v. c #EFC8B5",
"b. c #8A8BCB",
"n. c #949DCB",
"m. c #8495DA",
"M. c #939ADB",
"N. c #8693D5",
"B. c #A19ACF",
"V. c #A09BD3",
"C. c #9FA4C9",
"Z. c #86A3DC",
"A. c #91A4D6",
"S. c #A2AAD6",
"D. c #AEA7CA",
"F. c #839BE8",
"G. c #9EABE3",
"H. c #9BA9EC",
"J. c #97B6ED",
"K. c #86ABFE",
"L. c #8BA9FE",
"P. c #91AAFF",
"I. c #95ABF8",
"U. c #83B5FF",
"Y. c #8CB7FC",
"T. c #8CBCFE",
"R. c #85B8FA",
"E. c #96B4F7",
"W. c #93BCFF",
"Q. c #99B7FE",
"!. c #8DADE3",
"~. c #A6ADE4",
"^. c #A8B7E5",
"/. c #ACB6FC",
"(. c #ACB8FF",
"). c #A2B8F8",
"_. c #B5BBFC",
"`. c #B8B0E5",
"'. c #C2B2D6",
"]. c #E6B9C1",
"[. c #9BC3FF",
"{. c #A1C2FF",
"}. c #A7C8FF",
"|. c #ADCCFF",
" X c #AEC7FF",
".X c #BDC3FF",
"XX c #B4CFFF",
"oX c #BFCAFF",
"OX c #B1C0FF",
"+X c #BDD3FF",
"@X c #B5C7E6",
"#X c #CDC6D5",
"$X c #DAD1DF",
"%X c #ECCEC0",
"&X c #FCDAC7",
"*X c #FCD6C1",
"=X c #E2CCDB",
"-X c #F2E6CC",
";X c #FAE5C9",
":X c #FBF3DB",
">X c #C8CDFF",
",X c #C4C6FA",
"<X c #C1D5FF",
"1X c #CCDCFF",
"2X c #D5DCFE",
"3X c #D5D9F7",
"4X c #D1C3E5",
"5X c #DEE0FE",
"6X c #E2E1FC",
/* pixels */
"7 7 7 7 7 7 * * * * * & * & + +   & * * 7 * 7 7 * * * * * & & & + . O + + + + + + + + O 7 8 8 8 7 8 ",
"7 7 7 7 * 7 7 * * * * & & + + + O & * * * * * * * * * & & & & & + . O O O + + O + O O + 7 7 7 7 7 7 ",
"7 7 * * * * * * & & & & & + + O + & + & * * & * & & & & & & & + + O   . O O O O . .   & 7 7 7 7 7 7 ",
"* * * * * * & & & + + & + + + . + & & & & & & & & & & & & & & + + .             .     & * * * * * * ",
"* * & * & & & & & + + + + + @ . + & & & & & & + & + & & + & + + O .                   O * * * * * * ",
"& & * & & & & & + & & + + + . X + + + & & + & & & & + + + + + + O         .   . . . .   & & * * * & ",
"* & & * & & & + + & + + + O   o + + + + + & + + + + + + + + O + . . . . . . . O . . O   O & * * & * ",
"& & & & & & & & & + + + O .   . O + O + + + & + + + + + O + O .   . . . . . . O O O O O   + & & & & ",
"& & & & & + & & + + O . .       . O O O O & + O + + + O O O . .   . . . O O O O O + O O O O + & & & ",
"& & & + & + + @ O . . .   . . . . . . . O O O . O . . . . .     . . O O O O + O + + + + + . O + & & ",
"& + + & & + O . . . .   . . o o O . . . . O . . . .   .         . O O O O + + + + + & & + + . O + & ",
"& * & @ O o . . . .   . X O O + + + + .   .       . . . . . .   . O O + + + & & & & & & & & O . O + ",
"+ + O . . . . .   . . O O @ + & & & & & O .   . . . . O . O . . O O + + & & & & * * * & * * & . O O ",
"O + . . . .       . . O @ + + & * * * * + .   . O O O O O O   . O + + & & & * * * * * * * * & + . O ",
". O . . . .     . . O @ + & & & * * * * O O . O . O O O + O . . O O & & & * * * 7 7 7 7 * * * & . . ",
". . .   . O O   . O O O + & & * * * * * & . . O e e 3 & & O . 6 6 O + & & * * 7 7 7 7 7 7 * & + O   ",
"    O & 7 7 * .   . O + + & & * * * * * + . . w @X#Xl.h.' 3.J.}.,.= @ + & * * 7 7 7 6 * * + + + O   ",
"O 7 7 8 7 7 * +     . . O + + & * & & + + 0 w.-X;X;Xc.z.h._ q.[.[.e O @ + & * 7 7 * * & & + + + .   ",
"8 8 8 8 7 7 * * .       O O + + & & & 0 <.-X:X:X;Xz.k.g.a.p._ 2.<.c 2 # O @ & & * & & & + + + . O 7 ",
"8 8 8 7 7 * * * +                 O 5.3X6X$X;X-Xz.=X3X@XS.0.( E S A M l # + + + # & & & & + O * 8 8 ",
"7 7 7 7 * * * & +     .   . . . . 5.6X2X2XE.%X&X=X5X1X+XW.,.n.^ E Z m z H 6.4 @ & + & + . O * 7 8 8 ",
"7 7 7 * * & & & + . . . O . O . w 5X3X2X,X:.g.&X4X+XoX XQ.U.-./ E Z C x L ,X~.o . .       & 7 7 7 7 ",
"* * * * * & & & +   . O O O O O C.>X>XoXP.m.v.&X].Q.{.{.W.U.,.9.E Z C n B `./.[ . . O + O + * 7 7 * ",
"* * * & & & & + O . . O O O O O A.XXOXQ.K.8.c.*Xx.'.E.W.W.U.>.2.D Z C m z 4.Q.F.. . + & + + * * * * ",
"* & * & & & & + O . O O + + + O Y ^.~.B.9.s.x.x.z.g.d.~.Q.R.7.R 1.2.C n z h b.@.. O & * + + * & & * ",
"* & & & + + + O . . O O + + + + 3.i.s.a.a.z.z.a.t.t.e.) r.e.W W ^.!.M n d p k 9 . O & * + + * & * & ",
"& & + & + + + O . O O O + + & | }.q.a.k.z.k.t.t.#X).E.G.9.^ ! W C.o.b b d i t , O O + & O + & & & & ",
"+ & + + O O O .   . + + + + + [.[.Z.y.p.p.` u.5X2X<X[.Y.Y.A.P Z C V n b d y r , & . O O . O + + & + ",
"+ + + O O O .     . O + + + + +.[.=./ ' ' ~ 2X1X1X+XXX[.Y.,.%.H M M b z p t j w * O . . . . O + + & ",
"O O O . .           O O O + & 6 =.Y ! _ _ ~ oX<X+XXX|.[.U.,.-.I P q.B g y J N.#.7 +   O + + . O O O ",
"O . .       . O O .   . + O + + 2 C Z ! Q R D.}.|.|.}.[.>.-.*.J C. XI p j ~.R.&.8 & . O + * + . . O ",
".         . O . O + O O . + O + * N e.D./.C.T J.[.[.[.>.-.;.} J E.W.j i 8.Q.U.[ 7 & O O + & * . . . ",
"  . O + . . O O + + + + + O . + + O._.,X(.L.o.T %.:.,.;.*.} h h O.U p u M.P.:.9 7 & & . O + & + .   ",
"+ * * 7 & . O + + & + & & + O . @  .,X,X(.P.L.J h G U } h a a d g g y u b.:...* * & & . O O O O . . ",
"* 7 7 * 7 & . + + * * * * * * + o | .X_.).P.m.h d d d c J Y o.O.j r r r : 5 & & * & & o   .   . O & ",
"* * * * 7 7 & . + & * * * * * * @ 3 @.I.I.b.G p d K o.A.T.T.R.>.#.1 ; : > & & & & & + O     O & & * ",
"* * * * * 7 * + . + & * + & + O . . $ 9 q u h h p o.W.W.W.T.,.,.-...- > + + + + + + @ o   O + & & & ",
"& & * * * * * * O O O & O O O . .   . @ + 5 G.n.O.j N.K.U.U.,.,.>...@ O @ @ @ O O O O   . O + + & & ",
"& & * * * * & * &   O O O . O O * * * @ . $ #.R.&.1 q K.U.U.,.*.X.% O O O O O O O O .   . O O @ + + ",
"+ & + & & & & * + .   . O + & & * * 7 8 * . . 6 $ . @ 4 { ] 6 $ o X O O O o . . .       . . O @ + + ",
"+ + & & & & & & + . . O O O + & & * 7 7 8 7 O   . . . . . . . . . . .       . . O O O     . O @ + + ",
"+ + + + + & + & + . . . . + + + & * * * 7 7 7 &             . . . . . .   . . O + + & O     . O O @ ",
"O O + O O + O O .   . . O O + + + & * * * * 7 * &       . O O O O O O o   . O O + & & * O       . . ",
".   . . . . . . .     . . O O + + + & & * * * * & . . . O O O + + + + O   . O O + & * * & .         ",
". . . O .                 . . O O + + & & & & & & . . O O + & & & & & O   . . O O + + & + O . @ + O ",
"7 8 7 7 7 * * * + + O O .   . . O . O O O O + O . . . . O + & * * & O .   O + @ . . .     + 7 8 8 7 ",
"8 8 8 8 8 8 7 7 7 7 * * & O       . . . . . . . .     . O O + + + @ . . * 7 8 8 7 O   * . 7 8 0 8 0 ",
"8 8 8 8 7 8 7 7 7 7 * * * * +         . . + + + + + + + O . . O O O . & 7 7 7 7 7 7 &   + 8 8 8 8 7 ",
"8 8 8 8 7 7 7 7 7 7 * * * * & +     + * * 7 7 7 7 * 7 7 * * & O . . + & * * * 7 * * & O & 8 8 8 7 7 ",
"8 8 7 7 7 7 7 7 * * * * & & + + . O * 7 7 7 8 7 7 * * * * * * & O . + + & & & & & & + . 7 8 8 8 8 8 "
};
