/* XPM */
static char *result[] = {
/* columns rows colors chars-per-pixel */
"50 50 198 2 ",
"   c #151515",
".  c #1C1C1C",
"X  c #231E1C",
"o  c #1E252D",
"O  c #232323",
"+  c #27282B",
"@  c #2C2C2C",
"#  c #3F2C2B",
"$  c #272C33",
"%  c #2D323B",
"&  c #333333",
"*  c #3B3B3B",
"=  c #313439",
"-  c #7E1209",
";  c #730F08",
":  c #5D311D",
">  c #73291D",
",  c #571E23",
"<  c #492928",
"1  c #4A342B",
"2  c #41333E",
"3  c #783128",
"4  c #712F3D",
"5  c #7A4F35",
"6  c #3D3F45",
"7  c #433F4D",
"8  c #713E47",
"9  c #394558",
"0  c #3D4C68",
"q  c #434343",
"w  c #47494D",
"e  c #4A4A4A",
"r  c #444A5B",
"t  c #4E535D",
"y  c #49546D",
"u  c #505E79",
"i  c #515C71",
"p  c #52617E",
"a  c #7E7C6D",
"s  c #646572",
"d  c #891909",
"f  c #8C210E",
"g  c #92280F",
"h  c #90250D",
"j  c #972914",
"k  c #99361A",
"l  c #89251F",
"z  c #A53516",
"x  c #A53A1B",
"c  c #B23F1C",
"v  c #973928",
"b  c #923F30",
"n  c #A63C26",
"m  c #AA421C",
"M  c #B5491F",
"N  c #974634",
"B  c #A54722",
"V  c #BA4C22",
"C  c #BD5225",
"Z  c #B85728",
"A  c #B05B3B",
"S  c #C55F2B",
"D  c #CE6A33",
"F  c #D06E39",
"G  c #8C4345",
"H  c #965857",
"J  c #954C4B",
"K  c #AC5643",
"L  c #B46444",
"P  c #B97150",
"I  c #844F62",
"U  c #995E68",
"Y  c #825A72",
"T  c #875B63",
"R  c #9A6F7D",
"E  c #BE7F78",
"W  c #B36E65",
"Q  c #C56D44",
"!  c #C97551",
"~  c #BD857D",
"^  c #D98253",
"/  c #CF896F",
"(  c #DC8F6F",
")  c #DD9667",
"_  c #C68576",
"`  c #D9957F",
"'  c #DFA477",
"]  c #E6A87E",
"[  c #665B86",
"{  c #5B6485",
"}  c #656E8F",
"|  c #777C98",
" . c #5879A7",
".. c #627CB3",
"X. c #9A6F8C",
"o. c #957589",
"O. c #877899",
"+. c #AE7E87",
"@. c #5B81B9",
"#. c #7984B1",
"$. c #7289B8",
"%. c #698DCA",
"&. c #7E8DC0",
"*. c #6992CF",
"=. c #6C8FD2",
"-. c #6593DD",
";. c #6AA7F8",
":. c #67A9FE",
">. c #7BA2F3",
",. c #73ACFA",
"<. c #76B1FF",
"1. c #7CB2FF",
"2. c #7EA3E6",
"3. c #878987",
"4. c #B1808C",
"5. c #AF919E",
"6. c #A19385",
"7. c #9981AE",
"8. c #8182BA",
"9. c #9996B6",
"0. c #AF9DA9",
"q. c #B69AA7",
"w. c #B39CB4",
"e. c #B39EBD",
"r. c #A7A7BC",
"t. c #C29F85",
"y. c #C7989B",
"u. c #E99E90",
"i. c #E99886",
"p. c #DFA197",
"a. c #DCAE8F",
"s. c #ECBA98",
"d. c #ECB18C",
"f. c #C896A3",
"g. c #CBA8B4",
"h. c #F5B8A1",
"j. c #EFC199",
"k. c #DFD8BE",
"l. c #F2C6A4",
"z. c #F8C8AF",
"x. c #F4CDB5",
"c. c #F0C1B7",
"v. c #F9D5BA",
"b. c #E3C4AE",
"n. c #8C8AC7",
"m. c #859AC4",
"M. c #9897C5",
"N. c #8A96DC",
"B. c #888FD7",
"V. c #8BA0DA",
"C. c #96AADC",
"Z. c #98A0CA",
"A. c #B5B8C8",
"S. c #A5A7D9",
"D. c #B0ACCD",
"F. c #879DE5",
"G. c #8CA1E3",
"H. c #88A8EC",
"J. c #91A5EF",
"K. c #95B4EF",
"L. c #87ACF5",
"P. c #93ABFD",
"I. c #96A7F5",
"U. c #84B6FF",
"Y. c #87BAFF",
"T. c #8EBBFE",
"R. c #89B0F5",
"E. c #9FB6FE",
"W. c #96B9FD",
"Q. c #AEB4E1",
"!. c #B9BAED",
"~. c #A9BAFF",
"^. c #B8BFFF",
"/. c #CCB8CF",
"(. c #9DC2FF",
"). c #97C0FF",
"_. c #A2C4FE",
"`. c #A7C9FF",
"'. c #AECCFF",
"]. c #B5C4FF",
"[. c #B8D2FF",
"{. c #BBC5EA",
"}. c #DBD1C2",
"|. c #D5CACD",
" X c #FCD9C6",
".X c #E7CBC5",
"XX c #FAE4C8",
"oX c #FAEED4",
"OX c #EAE1D5",
"+X c #D7D3EA",
"@X c #C2C4FE",
"#X c #C8CEFF",
"$X c #C8CDF7",
"%X c #C2D5FF",
"&X c #C5D9FF",
"*X c #CDD8FF",
"=X c #DADCFD",
"-X c #D2DEFE",
/* pixels */
"q q q q q q * * * * * & * @ @ @   & * q q q * q q * q * * & & & & . O @ @ @ @ @ @ @ @ O q e q e q e ",
"q q q q * q q * * * * & & & @ + O & & * * * * * * * & & & & & @ @ . . O O @ @ O @ + X @ q q e q q q ",
"q q * * * * * * & & & & @ & @ O @ & @ & & * * * & & & & & & & @ @ O   . O O O O . .   & q q q 9 q q ",
"* * * * * & & & & & @ @ @ @ @ . @ & & & & & & & & & & & & & @ & @ .             .     & * * * * * * ",
"* * & * & & & & & @ @ & @ @ + . @ & & & & & & @ & & & & @ & @ @ @                     O * * * * * * ",
"& & * & & & & & & & @ @ @ @ . . @ @ @ & & @ & & & @ @ @ @ @ @ @ O         . . . . . .   & * * * * & ",
"* & & & & & & & & @ & @ @ O   O @ @ @ @ @ & @ @ @ @ @ @ @ @ + + .   . . . . . . . . O   . * & * & & ",
"& & & & & & & & @ @ + + O .   . O @ O @ @ @ & @ @ @ @ @ O + O X   . . . . . O O O O O O   @ & & & * ",
"& & & & & @ & & @ @ O . .       . X O + O & + + @ @ + O O O . . . . . . O O O O + O + O O O & & & & ",
"& & & & & @ @ + O . . .   . . .   . . O O O O O O X X . . .     . . . O O O O @ @ @ @ @ @ . O @ & & ",
"& & & @ & @ O . . . .   X . X O O O   . X . . . . . .           . O O O @ @ @ @ @ @ & & @ @   O @ & ",
"& & & + O . . . . .   . . O O @ @ @ @ .   .         . . . .   . . O O @ @ @ @ & & * & & & @ O O O @ ",
"@ @ O . . . . .   . . X O + + @ & & & & O     . . . . X . O . . O O @ @ @ & & * * & * * * & & . X @ ",
"O @ . . . . .     . . O + @ & & * * * * @ .   . . O O O O O . . O @ @ & & & * * * * * * * * & @ . X ",
". X . . .       . . O + @ & & & * * * * + . . . O O O + @ O   . O @ @ & & * * * q q q q q * * & . X ",
". . . . . O O   . O O O @ & & * * * * * @ O . O O + @ @ @ O   . X O @ & * * * * q q q q q * & @ O   ",
"  . O & * q * .   . O O @ & & * * * * * @ . . O O + @ @ O .     . O O @ & * * q q q q q * @ @ @ O   ",
"O * e e e q q @   . . O O @ @ & * & & @ @ . . X @ u 9 & @ . $ 9 O . O O @ & * q q * & & @ @ @ @ .   ",
"e e e q q q * * .       O O @ @ @ & @ + X     & 3.|.}.b.a.' (.(. .    X O @ & & q & & & @ & @ O X q ",
"e e e q q * * * @                         + a k.oXXXv.l.s.] q.K.#.1 .   . O @ @ @ & & & & @ . & e e ",
"q q q q * * * & @     . . . . . . . . + s r.OXoXXXv..Xg.q.a.) ~ L B : X .   X O @ & & @ . O q q e e ",
"q q q * * & & & @ . . . . . O . . O @ r.=X=X{..XXX+X=X%X(.R.6.^ D S m T | =     . .       & q q q q ",
"* * * * * & & & @ . . . O O O O O O s -X=X*XJ./. X$X&X'.(.U.2.^ D S M W $X} +     . O @ O @ q * q q ",
"* * * & & & @ @ O   O O O O O X @ @ Q.&X*X_.N.b. X/.E._.T.U.1._ D S C K ^.G.t X . O O & @ @ * * & * ",
"& * & & & & @ @ O . O + + + @ @ @ & M.].~.J.w.x. Xh.Q.E.W.Y.H.! ! S C m 7.I.p @ . O & & @ @ * & & * ",
"& & & & & & @ + . . O + @ @ @ & & = 6.A.e.y.s.z.x.h.u.f.S.S.~ _ Z.A V m v 8.i * . O & * @ @ * & * & ",
"& & @ & @ @ O O   X + O @ @ & & = t A.a.s.l.l.s.i./.S.e.t./ ^ 0.C.A M z g 3 e 2 O O & & O @ & & & & ",
"& & @ @ @ O O .   X + + @ @ @ & & m.).0.d.s.] p.+X&X_.R.J.9.F Q A S M z g > e e & . O O . O @ @ & & ",
"@ @ + O O . .     . O @ @ @ @ @ & $.Y.9.] ] ` +X-X&X[.`.U.1.n.Z C V m z d 5 e e * O   . . . + + @ @ ",
"O O O O .     .     O O O @ & @ & 9 9.P ) ) / {.[.[.'.(.Y.<.:.J w.W z j X.,.p e q &   O @ @ . O O O ",
"O . .       . . O O . . + O @ @ @ & 5 Z ! y.~ q.`.`.`.).,.:.$.o._.O.j U W.>.u e e & . O @ * @ . X O ",
".         . O X O O O O . @ O + @ $ 1 4.!.].J.4.M.1.U.<.:.*.N o.V.G l M.P.%.e q q & + X @ & * X   . ",
"  . O @ . X O O @ @ + @ @ X O O O @ O S.[.].P.N.N T O.#.Y N k x n j l n.>.u q q q & &   O @ @ @ .   ",
"@ * q * & . O @ @ & & & & @ + . O + O S.@X~.P.B.k x B v N H H J j d - 4 y 7 2 q * & & X O O + O . . ",
"* q q * q & . + @ * * * * * * @ O   . i N.P.n.G k n R C.T.T.U.;.[ ; ; < * * & & * & @ O   . . . @ & ",
"* * * * * q * . + & * * * q * & @ . @ & 9 1 3 H J v M.T.T.Y.1.<.-., # % & & & & & & @ O   . O @ & * ",
"* * * * q q * & X @ & * & @ O O O   @ & * O 9 V.J.Y I U.U.1.<.,...& @ @ & @ @ @ @ @ O O   O @ @ & & ",
"& & * * * * * & O O O & O O O O .   X O @ O O 0 ..7 , { *.%. .y = + + O + O O O O O O   . O @ @ @ & ",
"& & & & * & * * &   O O O O X + & * * @ X O . O + O + @ % % + O O O O O O O O O O O .   . O O @ @ @ ",
"@ & & & & & & * @ .     O + & & * * q q * .   . . . . . . O . O O X O . O O . .         . X O + @ @ ",
"@ @ & & & & & & @ . . O O O @ & & * q q q q @   .   O . . O . . . . .       . . O O +     X O O @ @ ",
"@ @ @ @ @ & @ & @   . . O + @ @ & & * q q q q &             .   . . . .   . . O @ @ @ +     . O O O ",
"O O @ O O O O O O   . . O O O @ & & * * q q * * &       . O O O O O O .   . . @ @ & & & O       . . ",
"    . . . O O . .       . O + @ @ @ & & & * * * & .   . O O @ @ @ @ @ O   . O @ @ * * * & .     . . ",
"O O . O                   . O O @ @ @ @ & & & & &   . O O @ & & & & & O     . . + @ @ @ @ O . + @ X ",
"q q q q q * * * @ @ O O       . . O O O O @ O O O   . O O @ & & * & O . . O @ @ . . .     @ q e e e ",
"e e e e e e e q q q * * & @         O . . . . . .       O O @ @ @ O O . * q e e q O   * X e e e e e ",
"e e e e q e q q q * * * * & &           O O @ @ & @ @ @ O . . O O O . & q q q q q q &   @ e e e e q ",
"e e e e q q q q q q * * * & & @     @ * q q q q q * q q * * & O .   @ & * * q * * * & . & e e e q q ",
"e e q q q q q q * * * * * & @ @   O * q q q e q q * * * * * * & O . @ @ & & & & & & @ O 9 e e e e e "
};
