/* XPM */
static char *result[] = {
/* columns rows colors chars-per-pixel */
"50 50 208 2 ",
"   c #151515",
".  c #1C1C1C",
"X  c #271F1F",
"o  c #1B1E23",
"O  c #232323",
"+  c #2C2C2C",
"@  c #292627",
"#  c #3A2A23",
"$  c #292D34",
"%  c #333333",
"&  c #3B3B3B",
"*  c #29323E",
"=  c #5C0E0B",
"-  c #7A0E05",
";  c #6C120F",
":  c #412524",
">  c #4D3B36",
",  c #6F2A31",
"<  c #70272D",
"1  c #7D4224",
"2  c #353B47",
"3  c #333F50",
"4  c #4C3B42",
"5  c #384359",
"6  c #434343",
"7  c #4A4A4A",
"8  c #464B59",
"9  c #545554",
"0  c #744D52",
"q  c #565966",
"w  c #4C576F",
"e  c #87190A",
"r  c #8C220E",
"t  c #93250E",
"y  c #88261B",
"u  c #952B12",
"i  c #9B2B13",
"p  c #983518",
"a  c #A93517",
"s  c #AB3B19",
"d  c #A13A1A",
"f  c #AB3517",
"g  c #963A27",
"h  c #893636",
"j  c #92342E",
"k  c #92401C",
"l  c #AD431C",
"z  c #B5481F",
"x  c #994831",
"c  c #A94526",
"v  c #B94B21",
"b  c #B44F25",
"n  c #BB5224",
"m  c #B85428",
"M  c #B05430",
"N  c #AE4C34",
"B  c #C15827",
"V  c #C35C29",
"C  c #CC682F",
"Z  c #C6612A",
"A  c #CB6932",
"S  c #D06E3A",
"D  c #883E41",
"F  c #8A4847",
"G  c #9C594B",
"H  c #945454",
"J  c #A44E40",
"K  c #AB5846",
"L  c #AD6757",
"P  c #8E5C6F",
"I  c #89647A",
"U  c #8F7077",
"Y  c #B27368",
"T  c #CD744B",
"R  c #D57947",
"E  c #CA7A5C",
"W  c #C67C63",
"Q  c #D68558",
"!  c #CF8165",
"~  c #D68A6C",
"^  c #C8906F",
"/  c #D79577",
"(  c #D28B72",
")  c #E09F6C",
"_  c #E39A75",
"`  c #E6AA7C",
"'  c #455D81",
"]  c #586B99",
"[  c #4A6590",
"{  c #7D6B89",
"}  c #6B7491",
"|  c #727496",
" . c #596EA6",
".. c #5878AB",
"X. c #94778A",
"o. c #8F6C83",
"O. c #6C88B1",
"+. c #7E8FCA",
"@. c #678ED5",
"#. c #728ECF",
"$. c #799BE2",
"%. c #6A98E6",
"&. c #68A0EF",
"*. c #78A4E7",
"=. c #6AACFF",
"-. c #66A7FD",
";. c #79A8F7",
":. c #75B0FF",
">. c #7BB3FF",
",. c #958D99",
"<. c #BC8886",
"1. c #AD8A93",
"2. c #B6988D",
"3. c #9E85AD",
"4. c #9393A4",
"5. c #9087BF",
"6. c #9696BB",
"7. c #A48BAF",
"8. c #AE92A4",
"9. c #AFA0B7",
"0. c #B7A5B7",
"q. c #BCB8A2",
"w. c #CE9696",
"e. c #D29393",
"r. c #E79D90",
"t. c #D6A982",
"y. c #DFAF94",
"u. c #DEB79A",
"i. c #EBB48B",
"p. c #EAB794",
"a. c #EBAA91",
"s. c #D59CA3",
"d. c #DBA4A0",
"f. c #EBBDAD",
"g. c #DEC099",
"h. c #EFC19A",
"j. c #F1C19E",
"k. c #D5C6B5",
"l. c #F5CAAB",
"z. c #F8CAB7",
"x. c #F8D2B8",
"c. c #EFC8B5",
"v. c #8A8BCB",
"b. c #949DCB",
"n. c #8495DA",
"m. c #939ADB",
"M. c #8693D5",
"N. c #A19ACF",
"B. c #A09BD3",
"V. c #9FA4C9",
"C. c #86A3DC",
"Z. c #91A4D6",
"A. c #A2AAD6",
"S. c #AEA7CA",
"D. c #839BE8",
"F. c #9EABE3",
"G. c #9BA9EC",
"H. c #97B6ED",
"J. c #86ABFE",
"K. c #8BA9FE",
"L. c #91AAFF",
"P. c #95ABF8",
"I. c #83B5FF",
"U. c #8CB7FC",
"Y. c #8CBCFE",
"T. c #85B8FA",
"R. c #96B4F7",
"E. c #93BCFF",
"W. c #99B7FE",
"Q. c #8DADE3",
"!. c #A6ADE4",
"~. c #A8B7E5",
"^. c #ACB6FC",
"/. c #ACB8FF",
"(. c #A2B8F8",
"). c #B5BBFC",
"_. c #B8B0E5",
"`. c #C2B2D6",
"'. c #E6B9C1",
"]. c #9BC3FF",
"[. c #A1C2FF",
"{. c #A7C8FF",
"}. c #ADCCFF",
"|. c #AEC7FF",
" X c #BDC3FF",
".X c #B4CFFF",
"XX c #BFCAFF",
"oX c #B1C0FF",
"OX c #BDD3FF",
"+X c #B5C7E6",
"@X c #CDC6D5",
"#X c #DAD1DF",
"$X c #ECCEC0",
"%X c #FCDAC7",
"&X c #FCD6C1",
"*X c #E2CCDB",
"=X c #EFE6CC",
"-X c #F9E5CA",
";X c #FBF3DB",
":X c #C8CDFF",
">X c #C4C6FA",
",X c #C1D5FF",
"<X c #CCDCFF",
"1X c #D5DCFE",
"2X c #D5D9F7",
"3X c #D1C3E5",
"4X c #DEE0FE",
"5X c #E2E1FC",
/* pixels */
"6 6 6 6 6 6 & & & & & % & % + +   % & & 6 6 & 6 6 & & & & % % % +   + + + + + + % + + O 6 6 7 7 7 6 ",
"6 6 6 6 & 6 6 & & & & % % + + O O % & & & & & & & & & % % % % % %   . O O + + O O + . + 6 6 6 6 6 6 ",
"6 6 & & & & & & % % % % % + + O + % + % & % & % % % % % % % % + + O   . O O O O O .   % 6 6 6 6 6 6 ",
"& & & & & & % % % + + % + + + O + % % % % % % % % % % % + % % + + O                   % & & 6 & & & ",
"& & % & % % % % % + + + + + O . + % % + % % % % % % % + % + % + +                     O & & & & & & ",
"% % & % % % % % % + % + + + . O + + % + + % + % + % + % + + + + O         .   . .       % & & % & & ",
"& % % & % % % + + % + + + O   O + + + + + + % + + % + + + + O @ .   . . . . . . O . O   O % & & % % ",
"% % % % % % % % % + + @ O .   . O + @ + % + + % + + + + O O O O     . . . O O O O O O O   + % % % & ",
"% % % % % + % % + + O . .       . O O O + % O + + O O O O O . .   . . O O O O O O O + O O O + % % % ",
"% % % + % % + @ O . . .   . . .   . . O O O O O O O O . . .       . O O O O O + + + + + + . @ + % % ",
"% + + % % @ O . . .     . . O O O O   . . . . . . . .           . O O O O + + + + % % + + +   @ + % ",
"% & % @ O o . . . . . . . O O + + + + O             . . . . .   O O O + + + + % % % % % % % O O O + ",
"+ + O . . . . .     . o O @ + + % % % % O         . O . . O . . O O + + + % % & & % & & & % % . O O ",
"O + . . . .     . . o O + + + % % & & & + .   . O O O O O O . . O + + + % % & & & & & & & & % +   O ",
". O . . . .     . . . @ + + % & & & & & + O   . O O O O + +   . O + + % % & & & 6 6 6 6 6 & % % . . ",
". . .   . O O   . O O @ + % % & & & & & + O . O w w 5 % + O . 5 5 O + % & & & & 6 6 6 6 6 & % + +   ",
"    O % 6 6 & .   . O O + + % & & & & & + X . 9 +X@Xk.g.` 2.H.{.>.* + + % % & 6 6 6 6 6 & % + + +   ",
"O 6 6 7 6 6 & %     O . O + % % & % % + + 9 q.=X-X-Xx.l.g.) 0.].].w O O + % & 6 6 & % % + + + + .   ",
"7 7 7 7 6 6 6 % O     . O O O + % % % 9 ,.=X;X-X-Xl.j.f.p.i.) 1.,.x 1 # + + + % 6 % % % + % + o O 6 ",
"7 7 6 6 6 6 & % O                 + 4.2X1X*X;X-Xx.*X2X+XA.9./ R S Z b k # + + + + % % % % @ O % 7 7 ",
"6 6 6 6 6 & & % +     . . . . . . 4.5X1X1XP.$X%X*X1X<XOXE.>.b.~ R C n l G 5.5 @ + % % + . O & 7 7 7 ",
"6 6 6 & & % % % + . . . . O O . q 4X1X1X>X;.k.%X3X,XOX|.W.I.;.^ R C V z K >X!.o . .       % 6 6 6 6 ",
"& & & & % % % % @   . O O O O O V.,X:XXXL.n.z.%Xf.W.[.[.E.>.:.8.R C V n c _.^.] . . O + O + 6 & & & ",
"& & & % % % % + O   O O O O O O b..X).W.J.7.x.&Xz.`.W.E.E.I.:.1.S C V v l 7.W.D.. . @ % + + & & & & ",
"% & % % % % + + O . O O + + + O o._.G.S.1.a.x.z.z.f.s.!.W.T.6.T <.1.V n l g v.+.. O + & + + & % & & ",
"% % % % % % + + . . O O + + + + 2.u.y.p.l.l.l.p.r.s.w.( e.w.Q E ~.Q.b v l i j 8 . O % & % + % & % % ",
"% % + % + + O O   O + O + + % } {.0.p.p.p.l.r.r.'.(.R.F.8.~ R W b.X.v v s u r > O O % % O O % % % % ",
"% % + + O O O .   O O @ O + % ].].C.t.i.i._ y.4X<X,X].Y.U.Z.L A Z B v v a t e > % . O O . O + + % % ",
"+ + O O O O       . O + + + + O.].*.^ ` ` ! 1X<X<XOX.X].I.>.$.G m m v l i y h q & O   .   . O + + + ",
"O O O O . .         O O O + % 5 *.U Q ) ) ! XXOXOX.X}.].Y.>.=.P L 0.N a t H +.#.6 %   O % + . O O O ",
"O O .       . O O O . . @ O + + 0 Z C Q W T S.{.}.}.{.].=.=.&.H N.}.P i h !.I.%.6 & . O % % + . O O ",
"          . O . O O O O . + O O > M ^ S.^.V.Y H.].].].>.=.-.{ H H.U.D u 7.(.I.] 6 % O O + % & . .   ",
"  . O + . O O O + + + + + O O O @ X.).>X^.L.X.X.M.;.>.-.%.{ x g o.I i y m.K.;.8 6 % + . O % % @     ",
"+ & & 6 % . O + + + % % % + + . O |  X>X^.L.K.J p F q o.g p p a f f t y v.;. .& & % & . . @ O O . . ",
"& 6 6 & 6 % . O + % & & & & % + O }  X).W.L.M.g d c v N H U X.o.D e e e ; 4 % + & + % .   . . . + % ",
"& & & & 6 6 % O + % & & & 6 & % @ 2 +.P.P.v.F p s J X.m.Y.Y.I.:.@.< - - : % & & & % + O   . O + % % ",
"& & & & 6 6 6 + O O % % + + + O . . $ 8 0 y g g i X.E.E.E.Y.>.>.-. .= : + % + + + + O .   O + % % % ",
"% % & & & & & & O O + % O + O O .   . @ + 4 F.b.o.h M.J.I.I.>.>.=. .@ O @ X O O O O O   . O @ + % % ",
"% % % % & % & % %   O O O O . O & & & + . $ @.T.$.< 0 J.I.I.>.&...$ O O o O O O O O .   O o O + + + ",
"+ % % % % % % & + .     O + % % & & 6 6 & . . 5 $ o X 3 [ ' 5 $ o O O O O X o . .       . o O O + + ",
"+ + % % % % % % + . . O O + + + & & & 6 7 6 O   .   O . . O . . .             . O O O     . O @ + + ",
"+ + + + + % + % +   .   O O + + % % & 6 6 6 6 %             .   . O . .   . . O + + % O     O O O @ ",
"O O + O + O O O O   . O O O + + + % % & & & 6 & +       . O O O O O O .   O O O + % % & O       . . ",
".   . . . . . O .       . O O + + % % % & & & & % O   . O O + + + + + @     O + + % & & %           ",
". O . O .                 . . O O + + % % % % % + . . O O + % % % % % O .   . o O + + % + O . @ + O ",
"6 7 6 & 6 & & % + + O O .     . . O O O O O O O O   . O O + % % & % O .   O + @ . . .     + 6 7 7 7 ",
"9 7 7 7 7 7 6 6 6 6 6 % % O         . O O . . . .       O O + + + O O . & 6 7 7 6 O   & . 6 7 7 7 7 ",
"7 7 7 7 6 7 6 6 6 6 & & & & + .         O O + % + + + + O . O O O O . % 6 6 6 6 6 6 %   + 7 7 9 7 7 ",
"7 7 7 7 6 6 6 6 6 & & & & & % +     + & 6 6 6 6 6 6 6 6 & % % O .   + % & & & & & & % O % 7 7 7 6 6 ",
"7 6 6 6 6 6 6 6 & & & & % % % +   O & 6 6 6 6 6 6 & & & & & & % + . + + % % % % % % + O 6 7 7 7 7 6 "
};
