/* XPM */
static char *result[] = {
/* columns rows colors chars-per-pixel */
"50 50 49 1 ",
"  c #373433",
". c #3A3736",
"X c #3C3938",
"o c #403D3C",
"O c #413D3C",
"+ c #413E3D",
"@ c #304F0B",
"# c #3B5B0D",
"$ c #3D5D0E",
"% c #374B1D",
"& c #3D5619",
"* c #3F5224",
"= c #425A1D",
"- c #43640F",
"; c #496B10",
": c #4E7011",
"> c #527412",
", c #567913",
"< c #414636",
"1 c #43403F",
"2 c #4A523B",
"3 c #444240",
"4 c #464342",
"5 c #4A4645",
"6 c #4A4745",
"7 c #4D4A49",
"8 c #534F4D",
"9 c #534F4E",
"0 c #545B44",
"q c #55514F",
"w c #565250",
"e c #575351",
"r c #575453",
"t c #595453",
"y c #5A5554",
"u c #5C5756",
"i c #5F5A59",
"p c #615D5B",
"a c #635E5D",
"s c #616952",
"d c #64605F",
"f c #686C5B",
"g c #666160",
"h c #696564",
"j c #6D6867",
"k c #706C6B",
"l c #736F6E",
"z c #7A7675",
"x c None",
/* pixels */
"xxxxxxxxxxxxxxxxxxxxxxxxxxxxxxxxxxxxxxxxxxxxxxxxxx",
"xxxxxxxxxxxxxxxxxxxxxxxxxxxxxxxxxxxxxxxxxxxxxxxxxx",
"xxxxxxxxxxxxxxxxxxxxxxxxxxxxxxxxxxxxxxxxxxxxxxxxxx",
"xxxxxxxxxxxxxxxxxxxxxxxxxxxxxxxxxxxxxxxxxxxxxxxxxx",
"xxxxxxxxxxxxxxxxxxxxxxxxxxxxxxxxxxxxxxxxxxxxxxxxxx",
"xxxxxxxxxxxxxxxxxxxxxxxxxxxxxxxxxxxxxxxxxxxxxxxxxx",
"xxxxxxxxxxxxxxxxxxxxxxxxzzzxxxxxxxxxxxxxxxxxxxxxxx",
"xxxxxxxxxxxxxxxxxxxxxxzzzzzzzxxxxxxxxxxxxxxxxxxxxx",
"xxxxxxxxxxxxxxxxxxxxhhzzzlkauxxxxxxxxxxxxxxxxxxxxx",
"xxxxxxxxxxxxxxxxxxxx44hjkauutxxxxxzzxxxxxxxxxxxxxx",
"xxxxxxxxxxxxxxxxxxxx4447uuuu8xxxzzzzkkxxxxxxxxxxxx",
"xxxxxxxxxxxxxxxxxxxxX447uuuu8zzzzzjguuxxxxxxxxxxxx",
"xxxxxxxxxxxxxxxxxxxx 447uryu8zzzjgiuuuxxxxxxxxxxxx",
"xxxxxxxxxxxxxxxxxxxx  47uwtu8zkuuuuuuuxxxxxxxxxxxx",
"xxxxxxxxxxxxxxxxxxxx  X7uwtuuwuuuuuuxxxxxxxxxxxxxx",
"xxxxxxxxxxxxxxxxxxxx77 1uwtwwwuuuuxxxxxxxxxxxxxxxx",
"xxxxxxxxxxxxxxxxxxxxzz78uwequwuuxxxxxxxxxxxxxxxxxx",
"xxxxxxxxxxxxxxxxxxzzzzkhuw88uwxxxxxxxxxxxxxxxxxxxx",
"xxxxxxxxxxxxxxxzzzzzjguuuw88uxxxxxxxxxxxxxxxxxxxxx",
"xxxxxxxxxxxxxzzzzzjgiuuuuyq8uxxxxxxxxxxxxxxxxxxxxx",
"xxxxxxxxxxxxzzzzlgiuuuuuuuweuxxxxxxxxxxxxxxxxxxxxx",
"xxxxxxxxxxx44zzuuuuuuu 1uw8tuxxxxxxxxxxxxxxxxxxxxx",
"xxxxxxxxxxx41uuuuuuuo .5uw8tuxxxxxxxxxxxxxxxxxxxxx",
"xxxxxxxxxxx+.uuuuuxx  owuw8tuxxxxxxxxxxxxxxxxxxxxx",
"xxxxxxxxxxxx uuuxxxx o39uwqyuxxxxxxxxxxxxxxxxxxxxx",
"xxxxxxxxxxxxxxxxxxxx 857uwqyuxxxxxxxxxxxxxxxxxxxxx",
"xxxxxxxxxxxxxxxxxxxx 847uw8tuxxxxxxxxxxxxxxxxxxxxx",
"xxxxxxxxxxxxxxxxxxxx6547uyqtuxxxxxxxxxxxxxxxxxxxxx",
"xxxxxxxxxxxxxxxxxxxx4447uuwtuxxxxxxxxxxxxxxxxxxxxx",
"xxxxxxxxxxxxxxxxxxxx6447uuwtuxxxxxxxxxxxxxxxxxxxxx",
"xxxxxxxxxxxxxxxxxxxx8447uuwtuxxxxxxxxxxxxxxxxxxxxx",
"xxxxxxxxxxxxxxxxxxxx8447uuwtuxxxxxxxxxxxxxxxxxxxxx",
"xxxxxxxxxxxxxxxxxxxx8447uuwtuxxxxxxxxxxxxxxxxxxxxx",
"xxxxxxxxxxxxxxxxxxxx8447uuwtuxxxxxxxxxxxxxxxxxxxxx",
"xxxxxxxxxxxxxxxxxxxx8447uuyyuxxxxxxxxxxxxxxxxxxxxx",
"xxxxxxxxxxxxxxxxxxxx8447uwtuuxxxxxxxxxxxxxxxxxxxxx",
"xxxxxxxxxxxxxxxxxxxx 447uwtuuxxxxxxxxxxxxxxxxxxxxx",
"xxxxxxxxxxxxxxxxxxxx 447uwtwuxxxxxxxxxxxxxxxxxxxxx",
"xxxxxxxxxxxxxxxxxxxxOo35uwequxxxxxxxxxxxxxxxxxxxxx",
"xxxxxxxxxxxxxxxx#-sz7 .1uyttuf#;#xxxxxxxxxxxxxxxxx",
"xxxxxxxxxxxxxxxx$;2rpd 1uuuhk0$,$xxxxxxxxxxxxxxxxx",
"xxxxxxxxxxxxxxxx$>&<8rdpuhkhg=:,:xxxxxxxxxxxxxxxxx",
"xxxxxxxxxxxxxxxxx,,$@@4rzguuu$,,xxxxxxxxxxxxxxxxxx",
"xxxxxxxxxxxxxxxxxx,,,,%7uuu*@,,xxxxxxxxxxxxxxxxxxx",
"xxxxxxxxxxxxxxxxxxxxx,:$$$$:,xxxxxxxxxxxxxxxxxxxxx",
"xxxxxxxxxxxxxxxxxxxxxx,,,,,,xxxxxxxxxxxxxxxxxxxxxx",
"xxxxxxxxxxxxxxxxxxxxxxxxxxxxxxxxxxxxxxxxxxxxxxxxxx",
"xxxxxxxxxxxxxxxxxxxxxxxxxxxxxxxxxxxxxxxxxxxxxxxxxx",
"xxxxxxxxxxxxxxxxxxxxxxxxxxxxxxxxxxxxxxxxxxxxxxxxxx",
"xxxxxxxxxxxxxxxxxxxxxxxxxxxxxxxxxxxxxxxxxxxxxxxxxx"
};
