/* XPM */
static char *d6576ed332ef468fdf0165118345d455PHJZBzRUzAmTwTFo[] = {
/* columns rows colors chars-per-pixel */
"50 50 204 2 ",
"   c None",
".  c #1D1F28",
"X  c #23242E",
"o  c #262631",
"O  c #272933",
"+  c #2A2B35",
"@  c #2D2E38",
"#  c #302E39",
"$  c #2E3339",
"%  c #32323C",
"&  c #38353F",
"*  c #4C2619",
"=  c #5C2D19",
"-  c #592C16",
";  c #5E311B",
":  c #64321C",
">  c #6A361F",
",  c #5C342B",
"<  c #553326",
"1  c #4D393B",
"2  c #483638",
"3  c #593633",
"4  c #533D3D",
"5  c #5A3C3A",
"6  c #513935",
"7  c #623426",
"8  c #6C3920",
"9  c #6D3621",
"0  c #733D22",
"q  c #783F23",
"w  c #74442B",
"e  c #7A4B37",
"r  c #66483F",
"t  c #343441",
"y  c #3C3C44",
"u  c #373C42",
"i  c #423F48",
"p  c #553D41",
"a  c #5A3F42",
"s  c #3C4048",
"d  c #42434C",
"f  c #49454F",
"g  c #4A4046",
"h  c #574649",
"j  c #464655",
"k  c #4A4652",
"l  c #4C4956",
"z  c #4D4D5C",
"x  c #464D52",
"c  c #5B4D54",
"v  c #544E5A",
"b  c #564D56",
"n  c #4B5458",
"m  c #53505D",
"M  c #5D535C",
"N  c #664A46",
"B  c #744D43",
"V  c #715145",
"C  c #7C5544",
"Z  c #735249",
"A  c #7B5549",
"S  c #7E5849",
"D  c #6B5453",
"F  c #6D5A5C",
"G  c #685458",
"H  c #745955",
"J  c #7D5C53",
"K  c #735B5A",
"L  c #775854",
"P  c #67514E",
"I  c #7B615E",
"U  c #76605F",
"Y  c #4F4E60",
"T  c #514F63",
"R  c #545363",
"E  c #5D5461",
"W  c #545A63",
"Q  c #5D5965",
"!  c #565569",
"~  c #59576A",
"^  c #5B5A6D",
"/  c #57586D",
"(  c #5E5E72",
")  c #635965",
"_  c #6C5D64",
"`  c #635D6D",
"'  c #655A66",
"]  c #705D65",
"[  c #5D656B",
"{  c #596266",
"}  c #6A626E",
"|  c #626A6E",
" . c #756362",
".. c #616175",
"X. c #696473",
"o. c #646C71",
"O. c #65657A",
"+. c #6B6A79",
"@. c #697477",
"#. c #6C767A",
"$. c #6E797C",
"%. c #667374",
"&. c #71757D",
"*. c #756C74",
"=. c #834A2A",
"-. c #8C512F",
";. c #93522E",
":. c #8B5433",
">. c #83513C",
",. c #8A563D",
"<. c #8E5A3A",
"1. c #925634",
"2. c #9B5633",
"3. c #955A36",
"4. c #9C5B36",
"5. c #945C3C",
"6. c #9D5E39",
"7. c #874F35",
"8. c #A05F37",
"9. c #A05938",
"0. c #9F603B",
"q. c #A4623C",
"w. c #AB673E",
"e. c #B46C3E",
"r. c #855944",
"t. c #8C5B43",
"y. c #855D4D",
"u. c #8A5D4B",
"i. c #825645",
"p. c #935D41",
"a. c #875E52",
"s. c #8E634F",
"d. c #9D6446",
"f. c #94634B",
"g. c #9C654B",
"h. c #9A654A",
"j. c #84625A",
"k. c #8C6555",
"l. c #946551",
"z. c #986958",
"x. c #A36544",
"c. c #A96642",
"v. c #A56844",
"b. c #AD6A42",
"n. c #AB6C4B",
"m. c #A46B4C",
"M. c #B46D42",
"N. c #B86F45",
"B. c #B67042",
"V. c #BB7245",
"C. c #B5714B",
"Z. c #BD7549",
"A. c #AE7356",
"S. c #BC7752",
"D. c #846A69",
"F. c #90726E",
"G. c #C1774C",
"H. c #C4794E",
"J. c #C17750",
"K. c #C47950",
"L. c #737D82",
"P. c #787083",
"I. c #6D6C82",
"U. c #758183",
"Y. c #798587",
"T. c #7A8588",
"R. c #7C8B8C",
"E. c #7F9094",
"W. c #7E8F92",
"Q. c #828D8F",
"!. c #828E91",
"~. c #859295",
"^. c #849699",
"/. c #8B9A9D",
"(. c #899598",
"). c #939D9D",
"_. c #93A09F",
"`. c #8C9CA0",
"'. c #929FA2",
"]. c #94A3A6",
"[. c #99A5A6",
"{. c #95A5A9",
"}. c #98A7AB",
"|. c #97A8AB",
" X c #9CABAD",
".X c #9EAEB1",
"XX c #A0ACAF",
"oX c #A1AEB1",
"OX c #A3B2B5",
"+X c #AAB3B4",
"@X c #A6B6B9",
"#X c #A8B7BB",
"$X c #ABB9BC",
"%X c #A6B8BB",
"&X c #B1BDBE",
"*X c #AEBEC1",
"=X c #B3BEC1",
"-X c #B8BFC0",
";X c #B3C2C4",
":X c #BAC6CA",
">X c #C1CFD2",
",X c #C4D2D5",
"<X c #C9D6D8",
"1X c #F2F3F4",
/* pixels */
"                                                                                                    ",
"                                                                                                    ",
"                                              +X+X[.oXXX                                            ",
"                                      1X=XoX}.`.,X:X<X,X&XT.).                                      ",
"                                  <X:XQ.oX{.`.=X@XoX=X>X X$X&XR.+X                                  ",
"                                T.-X<X'..X.X{.*X*X{.oXOX*X$X&X/.$X$XOX                              ",
"                            o.|.OX|.{.]./.$X@X'.R t W ].:X,X[.+XOX XOX.Xo.                          ",
"                        XXOXL.R./.`..X$Xo.{ u . o % o . y | | #X X/.{.U.Y.$X X                      ",
"                       X.XOX@XT.{.`.`.W . @ y i z m z l & O . {  X|. X!.<X>X X X                    ",
"                     X X X].|..X!.[ o t T j.t.p z m v l < H b % + | R.{.oX'.*X$X X                  ",
"                    _.W.{..X`.`.d o v  .p.6.;.p Y m T h - 4.1.F j o x $X.X`..XOX@X                  ",
"                    @.OX%X*X{.s % E A q.J D.;.p ~ z ^ b - <.K :.f.M @ n Y.].{..XY.@.                ",
"                OX@X~.U. X[.u y M 5.q.B.p.m.2.p / v / c ; d.F.1.V.b.c t u '.{.o.~.;X_.              ",
"                $X$X*X|.@.$ u  .<.1.V.Z.b.b.2.p / z ( c : M.Z.8.V.V.w G % $ $.].(.R. X              ",
"              XX$XOX*X*X$.X M g.4.3.V.G.b.n.2.a ( z ..E : N.G.x.Z.C.=.g.b X L.|. XOX$XOX            ",
"              XX%X.X].].y j e B.0.3.Z.G.b.n.4.a ( l O.M : N.H.8.G.V.=.B.p.y s .X`./..XoX            ",
"              OX XW.^.#.$ G 1.M.-.3.Z.H.b.C.9.a ^ k ..c : S.K.q.H.V.=.V.8.h O (. X]..X.X            ",
"              .X{.W.].d d t.e G h <.H.K.8.C.4.5 O.k O.E : J.K.x.C.N.3 C 4.e s m  X X%X$X            ",
"              .X].{./.+ b <.' G  .k.H.K.6.C.4.5 ( f ..) : J.K.c.N.g.E ) E :.h X _.OXOXOX            ",
"              ~.W.U.n % D S P b.k.d.H.H.3.C.9.5 / i ..c : J.K.c.n.n.K x.G k.S X x Q.!.~.            ",
"              :X<X/.{ $ M _ F j.I H j.j.K n.4.5 ..i ..E : J.A.p.p.m.e v.y. .D o { $X*X@X            ",
"              :X<X*X{ t ^ ^ O.X.} } ` Q ..z.4.5 ( i ..E = a.X.^ ( ..O.+.I.( ! X { ;X=XOX            ",
"              |.;X@X| t J  .N b.<.0.C.C.p.b.4.5 ^ i ( E 9 C.z.t.f.f.C g.y._ I o | *XoX X            ",
"              E. XOX[ $ t.g.M >.F l.Z.C.x.c.4.3 ^ y ( E 9 J.K.q.Z.b.H d.D k.5.o o./. X{.            ",
"              /.^.@X| % t.M.F M Q u.G.q.c.x.2.3 ^ i ..v 0 G.G.9.H.g.` P Q x.5.o o.R.]..X#X          ",
"               X{.@Xo.@ r.B.:.f.e w.G.6.v.9.2.3 / i ..E 9 G.G.q.K.C.h J x.q.p.o o.%.[..X            ",
"              #.U.!.y # i.B.5.V.x.b.C.,.D.g.2., / i ..v > N.l.D.S.G.:.V.M.M.5.o u %.T.U.            ",
"            $X;X`.;Xo.@ r.B.3.Z.0.b.C.a.+.F.9.3 / v ..v ; 8.] I.A.G.3.V.M.M.t.o o.;X=X$XOX          ",
"            $X#X;X:X$.@ C B.3.V.0.M.B.>.X.u.9.3 ! T ( v ; b.B *.n.G.1.V.B.e.t.o $.:X:X*XoX          ",
"            {.].^.|.$.@ S e.:.V.4.w.t.H A a >., ! ~ ..v - A L Z D n.1.V.V.e.t.O L.OX%X.XoX          ",
"            ~.].`..XU.+ C e.-.V.1.w.L l.b., D , ! ( ( v - ' n.2.N g.1.V.Z.e.t.O T.;X{.|.oX          ",
"            XXOX X@XY.+ S e.3.V.;.c.t.L 7.a i., T ( ( l = A j.q D v.3.V.V.e.r.O T.@X|.@XoX          ",
"              (.!.(.[ + S e.0.V.6.q.M.x.u.p.2., R ( ( j 9 b.x.C C.V.1.V.M.M.r.O | (.(.(.XX          ",
"            OX[.@.=XY.+ V e.1.s.V 3.V.Z.N.4.2., R ....l > M.Z.9.G.V.w p.e.V.i.o U. X X{.-X          ",
"             X|.U.:X^.O V w.F m ` y.V.V.V.q.2., Y ..( l : M.G.8.G.p.` ~ y.e.i.+ Q.*X&X%X:X          ",
"            {./.|..X~.O V d.M d.J y.V.V.V.w.2., T ( ` l : M.V.8.V.f.K A Q g.e + @.R.OX$X;X          ",
"            }.(.|.[.U.O c I D c.g.>.v.v.n.q.;., R ( ( l 9 M.V.8.N.M.,.b.i.I Z O n  X#X.X&X          ",
"            ].[. X{.#.+ R ^ +.O.O...` ( ..s.2., l ( ^ k 0 u.X.) ' ` } } X.( ~ + $. X X{.+X          ",
"            )./././.@.O F ' D y.s.V y.s.a.5.2.7 Y ( / l q u. .K K U F I  .` ` O @.(.!.$.-X          ",
"            +X,X,X<XXXO h f.c 6.y.e B.B.w.4.2.7 Y ( ^ l q M.V.9.M.M.C q.S  .A O  X:X XQ.:X          ",
"            &X,X<X;X].o N w._ M _ Z e.e.w.e 7.7 j ^ ~ f 0 i.s.0.M.u.M N ~ 5.V +  X;XOX_.;X          ",
"            <X;X@X|.|.o h 4.e P h w q.q.1.P.Z , R ~ ~ l > H *.:.8.1.v ! A =.r + |.%X$X|.            ",
"            +X!.{.^. XX 1 q - 8 8 = q w 8 < ; * l R R k * > 8 ; 0 q 9 = 0 : 6 +  X|.OX X            ",
"            ).OX/.^..XO i 2 2 1 6 2 6 1 1 1 2 2 z m R z 1 5 p 1 4 4 4 1 5 1 i t XX X.X&X            ",
"              $X@X@XoX+ j j j j Y j R z Y ! Y W / R ~ ~ ! ^ ^ ( ^ [ / ^ ~ R Y u OX%X%X$X            ",
"              XXoX+XoXo.&.#.+.+.O.Q z z j z j z T z z m R v z m m z v T m z z x !.{.OX X            ",
"                                                                                                    ",
"                                                                                                    ",
"                                                                                                    ",
"                                                                                                    "
};
