/* XPM */
static char *_a45e0f5650049f9edef26593c6b9a7franaHTCg1J5CiUcD[] = {
/* columns rows colors chars-per-pixel */
"50 50 195 2 ",
"   c None",
".  c #0E0D12",
"X  c #100F15",
"o  c #121117",
"O  c #15141A",
"+  c #18171D",
"@  c #1A191F",
"#  c #1C1B24",
"$  c #1F1D28",
"%  c #211F29",
"&  c #23222B",
"*  c #292733",
"=  c #2D2C36",
"-  c #2F2D39",
";  c #32323D",
":  c #302F3A",
">  c #542B1C",
",  c #5A2E1D",
"<  c #562A17",
"1  c #4E271A",
"2  c #65341E",
"3  c #492A22",
"4  c #442A26",
"5  c #563225",
"6  c #573329",
"7  c #523A37",
"8  c #693824",
"9  c #703C26",
"0  c #5F423B",
"q  c #754125",
"w  c #77462C",
"e  c #67473C",
"r  c #7B4B34",
"t  c #734C3C",
"y  c #7A4E3C",
"u  c #7D513C",
"i  c #353541",
"p  c #393743",
"a  c #373845",
"s  c #3A3945",
"d  c #3D3D4A",
"f  c #443E49",
"g  c #533F42",
"h  c #3F4348",
"j  c #41414C",
"k  c #49434D",
"l  c #564346",
"z  c #5A464D",
"x  c #5D484E",
"c  c #55464D",
"v  c #464553",
"b  c #494655",
"n  c #4B4955",
"m  c #4C4A5B",
"M  c #464855",
"N  c #5D4A51",
"B  c #534F5E",
"V  c #564E59",
"C  c #4D515A",
"Z  c #475356",
"A  c #55515D",
"S  c #644A49",
"D  c #6C4E4A",
"F  c #744F4B",
"G  c #6D514E",
"H  c #7A5344",
"J  c #74534C",
"K  c #795347",
"L  c #644B52",
"P  c #655154",
"I  c #6D5454",
"U  c #63555C",
"Y  c #6D595C",
"T  c #665A5F",
"R  c #735453",
"E  c #735D5C",
"W  c #795E5C",
"Q  c #785B54",
"!  c #514F61",
"~  c #545364",
"^  c #5B5564",
"/  c #56556A",
"(  c #58576A",
")  c #57586D",
"_  c #5B5A6C",
"`  c #585D65",
"'  c #5E5E72",
"]  c #4F4F60",
"[  c #645B66",
"{  c #605D6D",
"}  c #6B5F65",
"|  c #745E61",
" . c #625E70",
".. c #5A6366",
"X. c #5C676A",
"o. c #66656D",
"O. c #7A6262",
"+. c #76636A",
"@. c #656274",
"#. c #646C72",
"$. c #64647A",
"%. c #6D697B",
"&. c #716976",
"*. c #697678",
"=. c #717B7E",
"-. c #7F747E",
";. c #834A2C",
":. c #8D512D",
">. c #8A5132",
",. c #83523A",
"<. c #845135",
"1. c #935634",
"2. c #965934",
"3. c #9A5A37",
"4. c #945A3B",
"5. c #9C5D3A",
"6. c #A25E38",
"7. c #9E623C",
"8. c #A4623D",
"9. c #AA643D",
"0. c #AC683D",
"q. c #B26B3F",
"w. c #845945",
"e. c #895B43",
"r. c #845A4B",
"t. c #875948",
"y. c #915D43",
"u. c #995D43",
"i. c #845E53",
"p. c #8E614E",
"a. c #9B6243",
"s. c #9A654C",
"d. c #99644B",
"f. c #8A6355",
"g. c #856259",
"h. c #886456",
"j. c #926451",
"k. c #996752",
"l. c #986D5C",
"z. c #A36542",
"x. c #AE6541",
"c. c #AC6A44",
"v. c #AB6D4C",
"b. c #B06742",
"n. c #B46D43",
"m. c #B96F47",
"M. c #B06F4C",
"N. c #BB7244",
"B. c #BC744B",
"V. c #B57149",
"C. c #A86E51",
"Z. c #AC765C",
"A. c #866763",
"S. c #8C716E",
"D. c #C0764A",
"F. c #C3794D",
"G. c #C47A51",
"H. c #6D6B81",
"J. c #737C82",
"K. c #747381",
"L. c #847886",
"P. c #768284",
"I. c #7A8286",
"U. c #7C868A",
"Y. c #7E898B",
"T. c #7D8A90",
"R. c #848E94",
"E. c #839193",
"W. c #8A9597",
"Q. c #8B969A",
"!. c #8B9A9D",
"~. c #869799",
"^. c #80888E",
"/. c #8D9DA1",
"(. c #919DA3",
"). c #8FA1A4",
"_. c #93A1A5",
"`. c #96A5AA",
"'. c #99A6AA",
"]. c #96A8AC",
"[. c #9BAAAD",
"{. c #9EADB1",
"}. c #A0ADAF",
"|. c #A0AEB3",
" X c #A3B2B5",
".X c #A5B4B9",
"XX c #A8B6BB",
"oX c #ABBABE",
"OX c #A8B7BA",
"+X c #ADBEC1",
"@X c #B1BDC2",
"#X c #B2C1C5",
"$X c #B9C6CB",
"%X c #BAC8CC",
"&X c #C9D5D9",
/* pixels */
"                                                                                                    ",
"                                                                                                    ",
"                                                                                                    ",
"                                                                                                    ",
"                                                                                                    ",
"                                                  U.{.XX XXX|.                                      ",
"                                              }.[.{.].$X%X&X$X(..XI.                                ",
"                                        Q.@X_.}.].).@X X[. XoXXX@XW.oX X                            ",
"                                    Y.[.).'./.Q.OX|.{.I.J.`.oX%XOX}..X.X X_.                        ",
"      H.] v v                     [..././.[.oXP.U.Z p d d a v J.I.OX].Q.'.X.|.[.                    ",
"      H.~ m _ _ !             ]. X X|.R./._.J.; f / m s f A [ n ; #.'.].(.{.&X X[.                  ",
"      $.~ N z.A.%.' ~       Y.{.]._.].(.R.j f ^ h * & & p n > w.[ n d U.Y.'.).OX+X}.                ",
"      $./ c 6.n.8.g.%._ A   P.E.{..X/.#.i ~ d & % % % % p ! > 1.4.K o.h .. X~._.|. X                ",
"      @.) z 6.+.8.8.d.+.' C ..[..XOXJ.d ! = % % % # + + i B < r.L.2.0.T v Z `.`.[.#.J.              ",
"      ' ) N z.C.c.9.N.9.Q ' J.J.~.#.p v & % % # # + + O i A > n.n.8.N.>.I k C !.*.!. XW.            ",
"      ' ) N 9.F.c.c.N.n.q h.) '.J.: m & % # # + + O O X ; ^ , m.D.9.B.:.8.U h A [.[./.OX            ",
"      _ _ L q.G.n.b.D.N.q n.g.X.s n * & $ # O + O O O X ; ^ , B.F.9.B.>.q.z.C a `.!./. X}.          ",
"      / / x 9.G.B.n.D.D.q n.3.^ s a & % # + O O O o o X - ~ , D.F.9.F.>.q.9.e h J._.).{.[.          ",
"      / ) L b.G.B.c.F.N.9 N.3.E m & % # # O O O o X . . - ^ , F.F.z.N.t L w.;.m M {.]..X X          ",
"      / ) N b.G.B.z.G.Q ~ E 2.h.b & % # + O o O X . . . - ^ , F.F.8.B.[ R ^ ,.G ; !.|. X X          ",
"      ~ ) N b.G.B.z.F.E e P G s.m & $ @ + O O . . . . . = ! > G.G.6.m.H M.y.| e.a h U.U.W.          ",
"      ~ ) N b.G.V.1.B.M.r a.[ p.m & $ # O O o X . . . . - ^ > C.O.E | Y O.|  .^ a ..#XoX X          ",
"      ~ ) N 9.l.%._ @.@.%.%.$./ m & # @ O O . X . . . . - ^ > k.| R W P O.W { } s ..oX+X X          ",
"      ~ ) S b.B.f.H d.k.t r.^ O.m $ $ @ + O O . X . . . - ! 8 D.F.z.B.y M.e.+.a.p #..X].[.          ",
"      ~ ) z b.F.b.z.B.h.e H U c.n % # @ + O O X X X . . - ^ 8 D.G.z.F.U R ^ u.z.a #.E.].|.          ",
"      C ) x b.F.c.z.V.} V [ ,.c.c % % + O O o X X X X X - ! 8 D.F.9.G.y Y r.6.a.s #.*._.{.          ",
"      ~ ) z c.Z.w.z.8.b.t M.2.c.n % # # @ O o O o o X X = ^ , b.f.S.F.1.m.n.q.a.s M ..P.=.          ",
"      ~ / c c.S.' z.6.N.1.N.5.c.k % % # @ O O O o X X X - ^ > 8. .K.B.3.n.n.q.z.s ...XoXXX          ",
"      ~ / z x.W z a.b.B.2.n.7.c.k % % # + O O o o o o o - m > u.G Y c.5.q.N.q.a.s =.#X%X+X          ",
"      ~ ~ c t.t.K w.m.N.1.N.7.c.f % # # # + O O O o o o = / 1 F s.r G 5.q.N.q.a.; I. XoX X          ",
"      / ) g F 6.4.G m.N.3.N.5.c.f % % # @ O O O O o o o - m > F v.;.I 5.q.N.q.u.p Y.#X_.{.          ",
"      / / g z.D S u.B.n.r c.5.8.f % % # # O # O O o o o - m , u.J S v.7.0.q.N.e.p U. X{. X          ",
"      / ! l z.B.1.B.D.Q ^ [ ,.z.f & $ # # + + O O O o O - ~ , m.B.5.D.3.5.q.N.e.a X.E.Y.=.          ",
"      ~ ~ l x.F.1.D.N.h.e K Y z.f % $ # # @ @ O + O O O - m , V.N.5.N.F ^ Q q.4.p Y. XoX X          ",
"      _ ~ l 9.B.i.k.d.k.H u.[ r.d & % $ # # + @ @ O O @ * m , n.N.5.B.U t.U p.e.a P.!.|.+X          ",
"      _ ~ l 9.k. .{ {  .$.%.$.^ d % % % # # @ @ @ + + @ - n 2 n.n.2.N.1.8.4.o.K a Z _.oXOX          ",
"      _ ~ l 9.N.0.q.n.c.<.4.[ f.d & % % # # # # @ @ @ # = v 9 g.@._ { &.@.%.@./ s *. X.X[.          ",
"      _ B g 9.N.0.N.N.Y t D R z.a & % % $ # # # @ # @ # = A 9 z.f.H p.e.w.r._ | s P.~.Y.=.          ",
"      ' ! g 9.N.8.N.N.R ^ E >.a.p % % % % $ % $ $ # # # = M 9 9.q.1.q.Q y F W H s ].%X{._.          ",
"      ' m g 6.m.7.n.N.9.<.c.1.a.p & & % % % % % $ $ $ $ = k 9 Y A.1.q.U V ^ <.y a `.#X X}.          ",
"      @.m g 6.u.5.0.N.0.2.q.:.a.; & & & % & % % % $ % % - m > w ;.2 ;.q 6 w 8 7 a ).{. X_.          ",
"      $.] g u.S.2.0.N.0.2.0.:.,.p & & & % & % % % & % & - v 4 5 5 3 5 6 3 5 3 7 d `.[. X.X          ",
"      $.m g 6.n.:.q.q.8.<.w.e k i & & & & & & & & & & & = ~ _ _ ^ _ ) _ ) _ / m j [..X.XXX          ",
"      $.m g 4.y.e S c k M h m s p & & & & & * & * & & & * v v n n n n m m n v v d Q.'.[.'.          ",
"      H.m d M d m d v d                                                                             ",
"      H.m d d d                                                                                     ",
"                                                                                                    ",
"                                                                                                    ",
"                                                                                                    ",
"                                                                                                    "
};
