/* XPM */
static char *result[] = {
/* columns rows colors chars-per-pixel */
"50 50 151 2 ",
"   c #0D0415",
".  c #0F0618",
"X  c #0C0D1F",
"o  c #140517",
"O  c #100B15",
"+  c #110619",
"@  c #1A0618",
"#  c #140A1B",
"$  c #151516",
"%  c #16111B",
"&  c #19141E",
"*  c #1B1B1B",
"=  c #230817",
"-  c #21071A",
";  c #27081C",
":  c #2D091C",
">  c #310C17",
",  c #34091F",
"<  c #3B0B1F",
"1  c #231417",
"2  c #2F1516",
"3  c #2D151C",
"4  c #251D1D",
"5  c #33151C",
"6  c #34181A",
"7  c #3E1C1D",
"8  c #3B141C",
"9  c #170B20",
"0  c #1B0D24",
"q  c #1C1422",
"w  c #1E1A22",
"e  c #1F1028",
"r  c #3B0F25",
"t  c #281222",
"y  c #231D24",
"u  c #21112A",
"i  c #281A2F",
"p  c #321521",
"a  c #3F1526",
"s  c #3B1827",
"d  c #3E1D2A",
"f  c #1E2C30",
"g  c #1A3035",
"h  c #232323",
"j  c #2B2424",
"k  c #262129",
"l  c #2C252B",
"z  c #2C2C2C",
"x  c #3C242C",
"c  c #322A2B",
"v  c #3A2D2E",
"b  c #2F2C32",
"n  c #312E33",
"m  c #392D32",
"M  c #333333",
"N  c #393435",
"B  c #3B3B3B",
"V  c #410D1D",
"C  c #4B0F1E",
"Z  c #431719",
"A  c #4E151D",
"S  c #44181E",
"D  c #4B1D1F",
"F  c #55121E",
"G  c #5C141B",
"H  c #5E1D1F",
"J  c #621619",
"K  c #61191C",
"L  c #522B1D",
"P  c #61261F",
"I  c #6C241C",
"U  c #682A1F",
"Y  c #76251C",
"T  c #772F1B",
"R  c #79281B",
"E  c #6E301C",
"W  c #460C24",
"Q  c #4C0E22",
"!  c #431225",
"~  c #4E1524",
"^  c #4B1B24",
"/  c #461729",
"(  c #401929",
")  c #511120",
"_  c #541C21",
"`  c #5C1821",
"'  c #412122",
"]  c #412C2A",
"[  c #4C2B2B",
"{  c #592224",
"}  c #56282A",
"|  c #563A2F",
" . c #432331",
".. c #402C34",
"X. c #4F2F31",
"o. c #453636",
"O. c #433239",
"+. c #463B3B",
"@. c #682F27",
"#. c #6F3C29",
"$. c #743726",
"%. c #7B3C23",
"&. c #4C423D",
"*. c #5B4137",
"=. c #7A4630",
"-. c #082D44",
";. c #09364E",
":. c #103F4D",
">. c #093952",
",. c #133B53",
"<. c #2A3E42",
"1. c #4A3F40",
"2. c #1D4045",
"3. c #04435D",
"4. c #2C464A",
"5. c #284A53",
"6. c #28505A",
"7. c #0F5365",
"8. c #065774",
"9. c #02657F",
"0. c #0B6578",
"q. c #1E6A7C",
"w. c #434343",
"e. c #4A4A4A",
"r. c #983E1D",
"t. c #823B21",
"y. c #804028",
"u. c #CC7A3F",
"i. c #166281",
"p. c #0B748C",
"a. c #06748C",
"s. c #027494",
"d. c #157498",
"f. c #11919D",
"g. c #1683A7",
"h. c #0D96A5",
"j. c #028EB3",
"k. c #049DB5",
"l. c #0195BB",
"z. c #09A0B2",
"x. c #10AABA",
"c. c #019AC1",
"v. c #02A0C6",
"b. c #04A5CC",
"n. c #0DB0C0",
"m. c #01BFD6",
"M. c #00B2DD",
"N. c #02BFE0",
"B. c #00C5DD",
"V. c #01CCE2",
"C. c #02D6EC",
/* pixels */
"w.w.w.w.w.w.B w.4.+.N B M M z z $ M B 4.B &.4.B &.B w.B M B M M z * h z z z z z M z z h w.e.w.e.e.w.",
"w.w.w.+.&.B B B B B N M M M z z h M N o.B B +.B B B M M M M M M M * * h h z z h h z * z &.4.w.w.e.w.",
"w.w.B 4.B B B B M M M M z z z h z M z M B B N M M M M M M M z M z h $ * h h h h h * $ M w.B w.w.&.4.",
"B B B N B M N M M z z M M z h * M M M M M M M M M M M M M M z z z * $ $ $ $ $ $ $ $ $ M B w.B B B B ",
"B M B B M M M N M z z z z z h * z M M z M M M M M M M M z M z z z $ $ $ $ $ $ $ $ $ $ h B B B B B B ",
"B B M M M M M M z M M z z z * h z z M z M z M M M z z z z z z z h $ $ $ * $ * * $ * * $ M M B B N o.",
"M M M M M M M M M z z z z h $ h z z z M z z z z z z z z z z h z * $ * * * * * * h * h $ h M B B M B ",
"M M M M M M M z M z z h h * $ * h h h z M z M z z z z z h z h * $ * * * * * h h h h h h $ z M M M M ",
"M M M M M z M z z z h * * $ $ $ * h h z h M z j z h h h h * * * $ * * * h h h h z j h h w h z M M M ",
"M m M M M z z z h * * * $ * * * $ $ * h h h h h h h h * h * * $ * * h h h h h z z z z z z * h M M M ",
"M ^ x M M z h 4 * * * $ * * h h h h $ * h p.g * * * $ $ * $ $ $ * h h h z z z z z %.M M z z * h z M ",
"M F A s p y * & * 6 * * 2.f h l z z z * 0.p.$ $ $ * * * * * $ $ w h h z h M z M M r.[ M M M h * h M ",
"l F ) W W W p 5 3 Z * * 2.7.l <.4.q.6.4.f.p.$ * * * * h * h * * h h z z n M m x D R F N N N M * h h ",
"! W W Q G G Q W Q A y h f.k.n.B.M.b.s.B.C.k.$ Z 4 h h h h h $ L j j c x ( W W W F H F / ..B N z * * ",
"W F C W G G G G Q Q W W 5.C.x.b.M.l.a.B.B.m.- R I j h z h z * E ` ( W W W Q F G G W Q W W  .N M * * ",
"Q G G Q F G G J Q Q F F W d m i.j.;.j.3.      = I G l z z h 1 A Q Q F G ) J J J G W Q J F W x z h $ ",
"~ J J G W J J J ) C G J G W W d.l.v.8.X         ; G D z h t ! F ) ) J J J G J J J W G J J G Q s h $ ",
"F G J J W F J J ) C G F J G G g.l.a.-.X   o 9   + r G A S Q F J Q W J J G J J J J W G J J J G Q p $ ",
"J J K J G Q J J ) G J A s 7 ' ,.;.s.>.      # 9   u W W W ) G J G Q Q G J J J J J W G J J G F K ~ O.",
"J G ` } } / [ [ ! 2 1 $ $ $ O   o i O   o :   0   u t W 5 6 6 A J G Q G J J J J J W J J J G J J J / ",
"+.w.w.w.&.=.#.M z $ $ * & 0     , V , @ @ @ @ 9 # u e $ $ * 4 * 4 6 F C J G 7 D G W K J J J J J J G ",
"w.w.w.B | %.Y M z * * q e 0     ; < ; G V : ; # # u e & $ * * * $ h M / ~ z $ $ 3 W Z Z 1 v +.X.{ J ",
"B B B N v T P M z * y e u #     o > : , , - :   0 u u e $ * $ $ z B B B  .B z $ $ t h h h M B B +.o.",
"B M B N N ] & z h $ u e u +     : C , @ :       0 0 e e % $ h N B B w.w.w.w.B * * w z M z z B B B B ",
"B B M M M z & z h * u h e .   . o , , o         0 0 e e e b B B <.+.w.w.e.w.w.z * h M B z z B M M B ",
"N M M M M z & z * * h z q     0 .         . 9   0 9 # 0 u B N B B 1.*.&.w.e.w.o.$ h M B z z B M B M ",
"M M z M M h . w $ w k y     . u #     + # 9 e . 0 #     e M B B <.%.u.%.w.e.e.w.h h z M h h M M M M ",
"M M z z h h w $ O O y 0     # u #     0 . 9 u # 9 0     q B M B N 8 Z @.w.e.e.w.M * h z * h z z M M ",
"z z z h h h * $ $ q e #     + 9 0     9   # u 0   9 #   # B B B l y @.@.w.e.e.e.B h * * * * h z z z ",
"h h h * * $ $ $ $ $ #           9   # #   9 u 0     0   q M B B k B w.w.w.w.w.e.w.M $ h z M * h h h ",
"h * * $ $ $ * * y 0   + 9       +   # +   # e e     9   z M M B z b w.w.w.w.w.e.w.M * h M M z * w h ",
"$ * $ $ $ * h h y 0     e #         #     . . 9     .   b M M B k B B B w.w.w.e.w.M z * z M M * * * ",
"$ * h z * * h k u 0   + u 0                             w M N k y B B B w.w.w.w.4.N M * h z M z * $ ",
"z B B w.M * h u u #     u u 9                           O M M & B B B B B B B B B N M * h h h h * * ",
"B B 4.o.w.N * 0 0 9     e u 0 +                         O # y q M M B B B B M M &.M z * $ * $ * h M ",
"B B &.B &.4.N O + +     e e #                           q z M M M n M M M M M M M M z h $ $ h M M N ",
"B B B w.B w.w.          # o                           # z z z z z M z M z z z z z z h h $ h z M M M ",
"M M M B B B B w     #                                 . h z z z z z h h z h h h h h h $ * h z z M M ",
"M M M M B M B B * $ * #                       O     o w h h h h w h h h h h h h h h * $ * h h z z M ",
"M M M M M M M B b * $ * +       + n z O       4 * $ * * * h h h h h * h h * h * $ $ $ $ * * h h z z ",
"z M z M M M M M z * * * h *   # M B B B h O 4 $ * * * * * * * * * * * $ $ $ * * h z h $ $ * h h z z ",
"h z z z z M M M h * * * h z z z M M B w.w.w.4.M $ $ $ $ $ $ * * * * * * $ * * h z z M z $ $ * h h h ",
"h h z z h h h h h $ * * h h z z M M B B B B 4.+.M $ $ * h * * h h h h * * * * h z M M M h $ $ $ 4 * ",
"* $ * * * * w * * $ $ * * h h k z z M M B B o.B M * $ * * z z z z z z h $ * h z z M B B M * $ $ $ $ ",
"* * h * * $ $ $ $ $ $ $ $ * * h z z z z M M M M M $ * h z z M M M M M h $ * * h h z z z M * * z z h ",
"e.w.w.w.w.B B N z z h h * $ * * * h h h h z h h h $ * h h z M M B M h * $ h z h * * * $ $ z w.w.e.e.",
"e.e.e.e.e.e.w.w.w.&.B B M z $ $ $ * * * * * * * $ $ $ $ h h j z z h h * B w.e.e.&.h $ B h e.e.e.e.e.",
"e.e.e.e.w.e.w.w.&.4.B B B M z * $ $ $ $ h h z M z M z z h w * h h h * M &.w.w.w.e.4.M $ z e.e.e.w.e.",
"e.e.e.e.w.w.w.w.&.4.+.B B M M z $ $ z B &.&.w.w.w.w.B &.B M M j * $ h M B B &.4.&.M M h M e.e.e.&.w.",
"e.e.w.e.w.w.&.4.B +.B N B M M z * * B w.4.w.w.w.w.B B w.4.B N N h * z M M M M M M c M * 4.e.e.e.e.e."
};
