/* XPM */
static char *result[] = {
/* columns rows colors chars-per-pixel */
"50 50 153 2 ",
"   c #0D0415",
".  c #0F0618",
"X  c #120516",
"o  c #110A16",
"O  c #1C0E16",
"+  c #110618",
"@  c #1C0618",
"#  c #140A1C",
"$  c #180B1C",
"%  c #151516",
"&  c #1E1217",
"*  c #16121A",
"=  c #19141B",
"-  c #1C1C1C",
";  c #22071B",
":  c #230819",
">  c #2A091C",
",  c #320A1D",
"<  c #3D0D1E",
"1  c #221415",
"2  c #2B1516",
"3  c #241419",
"4  c #2C151C",
"5  c #2C1B1B",
"6  c #331617",
"7  c #34161F",
"8  c #3B171B",
"9  c #35191A",
"0  c #170B20",
"q  c #1A0C23",
"w  c #0B1225",
"e  c #1D1423",
"r  c #1E1A22",
"t  c #091F34",
"y  c #230E22",
"u  c #350C21",
"i  c #3C0C22",
"p  c #231D24",
"a  c #2A1D22",
"s  c #21112A",
"d  c #2A1329",
"f  c #351323",
"g  c #3C1223",
"h  c #321923",
"j  c #361E28",
"k  c #3F1C2B",
"l  c #1C2021",
"z  c #08273C",
"x  c #192B31",
"c  c #13333D",
"v  c #232323",
"b  c #282526",
"n  c #262229",
"m  c #2B262C",
"M  c #2C2C2C",
"N  c #332127",
"B  c #392525",
"V  c #30262A",
"C  c #3C232C",
"Z  c #33292C",
"A  c #3A282F",
"S  c #2D2731",
"D  c #362F32",
"F  c #3B2E33",
"G  c #223134",
"H  c #2C3739",
"J  c #333333",
"K  c #3C3337",
"L  c #373638",
"P  c #3F373A",
"I  c #3B3B3B",
"U  c #480E1F",
"Y  c #45151B",
"T  c #4B131B",
"R  c #4A1A1C",
"E  c #55121D",
"W  c #5C141C",
"Q  c #561A1B",
"!  c #621619",
"~  c #641C1F",
"^  c #6A1E1D",
"/  c #63281B",
"(  c #72241D",
")  c #702B1E",
"_  c #7E2A1B",
"`  c #460C24",
"'  c #4C0E22",
"]  c #431225",
"[  c #491024",
"{  c #431C27",
"}  c #4B1F21",
"|  c #471429",
" . c #47182B",
".. c #521020",
"X. c #472425",
"o. c #47252A",
"O. c #40292D",
"+. c #5E312B",
"@. c #482E39",
"#. c #403338",
"$. c #48363E",
"%. c #413C3D",
"&. c #483D39",
"*. c #612722",
"=. c #612C24",
"-. c #633E31",
";. c #4B403A",
":. c #0A3547",
">. c #093B54",
",. c #16414C",
"<. c #114352",
"1. c #144E5C",
"2. c #264548",
"3. c #244B52",
"4. c #1A5462",
"5. c #1D5A60",
"6. c #065B74",
"7. c #075D79",
"8. c #1C6870",
"9. c #434343",
"0. c #4A4A4A",
"q. c #802E1C",
"w. c #86341C",
"e. c #B06234",
"r. c #036883",
"t. c #096F87",
"y. c #01728D",
"u. c #0A7088",
"i. c #13738D",
"p. c #017B96",
"a. c #0A7A94",
"s. c #047B9A",
"d. c #117995",
"f. c #236F8A",
"g. c #05819B",
"h. c #0187A3",
"j. c #0B8BA0",
"k. c #028CAB",
"l. c #1483A8",
"z. c #038DB1",
"x. c #0497B0",
"c. c #0196BD",
"v. c #0DA0B7",
"b. c #05A5BA",
"n. c #029DC5",
"m. c #03ADCA",
"M. c #0AB4C6",
"N. c #07B4CF",
"B. c #02B1D5",
"V. c #00B2DD",
"C. c #02B9DD",
"Z. c #00CBE2",
"A. c #00CCE9",
/* pixels */
"9.9.9.9.9.;.%.;.I I I I J J M M % J I ;.9.9.I 9.9.I I I I J J J M - b M M M M M M M M v 2.0.0.0.0.0.",
"9.9.9.9.%.2.I I I I L J J J M M v J J L I I I I I L L L J J J J M - l v b b M b M b l M ;.9.;.0.;.9.",
"9.9.I %.I I I I J J J J M M M v M J M J L L I L J J J J J J J M M v % - v v v v l - % J 9.I 9.;.2.9.",
"I I I L L L L J J M M J M M M - J J J J J J J J J J J J J J M J M - % % % % % % - % % J I I 9.I ;.I ",
"I L L L L L J J J M M M M M v - M J J J J J J M J J J J M J M M b - % % % % % % % % % b I I I I I I ",
"L L L L J J J J J M M J M M - v M M M J J M J J M J M M M M M M l % % % % - - - - % - % J J I I L L ",
"L J J J J J J M M J M M M v % v M M M M M J M M M M M M b M v v - - - - - - - - - v - % v J I I L L ",
"L J J J J J J J J M M M v - % - l b b M M M J M J M M M b M v v % - - - - - v v v v v v % M J J L J ",
"J J J J J M J M M M v l - % % % - v v b M M b b v M b v v v - % % - - l v v v b b v b M - v M L J J ",
"J J J J J M M M v - - - % - - - % % l l v 4.G v v l l l l - % % - - v v v v v b M M M M M l b M J J ",
"J J M J J M v - - - - % c l v v v v - - 1.a.- - - % - % % % % % l l v v b M M M M J J M M M - b M J ",
"M J J b v - l - - - % - x <.v M M 2.H - u.u.% % % - - - - v % % l v b M b M J J J J J J J J - l b M ",
"M J v - - - - - % - - l ,.6.8.v.N.A.j.M.B.a.3 4 - - l l v v % % v v M M M J J L L I L I L L D - v v ",
"v M - - - - % % % - v v 5.g.b.N.V.k.p.Z.c.m.> ( 5 v v v v v % v v M M M J L L I I I I I I %.L M - l ",
"l l - - - - % % - - v b M 3.H g.n.7.s.y.t :.X Y / 5 b M M M % v v M J J L I I %.I 9.;.9.2.&.L J - - ",
"- - - % - v v % - v v v M J J i.c.s.k.w       X U Q 5 M M v % % v l M J L I ;.;.2.9.9.9.9.I J M b % ",
"% % v L ;.&.L - % - v b M J A l.k.x.z w       # ; ' ..B b - % % - l M M J I I 9.9.0.9.%.I J M b b % ",
"b I 0.0.0.0.2.J % - - 5 b j ` f.g.r.>.      X q   i ` ! R 2 % % % - - b M J I I 2.&.L J M M M M - % ",
"0.0.0.9.9.9.%.L l % = 4 ` ' ` X   >.      ;   s 0 u ` ..! ! ! T Y 8 4 f b b J L ;.J J J M J M 5 l ;.",
"0.0.0.9.9.I I F N * U ` W Q y # @ T ; + > @ X 0 q X ` ..! ! ^ _ W ` ` < - b M M M L J J J M l I 0.0.",
"9.9.9.9.&.&.I o.W ' E ! ` + s # @ , @ U , > ; # s + ` ~ E ~ W ..E E ! ! 5 % v b M Z J M - v 9.9.0.0.",
"9.9.9.;.e.w.O.{ E ' E f 0 q s 0   @ ; < , @ ; # s 7 w.~ ^ ..W ! ! ! ! ! ! R 1 : g g % - % J ;.2.2.0.",
"I I I J / ) { ` ` ` d s # q 0 0 @ ..< ; i @ X # d *.Y ] ..' ! ! W ! ! ! ! ! W ` ' 8 v b l J I %.9.I ",
"I I L J =.Q ` ' W , # 0 X     # X u , X         s s # q u ` ' W ! ! ! W ! W ....! ! } J M M I I L &.",
"I L L J A : < W E ! 4     0 #       +   .       s s 0 0 s Z ~ ~ ! ! ! W ..( ..! ! ! ! W X.Z L J L I ",
"J L J J ] , < W W 9 v = # s 0           q +   # s s q 0 s I F ' ` ! ! ..~ ..! ! ! W ! ! ! ! o.C Y D ",
"J J J ] U < , [ R 5 r $ e q q         + s q   0 s + # q s L I #.[ ' E ` ..! ! ! W ..W W E E U k J J ",
"J M j ` ..Q , , O # o 0 #   q         q q q   0 X   # q S L I I #.E ..` ` ' ' ' ` [ g g f h V M J Z ",
"M M ] ` W Q 2 O * *   +     0       + q s q   X     . e L L L I %.( ^ ' | { @.$.I a - - - - v M M M ",
"b g ` E Y % % % % o   #             + # q e           # J J I I +.) O.9.9.9.9.0.9.M % v J M - v b b ",
"a ` W 2 % - - - r   0 s 0                 q             o b I I -.m I 9.9.9.9.0.9.L - v M L M - l v ",
"2 U 6 % % - v - . . s q 0                 #               b L I I n m 9.9.9.9.0.9.J b v M L L l % - ",
"3 g b M - l v     e s s 0                               o L J L I S L I 9.I 9.9.;.H M - b M J M % % ",
"V K 9.I J 3 -   0 . + q 0                               p r n M n r I I I 9.9.I I J J - l b v v - l ",
"&.2.%.I 9.L *           0                             o r r M b r n L I I L J J I J J v % - - - M J ",
"I %.I I ;.2.J o                                       o M J J J J L J J J J J J J L M l % % b M J I ",
"P I I ;.2.;.;.M * o                                   r M M M M J M M M M J M M M M v v % v M M J J ",
"J L L I I %.I I v r                               o * b b M M M M b b v b v b v v v v % - b M M M J ",
"J J J J I L L L J % o                             r v b v b b v l b v v v v v v v v % % v l v M M J ",
"M J J J J J L L M - % o   # p p       e o         - l l l l l v v l v v l v l - % % % % - l v b b M ",
"M M M J J J J L M - - l v b M J l   p 9.0.L - o % - - l - - - - - - - % % % - - v b v % % l v v M M ",
"M M M M M M J M b - - - v b M M J J I 9.9.9.9.J % % % % % % - - - - - % % - - v M M J b % % l v v v ",
"v v b M M v b v l % - - l v b M J J L ;.%.9.%.I J % % % 5 l l v v v v l % l l b M J L L v % % % - l ",
"- % - - - l l l - % % - l v v M M M J J L L I I J - - l l v M M M M M v % - v M M L L I J - % % % % ",
"- l l l - % % % % % % % % - l v M M M M J J J J J - - v b M J J L J J v % % - l v M M J M v - v M v ",
"0.;.9.;.%.I I L M M v v - % % - - - v v b b b v v % - - v M J J I J v - - l M b - - - % % M 0.;.0.0.",
"0.0.0.0.0.0.0.9.;.2.9.L J b % % % - l - l - l - - % % - v v M M M v v - I ;.0.0.9.v % I l 0.0.0.0.0.",
"0.0.0.0.9.0.9.9.9.;.I I I L Z - % % % % l b M M M J M b v - - l v v - J 9.0.;.0.2.;.J % M 0.0.0.0.0.",
"0.0.0.0.9.0.;.9.9.%.I I I L J M % % M I 2.9.9.9.9.9.%.9.I I J b - % v J I I ;.I I I J v J 0.0.0.9.I ",
"0.0.9.0.9.2.2.;.%.&.I I L J J M % v I ;.0.;.9.9.9.I I %.I I I J M - M M J J J J J J M v 9.0.0.0.0.0."
};
