/* XPM */
static char *result[] = {
/* columns rows colors chars-per-pixel */
"50 50 144 2 ",
"   c #0D0415",
".  c #0F0618",
"X  c #140517",
"o  c #100816",
"O  c #110719",
"+  c #1D0619",
"@  c #140A1C",
"#  c #151515",
"$  c #16101C",
"%  c #1B161B",
"&  c #1C1C1C",
"*  c #25091C",
"=  c #2E0B1C",
"-  c #300B17",
";  c #370C1B",
":  c #3C0C1D",
">  c #2C1617",
",  c #23141A",
"<  c #29141C",
"1  c #251A1C",
"2  c #2E1D1D",
"3  c #381819",
"4  c #31211B",
"5  c #1A0C23",
"6  c #1E0F28",
"7  c #1C1521",
"8  c #1E1B20",
"9  c #240C23",
"0  c #260F28",
"q  c #2D0F28",
"w  c #360A20",
"e  c #3C0D24",
"r  c #2D1423",
"t  c #211D23",
"y  c #2D1C23",
"u  c #21112A",
"i  c #281129",
"p  c #331324",
"a  c #3A1424",
"s  c #3C1C24",
"d  c #1C272A",
"f  c #142D30",
"g  c #143135",
"h  c #232323",
"j  c #2C262D",
"k  c #2C2C2C",
"l  c #302021",
"z  c #3D2124",
"x  c #322329",
"c  c #382029",
"v  c #3C2C29",
"b  c #312B31",
"n  c #333333",
"m  c #3B3B3B",
"M  c #430F19",
"N  c #44131D",
"B  c #4B111D",
"V  c #421D1E",
"C  c #54111E",
"Z  c #5C141B",
"A  c #5C1B1E",
"S  c #621619",
"D  c #60181C",
"F  c #6A1F1C",
"G  c #41231B",
"H  c #54201C",
"J  c #6F271E",
"K  c #6D291A",
"L  c #73251A",
"P  c #77281C",
"I  c #6B301E",
"U  c #450C24",
"Y  c #4C0E22",
"T  c #500F20",
"R  c #441124",
"E  c #48172A",
"W  c #421F2D",
"Q  c #4A1B2A",
"!  c #531120",
"~  c #5A1620",
"^  c #541E26",
"/  c #5D1D22",
"(  c #4E2D21",
")  c #42272C",
"_  c #582527",
"`  c #48322A",
"'  c #50342A",
"]  c #4F2F30",
"[  c #433236",
"{  c #4B3132",
"}  c #44363B",
"|  c #443C3E",
" . c #523637",
".. c #682021",
"X. c #0A2F46",
"o. c #06364E",
"O. c #113F43",
"+. c #063A53",
"@. c #493D41",
"#. c #2E525B",
"$. c #085467",
"%. c #06566D",
"&. c #0F5B6E",
"*. c #1E5866",
"=. c #16526C",
"-. c #165F71",
";. c #255C72",
":. c #076275",
">. c #09617B",
",. c #176275",
"<. c #434343",
"1. c #4B4343",
"2. c #4A4A4A",
"3. c #812D1B",
"4. c #85301C",
"5. c #894E2D",
"6. c #9A4E2A",
"7. c #AE582C",
"8. c #046D8D",
"9. c #0D7088",
"0. c #087592",
"q. c #027A94",
"w. c #027E99",
"e. c #0B7F9B",
"r. c #167C95",
"t. c #098895",
"y. c #05819D",
"u. c #0786A5",
"i. c #098FA6",
"p. c #068DAD",
"a. c #0496AB",
"s. c #018FB5",
"d. c #0A94B4",
"f. c #0198B1",
"g. c #0293B9",
"h. c #02ADC4",
"j. c #07B4C6",
"k. c #06B9CC",
"l. c #02BFD4",
"z. c #00B5DC",
"x. c #03BDDC",
"c. c #00C3DB",
"v. c #01D7EF",
"b. c #00DBF3",
/* pixels */
"<.<.<.<.<.<.m m m m m m n n k k # n m <.<.m <.<.m m m m m n n n k & h k k k k k k k k h <.2.2.2.2.<.",
"<.<.<.<.m <.<.m m m n n n n k k h n n m m m m m m m m n n n n n k & & k k h k h k h h k <.<.<.<.<.<.",
"<.<.m m m m m m m n n n k k k h k n k n m m n m n n n n n n n k k h # & h & h h & & # n <.<.<.<.<.<.",
"m m m m m n n n n k k k k k k & n n n n n n n n n n n n k n n k k & # # # # # & & # # n m m m m m m ",
"m m n m n m n n n k k n k k h & k k n n n n n k n n n n n n k k h & # # # # # # # # # h m m m m m m ",
"n n m n n n n n n n k k k k h & k k k n n k n n k k k k k k k k h # # # # & & & & & & # n n m m n m ",
"m n n n n n n k n k k k k h # h k k k k k n k k n k k k k k h h & & & & & & & & & & h # h n m m n m ",
"n n n n n n n n k n k h h & # & h k h k k k n k k k k k h k h h # & & & & & h h h h h h # k n n n n ",
"n n n n b b n k k k h & & # # # & t h k k k h k k h j h h 1 d # & & & h h h h h k h h h & h k n n n ",
"n n n n n k k k h & & & # & & & & # & t h k h h h h t.d & & # # & & & h h h h k k k k k k & k k n n ",
"n n k n n k h & & & & # & & & h h 9.f & & & & 8 & u.&.# # # # # & h h h h k k k k k n n k k & h k n ",
"n n k k h & & & & # & & h h h k k *.,.& g O.t.O.f a.&.& 1 & & # & h h k k k k n n n n n n n h h h n ",
"k n h & & & & & # & & h h h k k n t.,.d.v.b.l.w.z.z.9.r B y & & h h k k n n n n m n m m m n n & h h ",
"h k & & & & & # # & & d k k k n n #.0.-.x.z.a.q.s.g.8.* D A # & h k k n n n m m m m m m m m n k & & ",
"& & & & & # # # & & h k k k n m m m @.m i.y.:.f.o.  . @ Y K < & h k n n n m m m <.m <.<.m m m n & & ",
"& & & & & h h # & h h h k n n m m m m m j.h.l.%.      @ 9 C N & & h k n n m m <.<.<.2.<.<.m n k h # ",
"# # h n <.<.n & # & h k k n n n m m m m k.c.$.+.    @ O 5 U T , & h h k n m m <.<.2.<.m m k k k h # ",
"h m 2.2.<.<.<.n # # & & h k n n m n n c ;.=.8.X.    . 5 @ w U U # & h h k n m | <.m n n k n k k & # ",
"2.2.2.<.<.<.<.n & # # & t h k k b n s U 0 5 X X   X + 5 0 U U T 1 # # h h k n n <.n n n k k k & h <.",
"2.2.2.<.<.<.m m k # # # # # # # # < U i +   * *   X X * U Y Z S A > & # & h k k n n n n n k h n 2.2.",
"2.<.<.<.<.m n n k & # & & & & R r i u 6   @ ; X R = + U T T Z S S Z > & & # & h k k n k & h m 2.2.2.",
"<.<.<.m m n n n v G & & 1 & 8 u u u 0 @   X * X J 3.L ~ S S S S S S S [ m n # # & & & # # n <.<.<.<.",
"m <.n m n n n ' 6.L > & h h 7 @ @ 6 O     + e * + C ~ / T Z S S S S Z A | <.k # & & h h h k <.<.<.m ",
"m n m n n n n ` I K 4 h h h h *   .         * X   ; ! Z T T Y Y Z C Z S A <.m & & & k n k k m n m m ",
"n m n n n n k k l , % h k k j Y =       O         e ! S S S S S Z ! Y Y T ^ @.j & h n m n k m n n m ",
"n n n n n k k k & % 8 k k k p N p       5     . 6 e C S S S S S S S S S C T U ) # h n m k k n n n n ",
"n n n n k k h h & & % h j x 5 u 6       5   5 6 u e ! C S S S S S S S S S D 1.<.6.5.k n h k n n n n ",
"n n k k k h h & # % & k & * @ u O       @ 6 6 6 u e Y S S S S S S S S S S D 2. .H 7.( h & h k k n n ",
"k k h k & & & # # & % $ @ +   O .         5 0 5 0 w ! S S S S S S S S S S S @.b M 3 4 & & & h k k k ",
"h h h & & & # # # # t h a =   O             . 6 5 w T S S S ! S S S S Z ! Y E b ` z # h k n & h h k ",
"& & & & # # & h h 2 3 R T = 5 5             @ 6   w ~ Z S C T Y Y Y ! ! S Z <.j <.n & h n n k & & h ",
"& & # # # & h & h s C ! U i u               5 @   A ..! U Y T C S S S S S _ <.j n n k 1 k n n & & & ",
"# & k k & & k k k k k k u 7 u                 = P 3.P A C Z S S S S S S S { m t <.n n & h k n k # # ",
"k n <.<.n & & k k k n n o o 6                   X ; T U C S S S S S S S S { m 7 m n n & & h h h & & ",
"m <.m m <.n & h k n m n 7   @                       X e U Z S Z S S S S S x h j m n n t # & & & k n ",
"m m <.n <.<.n & k n m <.n 7                             + U T ! S S S S S l j n n n k h # & h k n m ",
"n m m <.m <.<.n h h n n n k t O     X                   & y R Y Z S S S S v k k k k h h # h k n n n ",
"n n m m m m m m h h k b h h h t % U M                   h k j s Y C S S S s h h h h h # & h k k n n ",
"n n n n n m n m n # h h h h t h n [ R X     o # o       h h h h y U T S S V h h h h & # & h h k k k ",
"n n n n n n n m k & # & h k n n m m } e X   o & & @   @ & t h h h y U T Z Z & & & # # # & & h h k k ",
"k k n n n n n n k & & h h k k n n m <.| ) | h # & & & & & & & & & & & : Y B & & t h h # # & h h k k ",
"k k k k k n k n k & & & h h k k n n m <.<.<.<.n # # # # # & & & & & & & & 1 1 & k k n k # # & h h h ",
"& h k h h k k h & # & & h h h k n n m m m m | m k # # & & & & h h h h t # & h k k n n n h # # # & & ",
"& & & & & & & & & # # # & h h k k k n n m m m m n & # & h k k k k j k h # & & k b n m m n & # # # # ",
"& & & h & # # # # # # # # & & h k k k k n n n n n & & h k k n n n n n h # & & & h k k n n & & k k h ",
"2.<.2.<.m m m n k k h h & # & & & & h h h h h h h # & & h k n n m n h & # h k k & & & # # k <.<.2.2.",
"2.2.2.2.2.2.<.2.<.<.m m n k # # # & & & h & & & & # # & & h k k k h t & m <.2.2.<.h # m & 2.2.2.2.2.",
"2.2.2.2.2.<.2.<.<.m m m m n k & # # # & h h k n k k k k h h & & h h & n <.<.<.<.<.<.n & k 2.2.2.2.2.",
"2.2.2.<.<.<.<.<.<.m m m m n n k # # k m <.<.2.<.<.<.<.<.m n n k & & k n m m | m m m n & n 2.2.2.<.<.",
"2.2.2.<.<.<.<.<.m m m m m n n k & & m <.<.<.<.<.<.n m m <.m n n h & k k n n n n n n k h <.2.2.2.2.2."
};
