/* XPM */
static char *result[] = {
/* columns rows colors chars-per-pixel */
"50 50 143 2 ",
"   c #0D0415",
".  c #140517",
"X  c #110A17",
"o  c #190C17",
"O  c #100618",
"+  c #1C0719",
"@  c #150A1C",
"#  c #1B091E",
"$  c #151516",
"%  c #16111B",
"&  c #1A131B",
"*  c #1C1C1C",
"=  c #24081B",
"-  c #2C091C",
";  c #360D17",
":  c #320A1D",
">  c #3E0F1D",
",  c #221415",
"<  c #2B1516",
"1  c #24131A",
"2  c #2C141B",
"3  c #2C1B1B",
"4  c #331619",
"5  c #3B171B",
"6  c #37191A",
"7  c #1A0D23",
"8  c #0B1225",
"9  c #1C1521",
"0  c #1F1B21",
"q  c #1F1028",
"w  c #2E0B22",
"e  c #2D0F28",
"r  c #350D24",
"t  c #3C0B21",
"y  c #231E25",
"u  c #2A1D22",
"i  c #21112A",
"p  c #341324",
"a  c #3C1223",
"s  c #321923",
"d  c #361E28",
"f  c #3F1C2B",
"g  c #1C2525",
"h  c #08273C",
"j  c #232323",
"k  c #292527",
"l  c #262329",
"z  c #29252C",
"x  c #2C2C2C",
"c  c #332127",
"v  c #392525",
"b  c #31262C",
"n  c #3C232C",
"m  c #332A2C",
"M  c #3A282F",
"N  c #2F2C32",
"B  c #302F32",
"V  c #3B2E33",
"C  c #223436",
"Z  c #2C3739",
"A  c #333333",
"S  c #3B3436",
"D  c #373639",
"F  c #3F3439",
"G  c #3B3B3B",
"H  c #480E1F",
"J  c #46161C",
"K  c #4B151B",
"L  c #44181A",
"P  c #4A1A1C",
"I  c #55121E",
"U  c #5C141B",
"Y  c #54181A",
"T  c #621619",
"R  c #631C1E",
"E  c #6A1E1D",
"W  c #5B251C",
"Q  c #72241D",
"!  c #742B1D",
"~  c #7E2A1B",
"^  c #460C24",
"/  c #4C0E22",
"(  c #441226",
")  c #4C1022",
"_  c #4C1D21",
"`  c #451A2A",
"'  c #521120",
"]  c #472425",
"[  c #47252A",
"{  c #563329",
"}  c #5E312B",
"|  c #452C30",
" . c #482E39",
".. c #4D3133",
"X. c #48363E",
"o. c #413C3D",
"O. c #483E3F",
"+. c #612F25",
"@. c #742F20",
"#. c #633E31",
"$. c #5D4236",
"%. c #0A2E45",
"&. c #093B54",
"*. c #194146",
"=. c #144E5C",
"-. c #1D505C",
";. c #25464C",
":. c #135B63",
">. c #165B6C",
",. c #1C5968",
"<. c #1A6269",
"1. c #0D6279",
"2. c #434343",
"3. c #4A4A4A",
"4. c #87341E",
"5. c #984D29",
"6. c #056B84",
"7. c #096F87",
"8. c #016988",
"9. c #0A7088",
"0. c #117788",
"q. c #037190",
"w. c #097690",
"e. c #017B9D",
"r. c #23788F",
"t. c #03849C",
"y. c #0B849B",
"u. c #0B8A9F",
"i. c #138C9B",
"p. c #0496AC",
"a. c #1194A3",
"s. c #1194A9",
"d. c #0A93B5",
"f. c #009FB9",
"g. c #04A0B5",
"h. c #14A3B9",
"j. c #039AC1",
"k. c #03ADC3",
"l. c #01A5CE",
"z. c #02B5CC",
"x. c #02BBD0",
"c. c #05C6DA",
"v. c #00DDF3",
/* pixels */
"2.2.2.2.2.;.$.G G G D D A A x x $ A G G $.G ;.$.;.o.o.G G A A A A * j x x x x x x x x j 2.2.3.3.2.3.",
"2.2.2.2.o.o.;.G G D G A A A x x j A G G G G G G G D A A A A A A x * * j j x x j x j j x 2.2.$.;.2.2.",
"2.2.G o.G G o.S D A A A x A x j x A x A A G G A A D A A A A A x x j $ * j j j j * * $ A 2.2.;.$.2.2.",
"G G G D D S S A A x x B x x k * x A A A A A A A A A A A A A x A x * $ $ $ $ $ $ * $ $ A G o.o.G o.G ",
"G A D D D A A A A x x A x x x * x A A x A A A A A A A A x A x x j * $ $ $ $ $ $ $ $ $ j G G G G G G ",
"G G D S A A A A A A x x x x * * x x A x A x A x A x x x x x x x j $ $ $ $ * * * * * * $ A A G G A G ",
"A A A A A A A A A x x x x j $ j x x x x x x x A x x x x x x j j * * * * * * * * * * j $ j A G G D G ",
"A A A A A A A x x A x j j * $ * j j x x A x A x x x x x j x j j $ * * * * * j j j j j j $ x A A A A ",
"A A A A A x A x x x j * * $ $ $ * j j k k B k k x j j j j j * * * * * * j j j j j j x j j j x D A A ",
"A A A A A x x x j * * * $ $ * * $ * * g j <.C j j j j j * * $ $ * * j j j j j x x x x x x * j x A A ",
"A A A x A x j * * * * $ <.g * j j * $ * =.u.* 0 * * $ $ $ $ $ $ * j j j j x x x x A A x x x * j x A ",
"x A A x j * * * * * * * *.0.j x x ;.Z * 7.7.$ $ $ $ * * * j $ $ * j j x x x x A A A A A A A j * j x ",
"x A j * * * * * $ * * * <.6.,.1.c.v.i.d.l.w.1 2 * * * j * j * * j j x x x A A S G D G G D D A * g j ",
"j x * * * * * $ $ * j j -.t.q.z.v.k.q.l.l.j.- Q 3 j j j j j $ * j k x A A D S o.G G G G G G D k * j ",
"* * * * * $ $ $ * * j j x ;.Z a.c.6.t.8.%.%.. K Y u j x x x $ j j x A A D D G ;.$.;.2.2.;.G S A * * ",
"* * * * * j j $ * j j j x B D i.c.p.p.8       . K Y u x x j $ $ j j k A D G Z $.;.$.;.$.$.G A x j $ ",
"$ * j D 2.2.D * $ * j k x A V h.f.g.h 8     O   + / / v k * $ $ * * k x A D G 2.2.2.2.2.G A x x j $ ",
"j o.2.3.2.2.o.C $ * * * l d ^ r.a.1.=.      O 7   t / T P < $ $ $ * j j B A G o.2.G G B x x x x * $ ",
"3.3.3.3.2.2.$.Z * $ $ s ^ / ^ i 7 &.      .   7   - ^ ' T T T K L 5 2 p j x B D o.A B A B x x j j $.",
"3.3.2.2.$.;.G V c & ^ / U a i O 7 - =   = +   7   # ^ ' T T E ~ ' / / > * k x x B A A A A x * | 3.;.",
"2.2.2.2.o.G G [ U ) I T a q 7 @ 7 : = ; - . = 7   O / R I R U ' I U U T 3 $ * l x x A x * j ;.3.3.;.",
"2.2.;.$.5.+.A ` ' ' I p i 7   7 + = - : : . + 7   4 4.R E ' U T T T T T T ] , 1 5 a $ * $ A $.;.3.$.",
"G o.o.} W R d ^ / / e i q   O i w ' : = =   . 7 + W _ ( / / T T U T T T T T U / ) 5 j k j A o.G $.;.",
"G S S m @.> ( / U / 7 7 i O @ i w w =       . 7 O O i i r ^ ' U U T T T T U ' ' T T _ A k x G G Z $.",
"G D D A v - H U ' T 4   X   O O               7 @ 7 q i i b R R U T T U I Q I T T T T U ] m G A D D ",
"A A A A ` = > U T 6 k @     O q       @   O   @ 7     O q A V / / U T U U I T T T U T T T U [ n ( A ",
"A A B ( / - > / K $ 9 7     q i O   O 7   7 @ O i       7 A G F ( / ' ^ ) U T T U ' U U U I H ` B A ",
"A B c ( ' ; : : 1 % 7     O @ @ 7   7 @   @ q   i 7     z D D G  .I ' / ) / ) / ^ ^ a a p s x x A B ",
"B k ( / U Y & . o 9             @ . 7     7 q O @ 7   & A D G G o.Q E / ) `  .X.o.u * * * * j x x x ",
"j a ^ I J $ $ $ $ X   O         7 @       @ i 7   7   @ B D G G } @.| ..2.2.2.3.2.x $ j B x * j k j ",
"j / U 4 $ $ * y y 7   O O         O         O 7         X l D G #.l D 2.2.2.2.3.3.D * j B D x * * j ",
"1 / 4 $ $ * j * i O   O q                     7           k D G G k z 2.2.2.2.2.2.D k * x A D * * * ",
"1 a k k * j g i q     O i X                   O         O A D D G x G G 2.2.2.2.;.| x * j x A x $ * ",
"b S ;.$.A * y . 7     O i 7                             0 A A D D j z G G o.G G G D A * j j j j * * ",
"G 2.o.G o.D * X X       7                               0 j z x z 0 A G G G A A G A A j $ * * * x A ",
"G G G G ;.$.D                                         @ B l y * 0 A A A A A A A A A x j $ $ j x A G ",
"G G G o.o.2.G X                                       O x x x B B x x B B x x x x A j * $ j x A A A ",
"A D D G G G G j   O $ X                               X j x x k x x j j k j j j j j j $ * k x x x A ",
"B A D D D D D G 0 $ j 0         . %           X o X X 0 k j k j j g j j j j j j j j * $ * j j k x A ",
"x B A A A A A G B * $ * @       u ;.N %     X * * * j * * g j j g 3 j j j * j * $ $ $ $ * * j x j x ",
"x x x A A A A A x * * j j @   & A G 2.$.g g g $ * * * * * * * * * * * $ $ $ * * j j j $ $ j j j x x ",
"x x x x x x B B k * * * j j x B A G G o.3.;.$.m $ $ $ $ $ * * * * * * * $ $ * j x x x x $ $ * j j j ",
"j j x x x j k j g $ * * j j k x x A G G O.o.;.o.x $ $ * * * * j j j j * * * g j x A G A j $ $ $ * g ",
"$ * * * * * * * * $ $ $ * g k k x x A A S G o.o.D * * * j j x x x x x j $ * j k x A D G A * $ $ $ $ ",
"* * j * * $ $ $ $ $ $ $ $ * * j j x x A A D A A A * * j x x A A D A A j $ $ 3 j j x x A x j * j x j ",
"3.2.;.$.o.G G D x x j j * $ * * * j j j j j j j * * * * j x B D D A j * $ j x k * * * $ $ x $.3.3.3.",
"3.3.3.3.3.3.2.;.$.;.o.D D j $ $ $ * * * * * * * * $ $ * * j k x x j * * o.2.3.3.$.g $ G j 3.;.3.3.3.",
"3.3.3.3.3.2.3.$.2.2.G G G D x * $ $ $ * * x x A x x x k j g * j j j * D ;.$.3.;.$.;.A * x 3.3.3.3.2.",
"3.3.3.3.2.2.2.2.2.G G G G G A x $ $ x G 2.;.$.3.$.o.;.$.Z D A j * * k A G G 2.o.G G A j A 3.3.3.2.2.",
"3.3.2.3.2.2.;.$.o.o.G G A A B x $ j G 2.2.2.2.2.;.G o.O.G G G D x $ x x A A A A A A x * 2.3.3.3.3.3."
};
