/* XPM */
static char *result[] = {
/* columns rows colors chars-per-pixel */
"50 50 151 2 ",
"   c #0D0415",
".  c #0C0A1C",
"X  c #130517",
"o  c #110B17",
"O  c #110619",
"+  c #1D0619",
"@  c #140A1B",
"#  c #151515",
"$  c #1C1414",
"%  c #16111B",
"&  c #19141C",
"*  c #1C1C1C",
"=  c #210718",
"-  c #26091B",
";  c #2B091B",
":  c #3C0E17",
">  c #330B1D",
",  c #390B1E",
"<  c #221617",
"1  c #27171D",
"2  c #29101A",
"3  c #241A1B",
"4  c #2B1D1D",
"5  c #3A1516",
"6  c #34101D",
"7  c #3B121D",
"8  c #371D1E",
"9  c #391A1B",
"0  c #0C0E20",
"q  c #170B20",
"w  c #1B0D24",
"e  c #1E1125",
"r  c #1E1B21",
"t  c #2E1720",
"y  c #211D25",
"u  c #2C1D23",
"i  c #21112A",
"p  c #301721",
"a  c #3E1123",
"s  c #361E25",
"d  c #3B1F2B",
"f  c #232323",
"g  c #272329",
"h  c #2A252B",
"j  c #2C2C2C",
"k  c #352325",
"l  c #312328",
"z  c #342B2F",
"x  c #3F2D2D",
"c  c #3D322E",
"v  c #2E2C31",
"b  c #3F2530",
"n  c #332F32",
"m  c #223436",
"M  c #243A3E",
"N  c #333333",
"B  c #3B3435",
"V  c #3B3639",
"C  c #3B3B3B",
"Z  c #440E1D",
"A  c #4D0F1E",
"S  c #4B1419",
"D  c #4F1A19",
"F  c #56121E",
"G  c #5B141C",
"H  c #621619",
"J  c #651B1D",
"K  c #562019",
"L  c #60261D",
"P  c #68231A",
"I  c #6E331D",
"U  c #460C24",
"Y  c #4C0E22",
"T  c #510F20",
"R  c #441226",
"E  c #4D1223",
"W  c #471A24",
"Q  c #461528",
"!  c #421D2C",
"~  c #521920",
"^  c #5E1C20",
"/  c #631D21",
"(  c #442126",
")  c #4C2426",
"_  c #44222C",
"`  c #532524",
"'  c #5B2023",
"]  c #58292B",
"[  c #4A3027",
"{  c #422731",
"}  c #413737",
"|  c #4E3334",
" . c #463A37",
".. c #4E3832",
"X. c #443139",
"o. c #463B3C",
"O. c #4C3B3B",
"+. c #523233",
"@. c #713221",
"#. c #7D3521",
"$. c #7B3D26",
"%. c #643F33",
"&. c #6B4737",
"*. c #744B37",
"=. c #7C4C34",
"-. c #082C43",
";. c #193E41",
":. c #164448",
">. c #1A4957",
",. c #20444F",
"<. c #074C68",
"1. c #065A77",
"2. c #185D75",
"3. c #146169",
"4. c #04617B",
"5. c #166B73",
"6. c #434343",
"7. c #484543",
"8. c #4A4A4A",
"9. c #822E1B",
"0. c #8B3C1F",
"q. c #943B1D",
"w. c #8C4024",
"e. c #BD6935",
"r. c #0A738A",
"t. c #177287",
"y. c #147D8C",
"u. c #007697",
"i. c #057D97",
"p. c #017999",
"a. c #0A8895",
"s. c #0180A3",
"d. c #1984A6",
"f. c #1483A8",
"g. c #0A92A4",
"h. c #1695A2",
"j. c #0291B5",
"k. c #0498B1",
"l. c #0394B9",
"z. c #0AA0AF",
"x. c #00A2BD",
"c. c #009BC2",
"v. c #06ADC6",
"b. c #03A6C9",
"n. c #07ADCC",
"m. c #0BB2C5",
"M. c #02B3CA",
"N. c #00A7D0",
"B. c #01ADD2",
"V. c #00B0D6",
"C. c #00DFF5",
/* pixels */
"6.6.6.6.6.O.O.6.C C C B N N j j # N C 6.6.6.C 6.C 6.C C C N N N j * f j j j j j j j j f 6.8.7.8.6.6.",
"6.6.6.6.C ,.C C C C C N N N j f f N N C C C C C C N N C N N N N j * f f f j j j j f f j 6.6.6.8.8.6.",
"6.C 6.C C C C V N N N N j N j f j N j N N C C N N N N N N N N j j f # * f f f * * * # N 6.C 6.7.6.6.",
"C C C V C V N N N j j j j j j * N N N N N N N N N N N N j N N j j * # # # # # # # # # N C C 6.C C C ",
"C N C N N N N N N j j N j j j * j j N N N j N N N N N j N j N j j # # # # # # # # # # f N C C C C C ",
"C C N C N N N N N N j j j j * r j j N j j N j N j N j j j j j j f # # # # # * * * * * # N C C C C N ",
"N N N N N N N N N j j j j f # f j j j j j j N j j j j j j j j f * * * * * * * f * f * * f N N C N N ",
"C N N N N N j N j N j f f * # * f j f j N j j N N j j j f j f * # * * * * * r f f f f f # j N N N C ",
"N N N N n j N v j j f * * # # # * f f f j v f j j j j j * f * * # * * * f f f f j f f j f f j N N N ",
"N ( N N N j j j f * * * # * * * # # f f f M m f * * * * * * # # * * f f f f f j j [ j j j * f N N N ",
"N D ( j N j f r * 3 * # :.* r y f f # * ;.z.* * * * * # # # # # * f f f j j j j j 0.c j j j * f j N ",
"n F F W a p * & 3 9 * * 3.5.f j j j j * a.a.# # # * * * * * * # * f f j f N j N c q.) N N N f r f j ",
"s Y Y U Y U U a 7 S * f 5.g.M >.h.v.t.t.v.r.# * * * * 3 * * * * y g j z z z ! R S J F _ C B N * f f ",
"U U Y U H H T Y Y E p u y.p.j.x.C.M.p.b.V.l.2 P 8 f f f j f * I k h s R U U U T T / E U ! V V f # f ",
"U T T U T H ^ H T U U U d 2.,.m.C.i.4.s.1.1.+ J 9.k f j j j # L ^ U U U U F G H F U Y T U Q B N * f ",
"Y H H T T H H H T Y G G U R _ 2.k.<.c.-.      X F H u j j f 7 D H T G H F H H H H U T H G U R h f # ",
"Y H H H U G H H Y A F G H Y U f.l.B.-.0     O   + A G l g a U F U U H G H G H H H U G H H H T U j # ",
"G F H H Y F H H Y T H G H H H d.b.4.<..   O w i   ; G G F U G H F U G G H H H H H U G H H H H T 7 # ",
"H H H H G Y H H T G S 5 y g g e w 1.      X O i w   6 U T F G H H F U H H H H H H U H H H G H H F ( ",
"G ] +.O.o.{ V B k $ # # % w q e - Z +   - >   w i q @ 2 < < 3 s G G T F H H H H H U H H H H H H H E ",
"7.6.6.6.=.w...N j # # * w O w i , > ; , = = ;   i i O # # * * * * 3 9 U H 5 4 k W U H H G D P H H H ",
"6.6.o.o.w.D ) N j * * * O w e i X > ; F Z + =   w i w e # * * * * * N { Q j # # 1 a < 3 # N ,.o.| ' ",
"C C C B K @.l N j # e w @ w e i = S , - , + -   q i w w # # * # v C C C X.C j # # 1 f f f N C C 6.C ",
"C C V N N g g j f * q   O O   q > U - X +       @ i i w & # f V C C 6.6.6.7.C 3 * 3 h N j j o.C V C ",
"C N N N N g r j f * f f o   O     = ; O O       X i i w i n V V C 6.6.6.6.7.,.k # f j C j j C N V V ",
"V N N N N f r j r * f f o O w q     O   w q     @ i i w i V C C C 6.&.&.7.7.8.V * f N C N j N C C N ",
"N N N N v f r r # * f g @ w i q       q w e     @ i i w e N C C 6. .#.e.%.7.8.6.j f j N f f N N N N ",
"N j j j f f f . % & r % @ O q q     O w i w     w i i w i C N C C V : D | 7.8.8.N # f j * f j j N j ",
"j j j f f * * # # %   @       O     O e i w @   w q e w g N C C C g u $.O.7.8.8.6.4 # * # * f f j j ",
"f f f * * * # # * o   q             O q w w q O     q q v V C C 6.v 6.6.7.7.,.8.,.c # f N j f f f j ",
"f * * * # # * f r   q i q               O w @       O O v V N C C j j 7.7.7.7.8.7.N * f N N j * * f ",
"# # # # # * f * r   e i q                 q           . v N N C C f V C 6.7.6.7.7.N j f j N N f # * ",
"# * j f * * f r o q i i w                               & N V V V f v 6.,.7.O.6.6.N N * f j j j # # ",
"v C C 6.N * f o   w O @ i O                             . h v j f r C C C C 7.6.B N N * * j j f * * ",
"C 6.6.C 6.N *   O       w                               o r f f r v N C C C N N C N N * # * # * j N ",
"C C C C 6.6.N o         @ O                           o j v N N n N N N N N N N N N j f # # j j N C ",
"C C C C 6.C C f o o       O                           o j j v v v v j j N j j j j j j * # f j j N N ",
"N N C C C C C C f *                               % r f j j f j j j f f f f f f f f f # * f j j j N ",
"N N N N C C N C n # %                             r j j f f f f f f f f f f f f f * * # f * f j j j ",
"j N N N N N N C n * %     O y g o     o *         * * * r f f f r f f f f f * * * # # # * * f j j j ",
"j j j N N N N N j * * * r f j N r     N 8.N %   # * * * * * * * * * # # # # * * f j f # # * f j j j ",
"j j j j j N N j h # * * f f j j N j n C 7.,.6.v # # # # * # * * * * * * # * * f j j j j # # * * f j ",
"f f j f f f f f f # * * f f j j j N C C O.6.6.C N # # # * f * f f f f f # * * f j N N C f # # * * * ",
"# * * * f * f * * # # # * f f h j j N N V V V C V * # * f f j j j j j f # * f j j N N C N # # # # # ",
"* * * f * * # # # # # # # * * f j j j j N N N N N # * f j j N N B N N f # # f f j j j j N * * j j f ",
"8.8.7.,.C C C N j j f f * # * * * f f f f f f f f # * f f j N N C N f * # f j f * * * # # j 6.7.8.8.",
"8.8.8.8.8.8.6.7.,.O.C C N j # # # * * * f * * * * # # # * f j j j j * *  .7.8.7.C j # C * 8.8.8.8.8.",
"8.8.8.8.7.7.7.6.7.7.C C C N j * # # # # f f j N j j j j f * * f f f * N 7.,.7.6.6.6.N * j 8.8.8.8.8.",
"8.8.8.8.7.7.6.6.6.6.C C C N N j # # j C 6.6.6.6.6.C 6.6.C C N f * # j N C C C 6.C C N f N 8.8.8.6.6.",
"8.8.7.7.7.7.6.C C C C V V N N j # f C 6.6.6.6.6.6.C C C C C C N f * j j N N N N N N j * 6.8.8.8.8.7."
};
