/* XPM */
static char *result[] = {
/* columns rows colors chars-per-pixel */
"50 50 152 2 ",
"   c #0D0415",
".  c #130517",
"X  c #110B16",
"o  c #110719",
"O  c #140A1C",
"+  c #161616",
"@  c #1C1616",
"#  c #17131A",
"$  c #19141C",
"%  c #1C1C1C",
"&  c #240917",
"*  c #220719",
"=  c #250919",
"-  c #2B091B",
";  c #350C1C",
":  c #3E0D1C",
">  c #2A1515",
",  c #23141A",
"<  c #2A151C",
"1  c #221B1E",
"2  c #2C181E",
"3  c #361716",
"4  c #31131F",
"5  c #170B20",
"6  c #1B0D23",
"7  c #1C1322",
"8  c #1C1A20",
"9  c #1F1128",
"0  c #091F34",
"q  c #340D23",
"w  c #3B0E26",
"e  c #201C24",
"r  c #2D1D25",
"t  c #21112A",
"y  c #24192A",
"u  c #3A1222",
"i  c #321F24",
"p  c #3C1826",
"a  c #361F28",
"s  c #3B1E2A",
"d  c #232323",
"f  c #2B2324",
"g  c #27222A",
"h  c #2A252B",
"j  c #202E2F",
"k  c #2C2C2C",
"l  c #372122",
"z  c #3C2627",
"x  c #32222A",
"c  c #3A242D",
"v  c #322D2E",
"b  c #3D2F2F",
"n  c #2F2A31",
"m  c #3E2C33",
"M  c #333333",
"N  c #3B3B3B",
"B  c #430F1B",
"V  c #401617",
"C  c #40121C",
"Z  c #421D1C",
"A  c #491B1C",
"S  c #55111E",
"D  c #5B141C",
"F  c #5A191B",
"G  c #621619",
"H  c #611C1E",
"J  c #6C1F1C",
"K  c #592119",
"L  c #65261C",
"P  c #6D201C",
"I  c #72271E",
"U  c #772B1C",
"Y  c #7A321D",
"T  c #460D23",
"R  c #4C0E22",
"E  c #500F20",
"W  c #441225",
"Q  c #4C1421",
"!  c #451E26",
"~  c #46172A",
"^  c #441B2C",
"/  c #521121",
"(  c #591620",
")  c #541F22",
"_  c #5D1C20",
"`  c #442526",
"'  c #4D2325",
"]  c #412926",
"[  c #4F2628",
"{  c #572C21",
"}  c #542728",
"|  c #55292B",
" . c #43302A",
".. c #5A382E",
"X. c #4D2E32",
"o. c #433339",
"O. c #523334",
"+. c #6B3024",
"@. c #7B3C24",
"#. c #653F30",
"$. c #46403F",
"%. c #5B4338",
"&. c #6C4735",
"*. c #083048",
"=. c #453F42",
"-. c #4B3D43",
";. c #503B41",
":. c #2F5357",
">. c #21575D",
",. c #065066",
"<. c #085467",
"1. c #065774",
"2. c #065C7A",
"3. c #1F5B74",
"4. c #12717A",
"5. c #39636F",
"6. c #366271",
"7. c #434343",
"8. c #4A4A4A",
"9. c #414452",
"0. c #40525E",
"q. c #425861",
"w. c #9D4928",
"e. c #864E30",
"r. c #B66031",
"t. c #056684",
"y. c #187781",
"u. c #11728B",
"i. c #057495",
"p. c #027992",
"a. c #137992",
"s. c #267489",
"d. c #307D89",
"f. c #00819D",
"g. c #13939F",
"h. c #0B8AA9",
"j. c #1487A7",
"k. c #198FAA",
"l. c #109DAA",
"z. c #1C9CAF",
"x. c #0291B6",
"c. c #0697B9",
"v. c #009BC2",
"b. c #03B5C7",
"n. c #07BDCF",
"m. c #00B2DD",
"M. c #01BADB",
"N. c #00C0D8",
"B. c #00CAEA",
"V. c #00D0E7",
"C. c #00D2EE",
"Z. c #01DBF1",
/* pixels */
"7.7.7.7.7.7.7.N N N N N M M k k + M N N 7.$.:.$.N N N N N M M M v % d k k k k k k k k d $.8.8.8.8.7.",
"7.7.7.7.N N N N N N M M M M k k d M M N N N  .N N N N M M M M M k % % d k k k h k d d k $.$.$.7.7.7.",
"7.7.N 7.N N N N M M v M j v k d k M v M M N N M M M M M M M v v k d + % e d d d % % + M :.o.$.$.:.$.",
"N N N M N M M M M M k M k k k % M M M M M M M M M M M M k M M k k % + + + + + + + + + M N N 7.N o.N ",
"N N N M M N M M M k k k k k d % k M M M M k M M M M M k M k M k h + + + 3 3 + + + + + k M N N N M N ",
"M M N M M M M M v M v v k k % d k k M k k M k M k M k M k k k k d + + + P Z % % % % % + M M N N N N ",
"M N M M M M M c ` n k k k d + d k k k v k k M k k M k k k d d d + % % % Y Z % % % d % + d M N N M N ",
"M M M M M M v ` F k k d d % + % d d d j M k k M k k k d k k d d + % % < I A 1 d d d d d + k M M M M ",
"M M M M M k M W S i d % % + + + % % d k k k d d k d k d d d % % + % e ( P P T g d d k d d e k M M M ",
"M M M M M k v S S W % % + + % % % % % % d h d d d d % % % % + + % < E E R R T T h k k k k d d k M M ",
"M M v M v k p T T T 4 + % d % d d % % % % d % d % + % + + + + + r G D G S E E T T c v M k k % d k M ",
"k M v j d 1 T D T / T 1 e d d k k k k % + + + + + % % % d % + 1 ( D G G D R G G S T ! M M k d e d v ",
"k M d % % u D D T D S u d h k n M M M k d + + % % % % d % d > T S G G G G T D G G D R T  .M M % d d ",
"d k % % < R D G T G G R i k M M N N N N d % + % % d d d d r T D S G G G G R / G G S D D T m M n % d ",
"% d % 1 T G D G T G G E W v M M N N 7.N h d % % d d d k x T D G D G G G D R R G G S G G D R m M % % ",
"% % % 4 D G G G T G E D E c M N N 7.N M >.j % d d { ] l T D G G G G G G G D R G G D G G G G S x d + ",
"+ % i Q G G G G T G G -.( T ] M N N N :.l.e % d d k H / D G G G G G G G G G R D G G G G H ] k p k + ",
"d N ^ H G G G G T G G q.q.E ( M N M M g.y.% % e d d / F / G G D G G G G G G S D G G G ' k M k k % + ",
"8.-.o.O.} G G G T G G 6.z.=.s.a.m.y.g.N.4.+ $ % % 1 T S T / S D G G G G G G D E G D b M k k k % d $.",
"8.8.8.8.o.H G G T G ( d.Z.Z.B.C.x.f.N.V.b.= D F + @ S D D T S G G G G G G G G D G b M M M k % N 8.8.",
"7.7.7.7.7.N } D / G G / 5.-.k.M.t.t.p.,.<.  q P C ; R G G D T S G G G G G G G S z v M k d d N 7.8.8.",
"7.7.7.N M N M Q / G ( / G H 3.i.2.x.0     6 6 T G R S G G G D T S G G G G F 3 T + d + + + k 7.7.$.$.",
"N N N M M M M c W D / D F A j.c.x.*.    X   6 t T T S D D G G G R D G F | o.k < + % d k d k $.7.7.N ",
"N N N M M M k c f < w a d d h.c.,.1.    o 6 O 6 w T G G G G G G G Q D } 7.8.N @ % d d M h k N N N N ",
"N M M M M b v k d % d d k k g t 1..     . 6 6 O t r > > 2 ' } F K F Q X.7.7.=.k + d k N M k N M M N ",
"N M M M e.&. .h % % d h k k t q D & . ; - O t O t $ + % v M N N N 7.o.~ 7.8.8.N % k M N k k M M M M ",
"M M v v Y U l d % % d k d t 5 q - - ; * - - t 6 5 9 + k M M N N N 7.7.7.7.8.8.7.d d k M d k M M M M ",
"v v k k Y L f % + e y t t 6 . . - - D B * - 6 t O 9 d M M N M N N N 7.7.7.8.8.7.M % d d % d k k M M ",
"k k d d f # + + $ 9 6 t 9 .   * F : - w . = 5 t o 9 v M N N N N 7.7.7.7.7.8.8.8.N d % % % % d k k k ",
"d d d d % + + + 7     O o     - B - . .     6 t 9 5 h M M M N N N N 7.7.7.7.7.7.$.M + d k M % d d j ",
"d % % + + X % d d %         o   = -   o o o t t 9 o y M M N M N %.&.$.$.:.$.8.8.8.N % d M M k % % d ",
"+ % + + + X % % d h 8 o   o 5       o t o 9 t t t o y v M M M N w.r.&.$.$.$.7.7.$.M d % k M M % % % ",
"+ % d k % % $ 8 e h y 7 o 9 5 o o 5 9 t . 9 t t t 5 t n M M M M ! K ` N $.:.o.$.7.k k % k k k k + + ",
"k N o.:.M d 8 8 8 X 5 9 t 9 o o 5 t t 6 5 t t t t 6 t h M M M j r +...N N N $.$.N M M % % d d k % % ",
"N 7.o.o.7.M % f 7     o 5 5 5 9 t t t o 9 6 t t 6 6 t y k M M d h M N N N N M M 7.k M d + % % % k M ",
"N N 7.N o.7.M @   O o   o o 5 o 6 6 9 o 9 5 t t 6 9 t y n v n d k M M M M M M M M M k d + % d k M M ",
"M N 7.N 7.7.:.< o 9     o         9 O o o o o 5 6 6 # k k k k 8 g k k k M k k k k k k % + d k k M M ",
"M M M 7.N N N h 9 5             5 5 o           5 o X k k h d 8 k k d d k d d d d d d + % d k k M M ",
"M M M M M M k t 9 5             5 o                 8 k d d 8 8 d d d d d d d d d % % + d % d k k k ",
"k M M M M M 7 6 9 5             o                   8 8 $ 8 # e d d 1 d e d % % % + + + % % d k k k ",
"k k k M M M #   5 5                                 X X + + % % % % % + + % % % d d k + + % d k k k ",
"k k k k k k d   . O                                 + + + + % % % % % % + % % d k k k k + + % % d j ",
"d d d k h d k % o                           O X X X % + % d d d d d d % + % % d k M M M d + + + % % ",
"+ % % % % d % % $ o X X o                   8 N M % + % d d k k k k k d + % d k k M N N M % + + + + ",
"d d % d % + + + + + + + +                   h k M % % d k k M M M M M d % + % d d k k M k d % k k d ",
"7.7.7.N 7.o.N M k k f d % X       % +       e d d + % % d k k M N M d % + d k d % % % + + k $.7.8.8.",
"8.8.8.8.8.8.$.:.$.7.o.b M k +   X + % % # + d % % + + % d d k k M d % % N 7.8.8.$.k + N d 8.8.8.8.8.",
"8.8.8.8.8.$.$.7.7.7.:.M N M k + + + + % e d k v k k j k d % % d d d % M 7.7.7.7.$.N M + j 8.8.8.8.7.",
"8.8.8.7.7.7.7.7.$.7.N N N M M k + + k N 7.7.:.$.$.7.7.7.N M M d % + k M N N N 7.N M M d M 8.8.8.7.7.",
"8.8.8.8.7.7.:.$.o.o.N M N M M k % % N $.7.$.$.$.$.N N N N N N M d % k k M M M M M M M % 7.8.8.8.8.8."
};
