/* XPM */
static char *result[] = {
/* columns rows colors chars-per-pixel */
"50 50 240 2 ",
"   c #1E1006",
".  c #1E110B",
"X  c #1F1315",
"o  c #201106",
"O  c #221207",
"+  c #231307",
"@  c #231308",
"#  c #241408",
"$  c #261509",
"%  c #271509",
"&  c #281609",
"*  c #2A170A",
"=  c #2D190A",
"-  c #2E1A0B",
";  c #311C0C",
":  c #331D0D",
">  c #361E0D",
",  c #201419",
"<  c #2D141A",
"1  c #2E241C",
"2  c #3D2310",
"3  c #37271B",
"4  c #211625",
"5  c #321421",
"6  c #301E26",
"7  c #372F22",
"8  c #34262C",
"9  c #3A322D",
"0  c #38382D",
"q  c #3C3A2E",
"w  c #4C3729",
"e  c #503B2C",
"r  c #44293D",
"t  c #712334",
"y  c #46413D",
"u  c #564337",
"i  c #584639",
"p  c #231B40",
"a  c #291E42",
"s  c #251E53",
"d  c #261F55",
"f  c #2E1E57",
"g  c #331E59",
"h  c #341E59",
"j  c #381E5B",
"k  c #352747",
"l  c #3A2A44",
"z  c #3B2A44",
"x  c #29225A",
"c  c #2B235C",
"v  c #2C245D",
"b  c #302654",
"n  c #332E56",
"m  c #3B225C",
"M  c #342A5B",
"N  c #2E2762",
"B  c #322A67",
"V  c #32226D",
"C  c #332B6A",
"Z  c #362E6E",
"A  c #383070",
"S  c #3A3274",
"D  c #3B3377",
"F  c #3C3375",
"G  c #3F367A",
"H  c #411E5F",
"J  c #5C2352",
"K  c #4A1F63",
"L  c #531F67",
"P  c #5D1F6B",
"I  c #611F6D",
"U  c #661F6F",
"Y  c #6A1F71",
"T  c #6F1F73",
"R  c #652163",
"E  c #6B2F6E",
"W  c #722076",
"Q  c #742278",
"!  c #7A257E",
"~  c #7A2D78",
"^  c #3A6060",
"/  c #396C70",
"(  c #397379",
")  c #4E4B48",
"_  c #6F6158",
"`  c #764779",
"'  c #7C4A7E",
"]  c #80363A",
"[  c #87403C",
"{  c #833676",
"}  c #864648",
"|  c #855C5E",
" . c #8D466F",
".. c #834978",
"X. c #A25D72",
"o. c #83766D",
"O. c #9D766B",
"+. c #877A72",
"@. c #967177",
"#. c #98727D",
"$. c #AC6E6A",
"%. c #A07062",
"&. c #A27365",
"*. c #A37967",
"=. c #A17669",
"-. c #A57668",
";. c #AB796A",
":. c #AC7B6D",
">. c #AB7C6F",
",. c #AE7D6F",
"<. c #B1706F",
"1. c #AC637C",
"2. c #AB7375",
"3. c #AC7971",
"4. c #AF7E70",
"5. c #AF7F71",
"6. c #BB767A",
"7. c #B3825D",
"8. c #BB8A6D",
"9. c #AF8173",
"0. c #AA8D7C",
"q. c #B38577",
"w. c #B28B74",
"e. c #B3887B",
"r. c #AC987F",
"t. c #BE9A76",
"y. c #CA9566",
"u. c #CA9F7C",
"i. c #CCAE7A",
"p. c #3E2983",
"a. c #3E3080",
"s. c #46328F",
"d. c #432790",
"f. c #442B91",
"g. c #472899",
"h. c #492A9C",
"j. c #4B3A91",
"k. c #59389D",
"l. c #4C2CA0",
"z. c #4E2EA3",
"x. c #5130A6",
"c. c #5332A9",
"v. c #5634AD",
"b. c #5836AF",
"n. c #5836B0",
"m. c #5B39B3",
"M. c #5F3DBA",
"N. c #613EBC",
"B. c #387F88",
"V. c #795688",
"C. c #745192",
"Z. c #7E599F",
"A. c #6A47A6",
"S. c #7853B9",
"D. c #6441C0",
"F. c #6743C3",
"G. c #6945C7",
"H. c #6C47CA",
"J. c #6E49CD",
"K. c #7752C5",
"L. c #842B89",
"P. c #892D8E",
"I. c #8E3B81",
"U. c #8C2F91",
"Y. c #8F3093",
"T. c #8C3891",
"R. c #913296",
"E. c #933398",
"W. c #943399",
"Q. c #96349B",
"!. c #96359B",
"~. c #99369E",
"^. c #98418C",
"/. c #92699E",
"(. c #AB7E84",
"). c #A37F9E",
"_. c #855FB9",
"`. c #946BA2",
"'. c #9C74A5",
"]. c #926AB2",
"[. c #A47AA5",
"{. c #C17980",
"}. c #3795A5",
"|. c #36ACC3",
" X c #33DAFF",
".X c #7BD6DF",
"XX c #71EAFD",
"oX c #7AECFC",
"OX c #878383",
"+X c #8D8989",
"@X c #918781",
"#X c #9D9A9A",
"$X c #A48387",
"%X c #B08F86",
"&X c #BB8F82",
"*X c #A0998A",
"=X c #B79587",
"-X c #B9988B",
";X c #AB8397",
":X c #B38A90",
">X c #B28D91",
",X c #B08C94",
"<X c #A99691",
"1X c #A49D99",
"2X c #A79D9B",
"3X c #B19F9A",
"4X c #B59A9D",
"5X c #AFA194",
"6X c #B8A493",
"7X c #B9A49A",
"8X c #B69DA1",
"9X c #A7A4A4",
"0X c #ADA3A1",
"qX c #AFA6A4",
"wX c #BBA3A7",
"eX c #BEA8A2",
"rX c #BAA9A4",
"tX c #B5ADAB",
"yX c #B8AFAE",
"uX c #B9B3B0",
"iX c #BFB8B7",
"pX c #BEBCBC",
"aX c #C9AE9C",
"sX c #C3AAA3",
"dX c #C0ACAC",
"fX c #C7B2AC",
"gX c #C0B4B1",
"hX c #C2BFBF",
"jX c #CEBEBA",
"kX c #C4C3C3",
"lX c #C9C2C1",
"zX c #C9C7C7",
"xX c #CEC8C7",
"cX c #D0CECE",
"vX c #D4CECD",
"bX c #DCDBDB",
"nX c #C1FFFA",
"mX c #E2E1E1",
"MX c #E9E9E9",
"NX c None",
/* pixels */
"NXNXNXNXNXNXNXNXNXNXNXNXnXoXNXNXNXNXNXNXNXNXNXNXNXNXNXNXNXNXNXNXNXNXNXNXNXNXNXNXNXNXNXNXNXNXNXNXNXNX",
"NXNXNXNXNXNXNXNXNXNXNXnX.X XNXNXNXNXNXNXNXNXNXNXNXNXNXNXNXNXNXNXNXNXNXNXNXNXNXNXNXNXNXNXNXNXNXNXNXNX",
"NXNXNXNXNXNXNXNXNXNXNXXXB.( / NXNXNXNXNXNXNXNXNXNXNXNXNXNXNXNXNXNXNXNXNXNXNXNXNXNXNXNXNXNXNXNXNXNXNX",
"NXNXNXNXNXNXNXNXNXNX^ }.|.2 2 NXNXNXNXNXNXNXJ.J.J.J.NXNXNXNXNXNXNXNXNXNXNXNXNXNXNXNXNXNXNXNXNXNXNXNX",
"NXNXNXNXNXNXNXNXNXNX^  Xq 2 : NXNXNXNXNXNXJ.J.J.J.J.J.J.NXNXNXNXNXNXNXNXNXNXNXNXNXNXNXNXNXNXNXNXNXNX",
"NXNXNXNXNXNXNXNXNXNX7 }.0 : NXNXNXNXNXJ.J.J.J.).-X,X].J.J.NXNXNXNXNXNXNXNXNXNXNXNXNXNXNXNXNXNXNXNXNX",
"NXNXNXNXNXNXNXNXNXNX& 2 O NXNXNXNXNXJ.J.J.J.:X0.O.*.7.[.J.NXNXNXNXNXMXMXNXNXNXNXNXNXNXNXNXNXNXNXNXNX",
"NXNXNXNXNXNXNXNXNXNXNX>   NXNXNXNXJ.J.J.J.).aXrX=.*X%Xr.J.J.NXNXNXNXOXkXMXOXmXNXNXNXNXNXNXNXNXNXNXNX",
"NXNXNXNXNXNXNXNXNXNXNX2 NXNXNXNXJ.J.J.J.(.aX%.gX&X&X&X} 8.K.NXNXNXzXkX#XpX+XbXmXNXNXNXNXNXNXNXNXNXNX",
"NXNXNXNXNXNXNXNXNXNXNX= NXNXNXNXNXn.J.'.] 4X<XsXe.fXjXdX[ `.J.e i u 1XuXhX9XcX@X3 NXNXNXNXNXNXNXNXNX",
"NXNXNXNXNXNXNXNXNXNXNX; NXNXNXNXNXl.G.;Xt 8X0X3XeXvXtXiXt 3.J.> > > > w +.o._ %   NXNXNXNXNXNXNXNXNX",
"NXNXNXNXNXNXNXNXNX&X9.>.-.NXNXNXNXNXg.x.3.7X0X2X2XyXxXvXwX3.J.> #     * * ; *   NXNXNXNXNXNXNXNXNXNX",
"NXNXNXNXNXNXNXNXNX&X9.>.&.NXNXNXNXJ.N.l.A.$X=X5X2X2XqXlX6X/.D.> #       o = O   NXNXNXNXNXNXNXNXNXNX",
"NXNXNXNXNXNXNXNXNX&Xe.q.q.NXNXJ.J.J.J.G.D.z.z.>Xi.2X2X2Xt.k.NX> #       o o   NXNXNXNXNXNXNXNXNXNXNX",
"NXNXNXNXNXNXNXNXNX&X9.>.>.NXJ.J.J.J.J.m.J.J.M...{ {.<.y.g.b.NX> #             NXNXNXNXNXNXNXNXNXNXNX",
"NXNXNXNXNXNXNXNXNXZ 6 M NXNXJ.J.J.J.H.m.J.J.J.$.~.~.! $.F.c.J.r @           NXNXNXNXNXNXNXNXNXNXNXNX",
"NXNXNXNXNXNXNXNXNXNXX b D NXJ.J.J.J.v.m.J.J.J.$.~.~.! 1._.D.D.J.NXNXNXNXNXNXNXNXNXNXNXNXNXNXNXNXNXNX",
"NXNXNXNXNXNXNXNXNXNX  p C j.J.J.J.F.h.l.J.J.J.6.~.~.! L.u.J.J.J.NXNXNXNXNXNXNXNXNXNXNXNXNXNXNXNXNXNX",
"NXNXNXNXNXNXNXNXNXNX: p c D s.m.J.g.g.g.x.M.J.$.~.~.! Y.2.S.x.f.a.NXNXNXNXNXNX;.NX9.NXNXNXNXNXNXNXNX",
"NXNXNXNXNXNXNXNXNXNX- p s x S p.g.g.g.g.g.x.J.{.~.~.! ~. .Z.d.N A NXNXNXA @.q.4.5.NXNXNXNXNXNXNXNXNX",
"NXNXNXNXNXNXNXNXNXNX- NXs s x d g.g.NXg.g.x.:X^.~.~.! ~. .V.NXs d c c c d | :.,.NXNXNXNXNXNXNXNXNXNX",
"NXNXNXNXNXNXNXNXNXNX: NXs s s V g.NXNXNX#.C.2.~.~.~.! ~. .w.NXNXs s s s NXNXNXNXNXNXNXNXNXNXNXNXNXNX",
"NXNXNXNXNXNXNXNXNXNX: NXNXNXNXNXNXNXNXNXL.X.I.~.~.Y.Y.~.W.NXNXNXNXNXNXNXNXNXNXNXNXNXNXNXNXNXNXNXNXNX",
"NXNXNXNXNXNXNXNXNXNX: NXNXNXNXNXNXNXNXNX~.R.!.~.~.Y.Y.~.~.NXNXNXNXNXNXNXNXNXNXNXNXNXNXNXNXNXNXNXNXNX",
"NXNXNXNXNXNXNXNXNXNX: NXNXNXNXNXNXNXNXNX~.~.~.~.~.Y.Y.~.~.NXNXNXNXNXNXNXNXNXNXNXNXNXNXNXNXNXNXNXNXNX",
"NXNXNXNXNXNXNXNXNXNX: NXNXNXNXNXNXNXNX    < J ~ ~.T.` ' ~.NXNXNXNXNXNXNXNXNXNXNXNXNXNXNXNXNXNXNXNXNX",
"NXNXNXNXNXNXNXNXNXNX: NXNXNXNXNXNXNXNX5 5 <       1 1 y   NXNXNXNXNXNXNXNXNXNXNXNXNXNXNXNXNXNXNXNXNX",
"NXNXNXNXNXNXNXNXNXNX$ NXNXNXNXNXNXNXNXE.Y.L.R 5 5 8 9 ) 5 NXNXNXNXNXNXNXNXNXNXNXNXNXNXNXNXNXNXNXNXNX",
"NXNXNXNXNXNXNXNXNXNX& NXNXNXNXNXNXNX~.~.~.~.~.T T m n E Y.Q.NXNXNXNXNXNXNXNXNXNXNXNXNXNXNXNXNXNXNXNX",
"NXNXNXNXNXNXNXNXNXNX@ NXNXNXNXNXNX~.~.~.~.~.P.T P s s T Q W.~.NXNXNXNXNXNXNXNXNXNXNXNXNXNXNXNXNXNXNX",
"NXNXNXNXNXNXNXNXNXNX  NXNXNXNXNX~.~.~.~.~.P.T T s s s K T P.~.~.NXNXNXNXNXNXNXNXNXNXNXNXNXNXNXNXNXNX",
"NXNXNXNXNXNXNXNXNXNX  NXNXNXNX~.~.~.~.~.P.W T L s s s H T W P.~.NXNXNXNXNXNXNXNXNXNXNXNXNXNXNXNXNXNX",
"NXNXNXNXNXNXNXNXNXNX& NXNXNX~.~.~.~.~.~.! T T K s x B s T T ! ~.~.NXNXNXNXNXNXNXNXNXNXNXNXNXNXNXNXNX",
"NXNXNXNXNXNXNXNXNXNX  NXNX~.~.~.~.~.~.L.T T L s s v G B j T T L.~.NXNXNXNXNXNXNXNXNXNXNXNXNXNXNXNXNX",
"NXNXNXNXNXNXNXNXNXNX@ NXNX~.~.~.~.~.U.Q T Y g s s v G F g I T Q U.~.NXNXNXNXNXNXNXNXNXNXNXNXNXNXNXNX",
"NXNXNXNXNXNXNXNXNXNX: NXNXNXNX~.~.~.! T T H s s NXd S G s j T T W ! NXNXNXNXNXNXNXNXNXNXNXNXNXNXNXNX",
"NXNXNXNXNXNXNXNXNXNX2 NXNXNXNXNXs s H P P f s s NXs N G A s K T T T NXNXNXNXNXNXNXNXNXNXNXNXNXNXNXNX",
"NXNXNXNXNXNXNXNXNXNX$ NXNXNXNXNXG S x s s s s NXNXNXs F G v H U T T NXNXNXNXNXNXNXNXNXNXNXNXNXNXNXNX",
"NXNXNXNXNXNXNXNXNXNX  NXNXNXNXNXG G A s s s NXNXNXNXs B G v s h NXNXNXNXNXNXNXNXNXNXNXNXNXNXNXNXNXNX",
"NXNXNXNXNXNXNXNXNXNX$ NXNXNXNXG G G N s s NXNXNXNXNXNXB G v s NXNXNXNXNXNXNXNXNXNXNXNXNXNXNXNXNXNXNX",
"NXNXNXNXNXNXNXNXNXNX& NXNXNXNXl z k s s NXNXNXNXNXNXNXa > #   NXNXNXNXNXNXNXNXNXNXNXNXNXNXNXNXNXNXNX",
"NXNXNXNXNXNXNXNXNXNX& NXNXNXNX> >   , s NXNXNXNXNXNXNX6 =     NXNXNXNXNXNXNXNXNXNXNXNXNXNXNXNXNXNXNX",
"NXNXNXNXNXNXNXNXNXNX& NXNXNXNX> =   . 4 NXNXNXNXNXNXNX>       NXNXNXNXNXNXNXNXNXNXNXNXNXNXNXNXNXNXNX",
"NXNXNXNXNXNXNXNXNXNX& NXNXNX> > *     NXNXNXNXNXNXNXNX>       NXNXNXNXNXNXNXNXNXNXNXNXNXNXNXNXNXNXNX",
"NXNXNXNXNXNXNXNXNXNX  NXNXNX> >       NXNXNXNXNXNXNX> >       NXNXNXNXNXNXNXNXNXNXNXNXNXNXNXNXNXNXNX",
"NXNXNXNXNXNXNXNXNXNX& NXNXNX> *     NXNXNXNXNXNXNXNX> >       NXNXNXNXNXNXNXNXNXNXNXNXNXNXNXNXNXNXNX",
"NXNXNXNXNXNXNXNXNXNX  NXNXNX> #     NXNXNXNXNXNXNXNX> =       NXNXNXNXNXNXNXNXNXNXNXNXNXNXNXNXNXNXNX",
"NXNXNXNXNXNXNXNXNXNX  NXNXNX;       NXNXNXNXNXNXNXNX> *       NXNXNXNXNXNXNXNXNXNXNXNXNXNXNXNXNXNXNX",
"NXNXNXNXNXNXNXNXNXNX  NXNX; O       NXNXNXNXNXNXNXNX> %         NXNXNXNXNXNXNXNXNXNXNXNXNXNXNXNXNXNX",
"NXNXNXNXNXNXNXNXNXNX  NXNX        NXNXNXNXNXNXNXNXNX+             NXNXNXNXNXNXNXNXNXNXNXNXNXNXNXNXNX"
};
