/* XPM */
static char *result[] = {
/* columns rows colors chars-per-pixel */
"50 50 241 2 ",
"   c #1E1006",
".  c #1E110B",
"X  c #1F1315",
"o  c #201106",
"O  c #221207",
"+  c #231307",
"@  c #231308",
"#  c #241408",
"$  c #261509",
"%  c #271509",
"&  c #281609",
"*  c #2A170A",
"=  c #2D190A",
"-  c #2E1A0B",
";  c #311C0C",
":  c #331D0D",
">  c #361E0D",
",  c #201419",
"<  c #2D141A",
"1  c #2E241C",
"2  c #3D2310",
"3  c #37271B",
"4  c #211625",
"5  c #321421",
"6  c #301E26",
"7  c #372F22",
"8  c #34262C",
"9  c #3A322D",
"0  c #38382D",
"q  c #3C3A2E",
"w  c #4C3729",
"e  c #503B2C",
"r  c #44293D",
"t  c #712334",
"y  c #46413D",
"u  c #564337",
"i  c #584639",
"p  c #231B40",
"a  c #291E42",
"s  c #251E53",
"d  c #251E54",
"f  c #261F55",
"g  c #2E1E57",
"h  c #331E59",
"j  c #341E59",
"k  c #381E5B",
"l  c #352747",
"z  c #3A2A44",
"x  c #3B2A44",
"c  c #29225A",
"v  c #2B235C",
"b  c #2C245D",
"n  c #302654",
"m  c #332E56",
"M  c #3B225C",
"N  c #342A5B",
"B  c #2E2762",
"V  c #322A67",
"C  c #32226D",
"Z  c #332B6A",
"A  c #362E6E",
"S  c #383070",
"D  c #3A3274",
"F  c #3B3377",
"G  c #3C3375",
"H  c #3F367A",
"J  c #411E5F",
"K  c #5C2352",
"L  c #4A1F63",
"P  c #531F67",
"I  c #5D1F6B",
"U  c #611F6D",
"Y  c #661F6F",
"T  c #6A1F71",
"R  c #6F1F73",
"E  c #652163",
"W  c #6B2F6E",
"Q  c #722076",
"!  c #742278",
"~  c #7A257E",
"^  c #7A2D78",
"/  c #3A6060",
"(  c #396C70",
")  c #397379",
"_  c #4E4B48",
"`  c #6F6158",
"'  c #764779",
"]  c #7C4A7E",
"[  c #80363A",
"{  c #87403C",
"}  c #833676",
"|  c #864648",
" . c #855C5E",
".. c #8D466F",
"X. c #834978",
"o. c #A25D72",
"O. c #83766D",
"+. c #9D766B",
"@. c #877A72",
"#. c #967177",
"$. c #98727D",
"%. c #AC6E6A",
"&. c #A07062",
"*. c #A27365",
"=. c #A37967",
"-. c #A17669",
";. c #A57668",
":. c #AB796A",
">. c #AC7B6D",
",. c #AB7C6F",
"<. c #AE7D6F",
"1. c #B1706F",
"2. c #AC637C",
"3. c #AB7375",
"4. c #AC7971",
"5. c #AF7E70",
"6. c #AF7F71",
"7. c #BB767A",
"8. c #B3825D",
"9. c #BB8A6D",
"0. c #AF8173",
"q. c #AA8D7C",
"w. c #B38577",
"e. c #B28B74",
"r. c #B3887B",
"t. c #AC987F",
"y. c #BE9A76",
"u. c #CA9566",
"i. c #CA9F7C",
"p. c #CCAE7A",
"a. c #3E2983",
"s. c #3E3080",
"d. c #46328F",
"f. c #432790",
"g. c #442B91",
"h. c #472899",
"j. c #492A9C",
"k. c #4B3A91",
"l. c #59389D",
"z. c #4C2CA0",
"x. c #4E2EA3",
"c. c #5130A6",
"v. c #5332A9",
"b. c #5634AD",
"n. c #5836AF",
"m. c #5836B0",
"M. c #5B39B3",
"N. c #5F3DBA",
"B. c #613EBC",
"V. c #387F88",
"C. c #795688",
"Z. c #745192",
"A. c #7E599F",
"S. c #6A47A6",
"D. c #7853B9",
"F. c #6441C0",
"G. c #6743C3",
"H. c #6945C7",
"J. c #6C47CA",
"K. c #6E49CD",
"L. c #7752C5",
"P. c #842B89",
"I. c #892D8E",
"U. c #8E3B81",
"Y. c #8C2F91",
"T. c #8F3093",
"R. c #8C3891",
"E. c #913296",
"W. c #933398",
"Q. c #943399",
"!. c #96349B",
"~. c #96359B",
"^. c #99369E",
"/. c #98418C",
"(. c #92699E",
"). c #AB7E84",
"_. c #A37F9E",
"`. c #855FB9",
"'. c #946BA2",
"]. c #9C74A5",
"[. c #926AB2",
"{. c #A47AA5",
"}. c #C17980",
"|. c #3795A5",
" X c #36ACC3",
".X c #33DAFF",
"XX c #7BD6DF",
"oX c #71EAFD",
"OX c #7AECFC",
"+X c #878383",
"@X c #8D8989",
"#X c #918781",
"$X c #9D9A9A",
"%X c #A48387",
"&X c #B08F86",
"*X c #BB8F82",
"=X c #A0998A",
"-X c #B79587",
";X c #B9988B",
":X c #AB8397",
">X c #B38A90",
",X c #B28D91",
"<X c #B08C94",
"1X c #A99691",
"2X c #A49D99",
"3X c #A79D9B",
"4X c #B19F9A",
"5X c #B59A9D",
"6X c #AFA194",
"7X c #B8A493",
"8X c #B9A49A",
"9X c #B69DA1",
"0X c #A7A4A4",
"qX c #ADA3A1",
"wX c #AFA6A4",
"eX c #BBA3A7",
"rX c #BEA8A2",
"tX c #BAA9A4",
"yX c #B5ADAB",
"uX c #B8AFAE",
"iX c #B9B3B0",
"pX c #BFB8B7",
"aX c #BEBCBC",
"sX c #C9AE9C",
"dX c #C3AAA3",
"fX c #C0ACAC",
"gX c #C7B2AC",
"hX c #C0B4B1",
"jX c #C2BFBF",
"kX c #CEBEBA",
"lX c #C4C3C3",
"zX c #C9C2C1",
"xX c #C9C7C7",
"cX c #CEC8C7",
"vX c #D0CECE",
"bX c #D4CECD",
"nX c #DCDBDB",
"mX c #C1FFFA",
"MX c #E2E1E1",
"NX c #E9E9E9",
"BX c None",
/* pixels */
"BXBXBXBXBXBXBXBXBXBXBXBXBXBXBXBXBXBXBXBXBXBXBXBXBXBXBXBXBXBXBXBXBXBXBXBXBXOXmXBXBXBXBXBXBXBXBXBXBXBX",
"BXBXBXBXBXBXBXBXBXBXBXBXBXBXBXBXBXBXBXBXBXBXBXBXBXBXBXBXBXBXBXBXBXBXBXBXBX.XXXmXBXBXBXBXBXBXBXBXBXBX",
"BXBXBXBXBXBXBXBXBXBXBXBXBXBXBXBXBXBXBXBXBXBXBXBXBXBXBXBXBXBXBXBXBXBXBXBX( ) V.oXBXBXBXBXBXBXBXBXBXBX",
"BXBXBXBXBXBXBXBXBXBXBXBXBXBXBXBXBXBXBXBXBXBXBXBXBXK.K.K.K.BXBXBXBXBXBXBX2 2  X|./ BXBXBXBXBXBXBXBXBX",
"BXBXBXBXBXBXBXBXBXBXBXBXBXBXBXBXBXBXBXBXBXBXBXK.K.K.K.K.K.K.BXBXBXBXBXBX: 2 q .X/ BXBXBXBXBXBXBXBXBX",
"BXBXBXBXBXBXBXBXBXBXBXBXBXBXBXBXBXBXBXBXBXBXK.K.[.<X;X_.K.K.K.K.BXBXBXBXBX: 0 |.7 BXBXBXBXBXBXBXBXBX",
"BXBXBXBXBXBXBXBXBXBXBXBXBXBXBXNXNXBXBXBXBXBXK.{.8.=.+.q.>XK.K.K.K.BXBXBXBXBXO 2 & BXBXBXBXBXBXBXBXBX",
"BXBXBXBXBXBXBXBXBXBXBXBXMX+XNXlX+XBXBXBXBXK.K.t.&X=X-.tXsX_.K.K.K.K.BXBXBXBX  > BXBXBXBXBXBXBXBXBXBX",
"BXBXBXBXBXBXBXBXBXBXBXMXnX@XaX$XlXxXBXBXBXL.9.| *X*X*XhX&.sX).K.K.K.K.BXBXBXBX2 BXBXBXBXBXBXBXBXBXBX",
"BXBXBXBXBXBXBXBXBXBX3 #XvX0XjXiX2Xu i e K.'.{ fXkXgXr.dX1X5X[ ].K.m.BXBXBXBXBX= BXBXBXBXBXBXBXBXBXBX",
"BXBXBXBXBXBXBXBXBXBX  % ` O.@.w > > > > K.4.t pXyXbXrX4XqX9Xt :XH.z.BXBXBXBXBX; BXBXBXBXBXBXBXBXBXBX",
"BXBXBXBXBXBXBXBXBXBXBX  * ; * *     # > K.4.eXbXcXuX3X3XqX8X4.c.h.BXBXBXBXBX;.,.0.*XBXBXBXBXBXBXBXBX",
"BXBXBXBXBXBXBXBXBXBXBX  O = o       # > F.(.7XzXwX3X3X6X-X%XS.z.B.K.BXBXBXBX*.,.0.*XBXBXBXBXBXBXBXBX",
"BXBXBXBXBXBXBXBXBXBXBXBX  o o       # > BXl.y.3X3X3Xp.,Xx.x.F.H.K.K.K.K.BXBXw.w.r.*XBXBXBXBXBXBXBXBX",
"BXBXBXBXBXBXBXBXBXBXBXBX            # > BXn.h.u.1.}.} X.N.K.K.M.K.K.K.K.K.BX,.,.0.*XBXBXBXBXBXBXBXBX",
"BXBXBXBXBXBXBXBXBXBXBXBXBX          @ r K.v.G.%.~ ^.^.%.K.K.K.M.J.K.K.K.K.BXBXN 6 A BXBXBXBXBXBXBXBX",
"BXBXBXBXBXBXBXBXBXBXBXBXBXBXBXBXBXBXBXK.F.F.`.2.~ ^.^.%.K.K.K.M.b.K.K.K.K.BXF n X BXBXBXBXBXBXBXBXBX",
"BXBXBXBXBXBXBXBXBXBXBXBXBXBXBXBXBXBXBXK.K.K.i.P.~ ^.^.7.K.K.K.z.j.G.K.K.K.k.Z p   BXBXBXBXBXBXBXBXBX",
"BXBXBXBXBXBXBXBXBX0.BX:.BXBXBXBXBXBXs.g.c.D.3.T.~ ^.^.%.K.N.c.h.h.h.K.M.d.F v p : BXBXBXBXBXBXBXBXBX",
"BXBXBXBXBXBXBXBXBXBX6.5.w.#.S BXBXBXS B f.A...^.~ ^.^.}.K.c.h.h.h.h.h.a.D c s p - BXBXBXBXBXBXBXBXBX",
"BXBXBXBXBXBXBXBXBXBXBX<.>. .d v v v f s BXC...^.~ ^.^./.>Xc.h.h.BXh.h.f c s s BX- BXBXBXBXBXBXBXBXBX",
"BXBXBXBXBXBXBXBXBXBXBXBXBXBXBXs s s s BXBXe...^.~ ^.^.^.3.Z.$.BXBXBXh.C s s s BX: BXBXBXBXBXBXBXBXBX",
"BXBXBXBXBXBXBXBXBXBXBXBXBXBXBXBXBXBXBXBXBXBXQ.^.T.T.^.^.U.o.P.BXBXBXBXBXBXBXBXBX: BXBXBXBXBXBXBXBXBX",
"BXBXBXBXBXBXBXBXBXBXBXBXBXBXBXBXBXBXBXBXBXBX^.^.T.T.^.^.~.E.^.BXBXBXBXBXBXBXBXBX: BXBXBXBXBXBXBXBXBX",
"BXBXBXBXBXBXBXBXBXBXBXBXBXBXBXBXBXBXBXBXBXBX^.^.T.T.^.^.^.^.^.BXBXBXBXBXBXBXBXBX: BXBXBXBXBXBXBXBXBX",
"BXBXBXBXBXBXBXBXBXBXBXBXBXBXBXBXBXBXBXBXBXBX^.] ' R.^.^ K <     BXBXBXBXBXBXBXBX: BXBXBXBXBXBXBXBXBX",
"BXBXBXBXBXBXBXBXBXBXBXBXBXBXBXBXBXBXBXBXBXBX  y 1 1       < 5 5 BXBXBXBXBXBXBXBX: BXBXBXBXBXBXBXBXBX",
"BXBXBXBXBXBXBXBXBXBXBXBXBXBXBXBXBXBXBXBXBXBX5 _ 9 8 5 5 E P.T.W.BXBXBXBXBXBXBXBX$ BXBXBXBXBXBXBXBXBX",
"BXBXBXBXBXBXBXBXBXBXBXBXBXBXBXBXBXBXBXBXBX!.T.W m M R R ^.^.^.^.^.BXBXBXBXBXBXBX& BXBXBXBXBXBXBXBXBX",
"BXBXBXBXBXBXBXBXBXBXBXBXBXBXBXBXBXBXBXBX^.Q.! R s s I R I.^.^.^.^.^.BXBXBXBXBXBX@ BXBXBXBXBXBXBXBXBX",
"BXBXBXBXBXBXBXBXBXBXBXBXBXBXBXBXBXBXBX^.^.I.R L s s s R R I.^.^.^.^.^.BXBXBXBXBX  BXBXBXBXBXBXBXBXBX",
"BXBXBXBXBXBXBXBXBXBXBXBXBXBXBXBXBXBXBX^.I.Q R J s s s P R Q I.^.^.^.^.^.BXBXBXBX  BXBXBXBXBXBXBXBXBX",
"BXBXBXBXBXBXBXBXBXBXBXBXBXBXBXBXBXBX^.^.~ R R s V c s L R R ~ ^.^.^.^.^.^.BXBXBX& BXBXBXBXBXBXBXBXBX",
"BXBXBXBXBXBXBXBXBXBXBXBXBXBXBXBXBXBX^.P.R R k V H b s s P R R P.^.^.^.^.^.^.BXBX  BXBXBXBXBXBXBXBXBX",
"BXBXBXBXBXBXBXBXBXBXBXBXBXBXBXBXBX^.Y.! R U h G H b s s h T R ! Y.^.^.^.^.^.BXBX@ BXBXBXBXBXBXBXBXBX",
"BXBXBXBXBXBXBXBXBXBXBXBXBXBXBXBXBX~ Q R R k s H D f BXs s J R R ~ ^.^.^.BXBXBXBX: BXBXBXBXBXBXBXBXBX",
"BXBXBXBXBXBXBXBXBXBXBXBXBXBXBXBXBXR R R L s S H B s BXs s g I I J s s BXBXBXBXBX2 BXBXBXBXBXBXBXBXBX",
"BXBXBXBXBXBXBXBXBXBXBXBXBXBXBXBXBXR R Y J b H G d BXBXBXs s s s c D H BXBXBXBXBX$ BXBXBXBXBXBXBXBXBX",
"BXBXBXBXBXBXBXBXBXBXBXBXBXBXBXBXBXBXBXj s b H V s BXBXBXBXd s s S H H BXBXBXBXBX  BXBXBXBXBXBXBXBXBX",
"BXBXBXBXBXBXBXBXBXBXBXBXBXBXBXBXBXBXBXBXs b H V BXBXBXBXBXBXs s B H H H BXBXBXBX$ BXBXBXBXBXBXBXBXBX",
"BXBXBXBXBXBXBXBXBXBXBXBXBXBXBXBXBXBXBXBX  # > a BXBXBXBXBXBXBXs s l x z BXBXBXBX& BXBXBXBXBXBXBXBXBX",
"BXBXBXBXBXBXBXBXBXBXBXBXBXBXBXBXBXBXBXBX    = 6 BXBXBXBXBXBXBXs ,   > > BXBXBXBX& BXBXBXBXBXBXBXBXBX",
"BXBXBXBXBXBXBXBXBXBXBXBXBXBXBXBXBXBXBXBX      > BXBXBXBXBXBXBX4 .   = > BXBXBXBX& BXBXBXBXBXBXBXBXBX",
"BXBXBXBXBXBXBXBXBXBXBXBXBXBXBXBXBXBXBXBX      > BXBXBXBXBXBXBXBX    * > > BXBXBX& BXBXBXBXBXBXBXBXBX",
"BXBXBXBXBXBXBXBXBXBXBXBXBXBXBXBXBXBXBXBX      > > BXBXBXBXBXBXBX      > > BXBXBX  BXBXBXBXBXBXBXBXBX",
"BXBXBXBXBXBXBXBXBXBXBXBXBXBXBXBXBXBXBXBX      > > BXBXBXBXBXBXBXBX    * > BXBXBX& BXBXBXBXBXBXBXBXBX",
"BXBXBXBXBXBXBXBXBXBXBXBXBXBXBXBXBXBXBXBX      = > BXBXBXBXBXBXBXBX    # > BXBXBX  BXBXBXBXBXBXBXBXBX",
"BXBXBXBXBXBXBXBXBXBXBXBXBXBXBXBXBXBXBXBX      * > BXBXBXBXBXBXBXBX      ; BXBXBX  BXBXBXBXBXBXBXBXBX",
"BXBXBXBXBXBXBXBXBXBXBXBXBXBXBXBXBXBXBX        % > BXBXBXBXBXBXBXBX      O ; BXBX  BXBXBXBXBXBXBXBXBX",
"BXBXBXBXBXBXBXBXBXBXBXBXBXBXBXBXBXBX            + BXBXBXBXBXBXBXBXBX        BXBX  BXBXBXBXBXBXBXBXBX"
};
