/* XPM */
static char *_108f142e76048f7acc4ff59a32137fenBL0VEtuwSYFRJL7[] = {
/* columns rows colors chars-per-pixel */
"50 50 140 2 ",
"   c None",
".  c #545D65",
"X  c #595D64",
"o  c #575F68",
"O  c #556067",
"+  c #5E6366",
"@  c #5C626B",
"#  c #61666E",
"$  c #646B6F",
"%  c #606770",
"&  c #646A72",
"*  c #6A6E75",
"=  c #686F79",
"-  c #6D737B",
";  c #767E86",
":  c #787F86",
">  c #767F88",
",  c #787F88",
"<  c #768086",
"1  c #768089",
"2  c #7B828C",
"3  c #7E8691",
"4  c #7F8992",
"5  c #808790",
"6  c #838B95",
"7  c #858E98",
"8  c #8D949D",
"9  c #94989A",
"0  c #8E96A1",
"q  c #8E98A1",
"w  c #939DA6",
"e  c #949DA9",
"r  c #999FAC",
"t  c #96A0A7",
"y  c #95A0AA",
"u  c #9AA4AE",
"i  c #9DA7B1",
"p  c #9EA9B2",
"a  c #A0A8AF",
"s  c #A3AEB6",
"d  c #A4AFB8",
"f  c #A4B1B5",
"g  c #A3B0B7",
"h  c #ABB0B4",
"j  c #A5B0B8",
"k  c #A5B1BB",
"l  c #A6B1BA",
"z  c #A7B2BC",
"x  c #A7B2BF",
"c  c #A7B1BB",
"v  c #AAB3BE",
"b  c #AAB5BC",
"n  c #ABB5BD",
"m  c #A9B4BE",
"M  c #A8B4BF",
"N  c #A9B4BF",
"B  c #A9B5BF",
"V  c #AAB4BE",
"C  c #ABB5BE",
"Z  c #ABB4BF",
"A  c #AAB5BF",
"S  c #ABB5BF",
"D  c #AAB6BF",
"F  c #ABB6BF",
"G  c #ACB5BF",
"H  c #ABB5BF",
"J  c #AFB9BD",
"K  c #B6BABD",
"L  c #A7B5C2",
"P  c #A9B5C0",
"I  c #A9B5C1",
"U  c #ABB4C0",
"Y  c #ABB5C0",
"T  c #AAB5C1",
"R  c #AAB6C1",
"E  c #ABB6C1",
"W  c #A8B5C2",
"Q  c #AAB5C2",
"!  c #A9B6C3",
"~  c #ABB6C2",
"^  c #ABB6C3",
"/  c #ACB6C0",
"(  c #ADB7C1",
")  c #AEB7C2",
"_  c #A9B7C4",
"`  c #AAB7C5",
"'  c #ACB6C0",
"]  c #ACB8C1",
"[  c #ADB9C1",
"{  c #ACB8C2",
"}  c #ADB8C2",
"|  c #AFB8C2",
" . c #AFB8C3",
".. c #AEB9C3",
"X. c #ADB8C4",
"o. c #ADBAC4",
"O. c #AEB9C1",
"+. c #AFBDC9",
"@. c #B0BAC0",
"#. c #B0B9C2",
"$. c #B1B9C2",
"%. c #B1BDC2",
"&. c #B0B9C4",
"*. c #B0B9C5",
"=. c #B0BAC4",
"-. c #B0BAC5",
";. c #B1BAC5",
":. c #B0BBC5",
">. c #B2BAC5",
",. c #BBBEC1",
"<. c #B2BDC9",
"1. c #B3BEC8",
"2. c #B0BDCA",
"3. c #B4BFCC",
"4. c #B4BDC9",
"5. c #B7C1CE",
"6. c #B8C3CD",
"7. c #B9C3CF",
"8. c #BAC4CE",
"9. c #B5C3D0",
"0. c #B6C4D3",
"q. c #B6C5D3",
"w. c #BBC7D1",
"e. c #BAC5D3",
"r. c #B8C7D3",
"t. c #B9C7D3",
"y. c #BBC6D2",
"u. c #BBC6D3",
"i. c #BCC7D1",
"p. c #BCC7D3",
"a. c #B8C7D6",
"s. c #B9C7D6",
"d. c #BCC7D4",
"f. c #BCC6D1",
"g. c #BCC8D2",
"h. c #BCC9D3",
"j. c #BAC8D6",
"k. c #BDC8D4",
"l. c #BECAD4",
"z. c #BDC8D3",
/* pixels */
"    ,.X X O X X . . O . O X . O X o . o . . o . . X . . X X O . o . . X . O X O o o . . X . .       ",
"  X & b K [ J J f s f f g s s u t t t r r e r r e r r t t t e r e e r w w r t e e t e r w w i O X   ",
"  + s ) =.=.J %.) d s s s g s s e e e e e e e e e e e e e e e d e e e e e e e e e e e e r s d s - h ",
"& w s d =.=.=...=.G d d g s g g e e e e e e e e e e e e e e p u e e e e e e e e e e e e u s s s u # ",
". s s d d =.*.*.=.*.d d d g g s e e e e e e e e e e e e e d d e e e e e e e e e e e e e g s s g f X ",
". s h s d d $.*.=.=.=.s d g s s u e e e e e e e e e e e p d i e e e e e e e e e e e e d s g s s w . ",
". s s d g s s ..o.$.$.$.c s d d s r w e e e e e e y e p k p e e e e e e e q e e w e p g g d d e w . ",
". s h s g s s s ) o.+.0.s.p.a.a.0.0.9.<.2.^ W L p p d L p y e e e e e e y e e e e y p g l d e e w . ",
". s s g g g g d o.j.t.+._ L ] o._ _ L o.] U U ] ` L B F B _ B b U F b U U U U ] ..5.s d p u e e w . ",
". d d g d d p k 9.o.) b U U U b b U U U U ] U U U U F B b U U b U U ) b b U b ] b ^ 1.d p e e e w X ",
". p d d k d k p j.U U b ) b U U U ] U b U U U F U ] b U U b U ] ] b U U U b U U U U s.p e y e e w X ",
". e w w i p p g d.U U U b F U b U b U b B ] U U U U U U ] U U b U b F U U ] U b z p a.e e e e e w . ",
". e e e e e e e k.U b U ] b U ] U b U ] U U F b U U U b b U F b U U F b U b b s p p j.y e e e y w . ",
". e e e e e e e j.U U U U U b F U F U b U b b ) U b ] F U U ] U U b b ) U b p p p p w.e e e e r 8 . ",
". e e e e e e e t.U U U U ) b U b ] U U U ] U U F b U U U b b U U U U b z p p p p p w.y e e > . . X ",
". e e e e e e e p.b U b F b U U U U b F b F U b ] U U b ] F U U U b U s p p p p p p j.u 2 > > > : X ",
". e e e e e e e j.b U b F U b ] U b U ] U ] b U F b U F b U U U ) ) p p p p p p p p l.r e e e e w . ",
". e e e e e e q t.U U ] b U U U U F U b b F U U b ) U U ) b b F b p p p p p p p p p w.e e e e e w X ",
". e e e e e e e t.b b U ) b F b U b U U U U b U U F b b U U U B p p p p p p p p p p w.y e e e e w X ",
". e e e e e e e t.U F U U U U U U ) b F U b ) U U U U ] b b s p p p p p p p p p p p w.e e e e e w . ",
"O e e e e e e e t.v U b U F b U U F U U F b ] b b U b U U p p p p p p p s u s p p p h.y y w e e w X ",
". 0 e e e e e q f.v U U U U ) b U b U b ] U U U ) U U L p p p p p p p p h c s p p p j.q e e e e 6 X ",
"o 7 4 7 e e y y t.b U b ] b U U ] U U ) b U F U b U d i p p p p p p p p v b l p p p h.e e e 0 7 5 . ",
"o 7 4 4 7 6 q e 8.U U U U b F U b U F b U U b b U p p p p p p p p p p p p p p p p p w.w q 0 4 4 6 . ",
". 7 6 6 6 6 4 7 8.U b U b ) ) b b U b U U U ) d p p p p p p p p p p p p p p p p p p w.e 6 6 6 6 6 . ",
". 6 6 6 6 6 7 4 6.U U U U b b U ) U U U U v p i p p p p p s p p p p p p p p p p p p 8.6 6 6 6 6 5 . ",
". 6 6 6 4 7 7 4 6.b U b U U U U b U U U p p p p p p p p p b s i p p p p p p p p p p 6.6 6 6 5 6 6 X ",
". 6 6 6 7 7 7 4 1.) U U U b ] b U v p i s p p p p p p p p p p p p p p p p p p p p p K 6 6 6 : 5 6 X ",
". 6 6 7 6 , 6 7 =.) U b U b ) l p p p p p p p p p p p p p i i d ] U B p p p p p p p p 6 6 5 < < 5 X ",
". 7 3 > 6 > , 7 ) z U ) U d p p p p p p p p p p p p p p p s U U U U b d p p p p p p q 6 6 5 < < 5 X ",
". 6 > > 6 6 7 7 z z z s i p p i p p p p p p p p p p p p p b b ) U b b b p p p p p p 8 6 6 6 6 5 6 X ",
". 6 6 6 6 7 > o o o . @ 2 u p p p p p p p p i p p p p p p U b U U U U z p p p p p p 8 4 6 6 6 5 2 X ",
"X 5 6 6 # . . . 8 r i i d i i a p p p p p p d v p p p p i v b v b U ) p p p p p p p w 6 6 2 , ; : X ",
". ; o o X X ; 3 i i d i i i d i p p p p i p d ) s i p p s s b ) U U p p p p p p p p w < : : , , - X ",
". o . . * 7 6 7 U i i i d i i i p p p p p p p p p p p p u p s s s i p p p p p p p p t ; , , , , : X ",
". . @ 8 9 6 7 8 *.i d i i i d i p p p p p p p p p i p p s u s p p p p p p p p p p p u : , , ; : : X ",
"X 3 8 7 8 8 7 8 3.p p p i a a p p p p p p i p p p p p p p p p p p p p p p p p p p i d 6 : 5 6 6 6 X ",
". 3 8 7 6 8 8 0 3.d d p a a p p p p p p p p p p p p p p p p p p p p p p p p p p p s d 6 2 6 6 6 6 X ",
". 3 7 8 8 7 0 8 d.s p p p p p p p p p p p p p p p p p p p p p p p p p p p p p p p p d 6 6 , , 2 6 X ",
"X 3 7 6 8 0 7 8 d.i p p p p p p p p p p p p p p p p p p p p p p p p p p p p p p p p c 6 : , , , 6 X ",
"X 9 8 5 2 8 8 6 3.d i i p p p p p p p p p p p p p p p p p p p p p p p p p p p p p s L 6 , > , , 6 X ",
"% 8 7 6 8 6 7 6 *.3.*.d i p p p p p p p p p p p p p p p p p p p p p p p p p i p d 3.d 7 6 2 ; , 5 X ",
"& 8 6 6 0 6 6 6 , > d d.k.j.j.k.t.8.1.) p e 4 1 1 < 6 7 8 y l 1.w.w.h.h.w.w.p.p.U 1 1 1 5 6 6 6 6 X ",
"X 0 8 8 8 6 6 ; , , > > 7 7 4 7 4 , , , > > , , < 1 4 6 6 4 6 6 6 4 4 4 7 6 6 6 , , , , , 2 6 6 6 X ",
"& 6 0 8 6 5 ; ; , , , 2 6 6 6 6 5 , , : , , : : , , ; 6 6 6 6 6 6 6 7 7 5 6 6 6 6 , , , , , , 6 6 X ",
"X 8 6 8 8 , ; , , , ; 6 6 6 6 6 2 , , : : , , , , , 1 2 6 6 6 6 6 6 = 6 ; 2 6 6 6 6 ; ; , , , > , X ",
"= 7 6 3 , , ; , , , 3 6 6 6 6 6 2 , , : , , , , : : 2 ; 7 6 4 6 6 6 O 6 2 6 6 6 6 6 6 2 , , ; ; ; @ ",
",.% , , , ; , , , , 6 4 6 6 6 6 ; , , , , , , , : 2 < ; 2 6 6 6 6 2 O + 6 6 6 6 6 6 7 6 2 , , ; @   ",
"  X $ , , , , , 1 2 6 6 6 6 6 6 2 ; 1 ; < 1 ; ; > > > > > 4 4 7 6 6 2 O . O 2 7 6 6 6 6 6 2 ; # X   ",
"    9 X o o . . O . O O O O . O . O . . . . . . . O . . O . . . O O O O O . . O . O O O O O . 8     "
};
