/* XPM */
static char *bdc6dbc4b3f9423cbea4a8ffc64545b8T3GRSVnE830xpX4D[] = {
/* columns rows colors chars-per-pixel */
"100 50 128 2 ",
"   c None",
".  c #525D64",
"X  c #585E64",
"o  c #565D68",
"O  c #585F6A",
"+  c #5A6064",
"@  c #57606A",
"#  c #5C636D",
"$  c #5C6671",
"%  c #5E6A74",
"&  c #606671",
"*  c #626C76",
"=  c #646E78",
"-  c #686E78",
";  c #66717B",
":  c #6A757E",
">  c #707C7F",
",  c #6B7680",
"<  c #6E7A83",
"1  c #737D86",
"2  c #757E88",
"3  c #77808B",
"4  c #7A838D",
"5  c #7D8691",
"6  c #7E8893",
"7  c #808A95",
"8  c #848E99",
"9  c #87919C",
"0  c #89939D",
"q  c #8B97A1",
"w  c #8E99A5",
"e  c #8F9DA9",
"r  c #909CA6",
"t  c #919CA8",
"y  c #96A2AC",
"u  c #99A5AF",
"i  c #96A4B1",
"p  c #99A6B3",
"a  c #9BA7B2",
"s  c #9AA6B3",
"d  c #9BA7B1",
"f  c #9BA7B1",
"g  c #9AA8B1",
"h  c #9AA8B2",
"j  c #9CA8B2",
"k  c #9CA8B3",
"l  c #9DA8B3",
"z  c #9DA9B3",
"x  c #9DAAB3",
"c  c #9EAAB3",
"v  c #9AA8B5",
"b  c #9DA9B4",
"n  c #9EA9B5",
"m  c #9CAAB4",
"M  c #9DABB5",
"N  c #9EAAB4",
"B  c #9FABB4",
"V  c #9FABB5",
"C  c #9EABB6",
"Z  c #9FABB6",
"A  c #9FABB7",
"S  c #9EACB6",
"D  c #9FADB7",
"F  c #9DAAB4",
"G  c #9EAAB8",
"H  c #9FADB8",
"J  c #9EADB9",
"K  c #9EADB9",
"L  c #A0AAB3",
"P  c #A0ABB6",
"I  c #A1ADB6",
"U  c #A0ACB7",
"Y  c #A1ACB7",
"T  c #A1ADB7",
"R  c #A2ACB6",
"E  c #A2ACB7",
"W  c #A2ADB7",
"Q  c #A1ACB7",
"!  c #A1ADB8",
"~  c #A1ADB9",
"^  c #A2ADB8",
"/  c #A0AEB9",
"(  c #A2AEB9",
")  c #A1AFBA",
"_  c #A2AFBA",
"`  c #A3AFBA",
"'  c #A4AFBA",
"]  c #A3AFBC",
"[  c #A2AEBA",
"{  c #A4B0BB",
"}  c #A7B1BB",
"|  c #A3B1BC",
" . c #A5B0BC",
".. c #A5B1BD",
"X. c #A4B2BD",
"o. c #A7B2BD",
"O. c #A5B3BE",
"+. c #A7B2BE",
"@. c #A7B3BE",
"#. c #A6B4BF",
"$. c #A5B2BE",
"%. c #A7B5C2",
"&. c #A7B5C2",
"*. c #A9B4C0",
"=. c #A8B5C0",
"-. c #A8B6C1",
";. c #ABB6C1",
":. c #A9B7C2",
">. c #A8B6C3",
",. c #ABB7C2",
"<. c #ABB7C3",
"1. c #A9B7C4",
"2. c #A9B6C2",
"3. c #ABB9C4",
"4. c #AAB8C5",
"5. c #ABB9C6",
"6. c #ADB8C4",
"7. c #ADB8C5",
"8. c #ADBBC7",
"9. c #ADB9C5",
"0. c #ADBCC9",
"q. c #AFBDC9",
"w. c #ADBDCC",
"e. c #AFBECC",
"r. c #ADBECE",
"t. c #AEBFCF",
"y. c #B3C2CF",
"u. c #B1C2D1",
/* pixels */
"  X X = 1 1 > > > 1 > < < 1 < < : : : : : : : : , : : : : : : : : : , : : : , , : : : , , , : , : : : : : : : , , , , : , : : , , , , , : > , , , , , , , , - : , , : , 1 1 1 < < < < > > 3 3 > * X     ",
"  # r } 6.o.@.@.} R M M S M B B y r r w w w w w w w w w w w w w w t t w w w w r e w w w r w y t r w w r w w w r w w w w r w r r e t t t t t t t t r r r t t w w q w r y B j B B h B S @.#.} @.@.} 0 #   ",
"X 1 R o.9.6.9.9.9.} R R R H R R p t t t t t t w t w t t t t t t u p e t t t t t t t t t t t t p t t t t t t t t t t t t t t t t t t j i t t t t t t t t w t t w e t t s R S B H R R o.6.9.6.6.8.o.L : X ",
"# w R R o.6.9.9.9.9.} R ( R R H B y e t t t t t t t t r t t t y B y r t t t t t t t t t t t t f B t t r t r t t t t t t t t t t t t y B t t t t t t t t t t t t t w i R R R ~ ( ( o.6.6.6.6.6.@.W R 8 + ",
"* g I I I @.:.9.6.6.:.o.H ( R S R y t e t t t r t t t t t t p B f t t t t t t t t t t t t t t t ~ ~ t t t t t r t t t t t t w t t r t B S y t r t t t t t t t t t t i ( R R ( H o.:.6.6.6.:.o.H R R e $ ",
"= g R R R ( { :.6.6.:.:.{ R I I R p t t t r e t t t e t t i B S t t t t t t t e t e r t t t t t p R h y t t t e e r e t t t t t t t t y ( S u t t t e e t e t t t r j S S R R { :.:.6.6.:.{ H R R R y $ ",
"* g R I R { S { 6.:.:.8.w.&.4.>.:.@.H G v v v p i i i y s ( ( p t t t t t t t t e t t e t t e e t B H S i y i i i i i i f y t t t t e e B H H h f i i p i v v G G H &.&.&.&.4.q.8.4.:.&.( R R ( R R y # ",
"% g R I I I R S | q.y.u.u.r.w.u.r.r.r.r.q.6.8.4.1.1.1.1.7.4.:.| H R s s B ~ ~ ] | | | { ( p B R ( &.4.4.:.:.1.1.1.1.1.1.&.o.] [ B j S H &.:.4.4.*.>.1.7.5.8.8.w.r.r.r.r.u.w.u.u.u.y.q.| S R S R ( R r % ",
"% h R R R H H H o.y.4.:.| R ( ( ( R H R ( H ( { H } } } | | } ' ] ( ( ( R R B j B j j S L j j B j R S R R S R R ~ R R B G R B j j R j B S S R H H ( ( R ( H ( R ( H H ( ( R ( | :.q.y.| B H ( R I I e $ ",
"* u ( R R ( H K &.y.o.B h p p h j j h p h h j j h j h j j j j j v p j j j j p h p j p j u j j u h j u g h h h j j p j u p j j h u j j j j p j j h j j j h h h j h h h h j u h h B @.y.@.H ( S R I / e $ ",
"% e y p h B H H 6.q.B h j u g u j u j u h u j u p j j u p j j u j u p u u j u j j j g u j j u j j p j j p g j u j j u j j u p u j j u j j j g j p h u j p j j j g j h h j j j u j j r.&.H B B j h y 0 $ ",
"% w t t y t t p q.4.h p j g j j j u j j p j j g p j j j u p j j j j j j j j j j j u g j u j j j u g u j j u j u u j j j j j j j u j j j p u g u u j g j j u u j u u g p j u j j j h &.4.i y t t e y 9 # ",
"% q r t t t t y 8.:.j u u j u j u j j j j u j u u g u j j j u u u j u j j u j u u j j j j u u j j j j g j j u j j j j j u u j j j u j j u j j j j j j j u j j j j j j j u j u j h u ) &.e t t t e r 0 # ",
"* w r t t t r t 8.@.j j j j u j j j u j j j j j j j j j u j j j j j j j j j j j u j u j j j j j g u L u u j j j u u j u j j u j j u j u j j u j j u j u j j u j u g u j u j j j j j S @.e t t t r r 9 # ",
"% w t t t t e y 8.@.j j u j j j u j j j u j u j j j u j j j u j u u j j j j u u j u j j u j u u j j j u j j u j j j j j u j j j j j j u j u j u j j j u u j j j L j j j j u j j j j S o.e e r t e e q $ ",
"% w t r t r e y 4.@.u j j j u j j j u u j j j j u j u j u j j j j j j u u j j j j j j u j j j j j u j j u j j j u j u j j j j u j u j j j j j u j u j j j j u u j u u j j j j u u j B o.y e r t e e 6 $ ",
"% w t t r t t e 4.@.h j p g j u j j j j u j u j u j j j j u u j j j j u j j j j j j j j u j j j u u j j j j j j u j u j j j j u j u j j j u j u j j j j j j u j j u u j j j j u j j B | t t t t y e 6 % ",
"% q t r t t t t 4.&.j h j u j u u j u j j j u j j j u j j j j j j u j j u j u u u u j u j j u j j j j u u j u j j j j j u j j j j j j u j j j u j u j u u j j j j j j j u u j j p p G o.e t t w r e q $ ",
"% w t t t t t e :.@.g j g L j j j j j j u j j j j u j j u j u u u j j j j j j j j j j j j u j u j u j j u j j j u u j j j j u j j u j j j j u j j u j u j j u j u j u j j j j j u j ~ ] e t t t t t 0 $ ",
"% w e t t t t e 4.o.u j g u u j j u j u j j u j j j u u j j j j u j u j j u j u j u u j j j j u j j j u j j u j j j j u u j u j j u j u u j j j j j j j u j j j j j j j u j u j u j s ] e t t r t r q @ ",
"% q t e t t t e :.( p u j u u j j u u j j j j u j j u j j j j u j j j j u j j j j j j u j j u j j u u j j j j u u j j j j j j j u j j j j u j u u j u j j u j u u u j j u j j j j u R ( e e e e e w q @ ",
"% 8 9 q w e t t &.R u j j j j j j j j j u j j j u j j j u u j j j u j u j j u j j u j j u j j j j j j j j u j u j j u j j u j u j j u j j j j j u j j j j j j j j j u j j j j u j j S ( e e e w q q 5 $ ",
"$ 6 6 9 9 q w e o.S j j j u j u j u u j j j u j u j u j j j j j j u j u u j j j j j j u u j u j u u j u j j u j j u j u j j j u u j j j u j u j j u j j u j u u j u j j j u j j p j j S w q q 9 7 6 4 @ ",
"$ 6 6 6 6 6 9 0 ( R j u j j j j j j j j u u j j j j j j u j u j j j j j j j u j u u j j j j j j j j j j u j j j j j j u j u j j j j u j u j j j j j j u j j j j j j j u j u j u g h j p q 9 6 6 7 6 4 $ ",
"& 6 7 7 7 7 7 6 B G p p L j u u u u j j u j j j j j u j u j j j u j u j j j u j j j j j u j j u u j j j j u u j j u u j j j j u u j j j j u u j j u u j j j j u j u u j j j j u j j L t 7 7 6 6 7 7 5 $ ",
"& 6 7 7 6 7 7 8 v B j j u g j j j j u j j j u j u j u j j j j u u j j j u j j j u j u j j j j j j j u j j j j j j j j j j u j j j j u j j j j j j j j j j u j j j j j j j u j j u g R t 7 7 8 6 6 7 2 # ",
"& 4 7 7 7 7 7 7 i B u j j j L u u j j j u j j j u j j j j u j j j u j j j j u j u j j j u j u u j j j u j u u j u j u u j j j u j u j j u j u u j u j u u j u j u j u u j j j u u j B r 8 6 6 6 7 7 5 # ",
"& 6 7 6 6 6 6 7 t R j j u j u g j j j u j j u u j j u j j u j u j j j u u j u j j j u j j j j j j u j u j j j j j j j j u u j j j j u u j j j j j j j j u j j j j j j j u u j j p p ( w 6 6 6 8 7 8 2 # ",
"& 6 6 5 7 4 4 7 t o.B v p j u g j u j u j j j j j j j u j j j j j u u j j j j j u j j j j u j u j j u j j j u u j j j j j u j j j j u j j j j u u j u j j u j j u j u L j u j j p j } q 7 4 5 7 5 7 7 # ",
"& 6 4 4 7 7 7 7 0 j B y y t y y j j j j j u j u j u j u u j u j j j j j j u u p j j u j j j j j u j j j j u j j u j u u j j j u u j j j u u j j j j u j j j j u j j j u y y t y y u h 9 7 5 7 5 2 5 2 # ",
"& 6 4 4 7 7 2 2 1 4 6 6 8 0 w y u j u u j j j j j j u j j j j j j u j u j j j j u j j j u j u j j j u j j j j u j j j j j u j j u j u j j j j j u j j j j u j u j u g u y 0 0 7 6 6 4 1 2 4 6 7 2 5 2 # ",
"# 6 7 2 1 , = & = < 3 6 9 0 r u j j j j u j u j u j j j j u u j j j j j u u j j j j u u j j j j u j u j u j j j j u j u j j j u j j j j u j u j j j j u j u j j j j g g u y 0 8 5 2 < * # ; : 2 5 7 5 # ",
"# 2 < ; # O # : 4 y u j j u u j j j j j u j u j u j j j j u u j u j u j j j j p j j u j u j j j j j u j j u j j j u j u j j j j j u j u j j j j u u j j j j j j u j u j j j j u h u y 4 : # @ & = < 1 O ",
"O & @ @ # = 1 7 w j g j j j j j u j u u j j j j j j u j j j j j j j j j u j j j u j j j u j u j u j j j j j j u j j j u j u j u j u j j j u j u j j j u u j u j j j j j u j j h j j g 0 4 1 = & O # & o ",
"o o # ; 4 6 8 0 y j j u j g u j j j j j j u j u j j j u j u u j u u j j u j u j u j u j j u j j u j u j j u j j j j u j j u j u j j j u j j j j j u j j u j j j u u j j j u j g p u R r 0 7 7 3 = # o o ",
"@ * 1 7 0 8 8 0 u R j j j u j j j u u j j j j u j u j u j j j j j j j u j j u j j j j j j j j u j j u j j u j u u j j j j j j j j u j j u j u j j j j u j j u j j j j u j j j u j h R t 0 7 8 0 7 < & O ",
"$ 3 9 8 8 0 0 0 R ( B p j u j u j j j u j j u j j j u j j j u u u j u j j j j u j u j u j j j u j j j u j j j j j j j j u u j j u j j j j u u j j u u j j j j u j u j u j j u j j j ] p 0 0 0 8 8 9 2 O ",
"& 6 8 8 8 8 0 0 o.| j p j u j j j u j j u j j j u j j j j u j j j j j j j u j j j u j j j u j j j u j u u j u j u u j u j j u j j j j u j j j j j j j j j u j u j j j j u j j j j L *.R 0 0 9 8 7 8 5 O ",
"# 7 7 8 8 0 9 0 ( } j g j j j u j j u j j j u j j j u j j g g g j u j u j j j u j j u j u j u j j j j j j j j j j j j j u j j j j u j j j u u j u u j u j j u j u j u j u j u j j j o.L 9 8 9 8 7 7 4 & ",
"& 7 8 7 5 0 9 8 p 9.j g u j j p u u j j u j j j u j u j j u g h j j j j u u j j u j j j p j p p u j u j j u j u u j u j j j j u j j u u j j j h j j j j u j j j u j j j j j u j j L 7.t 8 0 8 7 7 9 7 O ",
"- 8 8 7 7 8 8 8 e 7.( ~ B v S S R S M M M h j j g y y h u h h M j j B B S S M S h S M S R B B B j j g g u u u p j R M S j S M M S B B B p p h u u u u j j v v B S S S S S S B S S ( 6.0 8 9 8 7 7 8 8 & ",
"- 8 7 8 0 8 7 7 7 y ] 1.1.:.:.:.@.:.O.} { H B y e q q q r r y M ' o.o.:.:.:.:.@.:.&.@.:.:.:.&.] R g y r e 0 0 t j o.@.:.:.:.:.>.6.@.| ( j y t w 0 0 q t i B ( ] o.@.>.@.:.:.&.:.1.( t 7 7 7 8 9 7 7 8 - ",
"- 8 8 8 0 7 7 4 2 2 4 q y B B v p y 0 0 0 7 6 5 3 3 3 3 6 8 9 0 w r y y i p B G S S j h i t t e w 9 7 7 4 3 2 3 6 t p j j M h g y t w q 0 8 7 7 3 3 2 4 6 6 7 9 q q y g p B B y 9 3 3 3 4 7 8 9 8 9 7 & ",
"- 8 0 0 7 7 4 1 2 2 2 2 6 7 6 6 7 5 3 3 3 2 1 3 2 2 2 2 4 7 6 6 6 7 7 7 8 6 6 7 7 7 7 7 6 7 7 7 7 6 7 6 3 2 2 2 4 6 6 7 7 7 7 6 7 7 7 7 7 7 7 4 2 1 2 2 2 2 1 2 1 3 6 6 7 7 7 4 2 2 2 2 1 3 7 8 0 0 7 & ",
"- 7 8 0 8 4 2 2 2 2 2 2 6 7 7 7 7 4 2 2 1 2 2 2 2 2 2 2 3 6 6 6 7 7 7 6 7 7 7 7 7 7 7 7 7 6 7 7 7 6 7 4 2 2 2 4 6 6 7 6 7 6 7 7 7 7 6 7 7 7 6 2 2 2 2 2 2 2 2 2 3 1 6 7 7 6 7 6 3 3 2 2 2 2 4 8 0 7 7 & ",
"& 5 8 8 7 > 2 2 2 2 2 5 7 7 7 7 7 4 2 2 2 2 2 2 2 2 2 2 3 6 6 6 6 7 7 7 7 7 7 6 7 7 7 7 7 7 6 7 7 7 6 4 2 2 3 6 6 7 7 7 7 7 7 7 7 7 7 7 6 7 3 2 2 2 2 2 2 2 2 2 2 3 4 7 7 7 6 7 5 1 2 2 2 2 2 7 7 7 7 & ",
"& > 5 3 2 2 2 2 2 2 2 7 7 6 7 6 7 3 2 2 2 2 2 2 3 1 1 3 3 3 6 6 7 7 7 6 7 6 7 6 7 6 6 6 7 6 7 7 7 7 4 2 2 2 2 6 6 7 6 7 7 7 7 6 7 7 7 6 7 6 2 2 2 2 2 2 2 2 2 2 2 2 4 7 7 6 7 7 6 3 2 2 2 2 2 2 4 7 : & ",
"+ + > 2 > 2 2 2 1 1 6 6 6 6 6 6 7 3 1 2 1 2 1 1 1 1 1 3 < < 3 6 6 6 6 6 6 6 6 6 6 6 6 6 6 6 6 6 6 6 3 1 1 2 1 6 6 6 6 6 6 6 6 6 6 6 6 6 6 2 2 1 2 2 1 1 2 2 2 2 1 1 3 7 6 6 6 6 6 4 2 1 2 1 2 1 1 - +   ",
"  + + & - * * * * * , : : , : , : ; = = % = % % * % * * % * * : , : , , : ; % % % % ; , , : , , : : * * % % * : , : * ; ; ; : , , , , , , * * * * = * * = = % % = = = : : : : , : : = * - * - - + +     ",
"      + X X . . . . o . . . . . . . . . . . . . . . . . . . . . . . . . . . @ . . . . . . . . . . . . . . . . . . . . . . . . . . . . . . . . . . . . . . . . o . . . . X . . o . . . . . . . X         "
};
